<mxfile host="app.diagrams.net" modified="2023-09-25T20:44:28.437Z" agent="Mozilla/5.0 (Windows NT 10.0; Win64; x64) AppleWebKit/537.36 (KHTML, like Gecko) Chrome/117.0.0.0 Safari/537.36" etag="xU3ppNhVNgDVCDxA2YSr" version="21.7.2" type="device">
  <diagram name="PÃ¡gina-1" id="KU5GXJ2eo6DiFCw3ZYdT">
    <mxGraphModel dx="1195" dy="640" grid="1" gridSize="10" guides="1" tooltips="1" connect="1" arrows="1" fold="1" page="1" pageScale="1" pageWidth="827" pageHeight="1169" math="0" shadow="0">
      <root>
        <mxCell id="0" />
        <mxCell id="1" parent="0" />
        <mxCell id="LgC4L-c3pY4Z4chyAlvD-7" style="edgeStyle=orthogonalEdgeStyle;rounded=0;orthogonalLoop=1;jettySize=auto;html=1;entryX=0;entryY=0.5;entryDx=0;entryDy=0;" parent="1" source="LgC4L-c3pY4Z4chyAlvD-2" target="LgC4L-c3pY4Z4chyAlvD-6" edge="1">
          <mxGeometry relative="1" as="geometry" />
        </mxCell>
        <mxCell id="LgC4L-c3pY4Z4chyAlvD-2" value="" style="shape=cylinder3;whiteSpace=wrap;html=1;boundedLbl=1;backgroundOutline=1;size=15;" parent="1" vertex="1">
          <mxGeometry x="90" y="170" width="60" height="80" as="geometry" />
        </mxCell>
        <mxCell id="LgC4L-c3pY4Z4chyAlvD-3" value="&lt;font data-font-src=&quot;https://fonts.googleapis.com/css?family=Lexend&quot; face=&quot;Lexend&quot; style=&quot;font-size: 14px;&quot;&gt;Portuguese soccer games (2010-2022)&lt;/font&gt;" style="text;html=1;strokeColor=none;fillColor=none;align=center;verticalAlign=middle;whiteSpace=wrap;rounded=0;" parent="1" vertex="1">
          <mxGeometry x="70" y="260" width="100" height="50" as="geometry" />
        </mxCell>
        <mxCell id="LgC4L-c3pY4Z4chyAlvD-11" style="edgeStyle=orthogonalEdgeStyle;rounded=0;orthogonalLoop=1;jettySize=auto;html=1;" parent="1" source="LgC4L-c3pY4Z4chyAlvD-4" target="LgC4L-c3pY4Z4chyAlvD-9" edge="1">
          <mxGeometry relative="1" as="geometry" />
        </mxCell>
        <mxCell id="LgC4L-c3pY4Z4chyAlvD-4" value="" style="rounded=1;whiteSpace=wrap;html=1;dashed=1;align=center;" parent="1" vertex="1">
          <mxGeometry x="220" y="180" width="120" height="60" as="geometry" />
        </mxCell>
        <mxCell id="LgC4L-c3pY4Z4chyAlvD-5" value="" style="html=1;verticalLabelPosition=bottom;align=center;labelBackgroundColor=#ffffff;verticalAlign=top;strokeWidth=2;strokeColor=#82b366;shadow=0;dashed=0;shape=mxgraph.ios7.icons.document;fillColor=#d5e8d4;" parent="1" vertex="1">
          <mxGeometry x="320" y="202.85" width="10" height="14.29" as="geometry" />
        </mxCell>
        <mxCell id="LgC4L-c3pY4Z4chyAlvD-6" value="&lt;font data-font-src=&quot;https://fonts.googleapis.com/css?family=Lexend&quot; face=&quot;Lexend&quot; style=&quot;font-size: 14px;&quot;&gt;games.csv&lt;/font&gt;" style="text;html=1;strokeColor=none;fillColor=none;align=center;verticalAlign=middle;whiteSpace=wrap;rounded=0;" parent="1" vertex="1">
          <mxGeometry x="220" y="185" width="100" height="50" as="geometry" />
        </mxCell>
        <mxCell id="LgC4L-c3pY4Z4chyAlvD-8" value="" style="shape=image;verticalLabelPosition=bottom;labelBackgroundColor=default;verticalAlign=top;aspect=fixed;imageAspect=0;image=data:image/png,iVBORw0KGgoAAAANSUhEUgAAApwAAAECCAYAAABTzwcLAAAACXBIWXMAAAsTAAALEwEAmpwYAAAAB3RJTUUH3gkMDzIv7tskIwAAIABJREFUeNrt3U9sU1f+9/HvJTdxnOQm2IX0cZBAmghTiUhFbtGURYlUsUsWPKtmkx0s0tWwyW9FFmT1Y5NZlUVYPdmkq6eLZDMPQjIsmBGpf6kEUjHKSEEiHgzYYCexHTucZ2GcpjSB/PE999/7JY06nU5xcn3uOZ/zXwQAAACwkbH9b1K5imr2B3SZRyTe3WrwqAEA0C9dqKrV2jvadrgjcI4+eKXSxZotHzLUF5aJgR4KJgAAGo09zKlUfsOWPzsRaZNb56O07diTIyIis8trtoVNEZH5lZIks2XF4wYAQI+55+u2hU0RkVR+Q+aer9O2Y++Bs1izv7zYGWgBAMAfZcrvfPEZ8FHgBAAAAAicAAAAIHACAAAABE4AAAAQOAEAAEDgBAAAAAicAAAAIHACAACAwAkAAAAQOAEAAEDgBAAAAIETAAAAIHACAACAwAkAAAAQOAEAAEDgBAAAAIETAAAAIHACAACAwAkAAAACJwAAAEDgBAAAAIETAAAABE4AAACAwAkAAAACJwAAAAicAAAAAIETAAAABE4AAACAwAkAAAACJwAAAAicAAAAAIETAAAABE4AAAAQOAEAAAACJwAAAAicAAAAIHACAAAABE4AAAAQOAEAAAACJwAAAAicAAAAIHACAAAABE4AAAAQOAEAAEDgBAAAAAicAAAAIHACAACAwAkAAAAQOAEAAEDgBAAAAAicAAAAIHACAACAwAkAAAAQOAEAAEDgBAAAAIETAAAAIHACAACAwAkAAAACJwAAAHBYJo8AdkoXqmq19k5+yVdFRORpsSrFqvr9v9fUnv6cWLhFYu0tIiKSiLaJiMhXkdb6/x42DZ608zKlmsqUNre+61Ruo/6/lzclU9rc058Rt0zpMo/wPftQKldR6WJNijVF2YBvy/hKaVMy5XeSKf1etvfT1jXKudVqyGmrVSzTkLhlSiIa8nwZN0REppdW1e2lVVs/6Ep/l1zt76JS8Hm4TOU3JF2sydNiVdLFmrbPTkTa3r+UbTLY20450/h9p/Ibkspt7LlC5XsOVtlIF2t7DpXNKBunLVO+irYRQmnbbQ+Xv+Srkspt7CtQHkYs3FKv/yJt9fLe3eqp507gPERB02m4r911FWimVFPJbEVr4NiruGXKxd52GTwe8txL6WbJbFklsxW5ly274vtuVL5DfeFDf8+zy2vKjt/Jje+unWUjld/QEjD30jgPHg/JYG/o0KNDc8/XVab8znNlg7a9uZ2o5Mt63adzMOVjLNOQRLRNLh4PyfCJDtd/BwTOfbrx6K2aXyk5UrBmLnzmeMPVCJnzKyXXvHR7aXiG+sKBafjtqGhnn627JmR+KmAcJHyOPnil7CrPlmnIj19HfdnxSReqan6lJPMrJVeXDcs05GJvu4yc7Nj39zD2MKdS+Q3bfrZbX0dsmy6lbT98eze7vC7JlxVXdKI+ZbA35OrwSeD0QNhsuHbGkpFTnY48w7nn6+qnZ+ueCZm7SUTaZORUB9OxPv/O45Yp35/s2FPFm8pV1NhC3tafZ6gvLBMDPb4pc8lsWc0ur4udQcwNZSNdqKrRf762PSTcPBchcFL3NbWDNdQXlpFTHa4aZGGXukfCpohoH0HIlGpqemlVXbr7Qk0+Lng+bIqIpPIbMr74Ri7ff6nmnq8rSvbOle3l+y89/Z2nizWZfFyQy/dfqtnlNce/Zy+MjuynbIwvvvFk2NxeNi7dfaGml1Y/WjZWa+9s/3kamyjhPL+0d8Waktln63L5/iu58eitypTcMf1A4PRI2LRMQwaPh7QFzRuP3qrL91/J7aVVV0+VHSYANAJJKlehxpf6SF8jaPolIGVKmzL1pCiX7r6gg3HIsjH2MOerslGsKbm9tLqn4IlgBE0/tnfzKyW5fP+VjC/mHQ+eBE6PhE0da8C2B02nf2edgWRsIS9jD3Ou6QXqfwY1Nb6YV2MLed+EiZ3CxeTjgow+eEUH4wB14NhC3rMjmnsNnpfvv1TJbJmyESCNEXu/Dqxsl8xWtkY8CZyETUfD5vTSaqCC5odS+Q0ZffBa3DD9qtPs8poaffBaktlKIH7fdLEmYwt5mfqtQLD4ZANVVpfuvlBB6nyOL76R8cU8ZcPv9UCh6rsR+72aXynJpbsvHFlqROAMeNice76+NZUQdMWakqknRRl7mAtEgzO+mFdTT4q+79nvGLSfrbOc4hP13/jim0CWjWS2IpfuvmC006eml1bV6D9f+3bEfr9tnc6ZPQJnQMPm9h5esUa9ul0qvyGX7r5Q6YI/V/OnC1VVnz6sBPp7biynmFspU+i3lY3RB69UUGc6tjfI44tvZHppjULhm/e9psYe5hhc+aCt0zmzR+AMYNikh7e3BueHhZz4baPJ3PN19cNCLnDTSB8T9HC11fjkKuqHhZwvTqNoZoMM70tmy2r0AW3ebm3d1JOilqUkBM4Ahc3G6AU9vL2/iJOPC74JnbPLa4xoY9eOyNhCnrIB35ldXgvs8pD9hfJK/QIMG2f2CJwBCZuNUU1GL/bPD6HzxqO3aupJkS8TO4bNyccFHgR82a5T7+1duliTHxZyYtfadgKnS8Jm3DLlznefG80Om4xqEjrdUL5B2AR0Gl/MU+8dQLGm6mvbbWjvAh843RI2Zy4cs2W9Jmuymhs6vbarmbAJwiaCZvTBq8BvimxGe9fs0BnowOn3sDm7vKZYt9LsXvMb8coB8XPP1wmbIGwicGGTQRZ3hs7ABk6/h00RYZG0Tc90fPENgQKelcpVKBsgbEJ76Axk4AxC2BQRibWzRNcO6WJN3Hz3crpQVX9noTx2UL/G9A0PAoRNaA+dgUskQQmbIiLDJzqMRKSNt8UGt5dWxa0Hw4//yhEg2KVscDwMfNquEzbtD52H3cNwJGiFMihhs+HW+ahhmQZviy0v4FsXBoq84lB37GTqtwKNMmjXcagO62EGWo5QKPUZ7A1pDZsN1wd6eFNskC7WXHVU0uzyGjszsaNktqxmn63zIOArXtsYGbdMSUTadvxPLNzi+p+/WFMy/uvBl+SYhE09hvrCMjHQ48hQ42Bvu+HGXmBjut9qNeS01brj/yeVq19F9rRYdeVU4O1/u+Ou5UyppkYfvKYFwo4mH73lIcBfHf5CVY3+0711XiLSJolom3wVaZVENGSIiPxrj3V5uliTdLEmqdyG667jzJQ2ZexhTt06H913nvF94Ax62GyYGOgxLt9/6ch0ayzcIolIm8Qts97D28fL9+GL+EtuQ1L5qtzLll0RQDOlTZleWlVX+7sMZ8s5V1ZiZ+OLeUa+4b9y/av7Nr8N9obk4vGQDJ/oMP51wD8jFv7zGri55+vq3suKuOU9TuU3DtTu+TpwEjb/6OaXR0VXjzBumTLUF5bB3pDEwqbxc1OC6x9fxGS2rGaX1x3vATpdxrxyBJJl/j6SnYjuvpntabEqxaqS1do7Li04bMOQq6ixhTxlA3SibCy735/qlOG+domFTeOmDZ8xfKJjq+2bXlpVPy2vOT7A0Ng4u5/bEX0bOAmbO4TA7lZjemnVtmsuY+EWGTnZsRUyZ2zvTbYbIvWplaknRceCZ6a0KXPP19X2SkEntx6BFLdMudjb/ocppTsH+HPSharKlDe3ppcIGvuoB13aEdlayxZt23qP7xzo3XP39COab3Z5zRX3ozeC5tX+LuOOxs9tjCq6IXjud5TZl4HTDSM+bgub2wtrs88rS0TaZORUhwz2tjdlJPMgQVqkPuI5+eitIy/g/ErZke9z6reCqzaDxC1Tvj/ZsTWlNNPE7/fDdzyVrwq7U3dnZ+fSLR3SnaYfk9mySmYrrll2g2Z27t2xVr3Rvt9x8GdoBE8nR3v3u6TMd4GTsPlpN88dldEHrw9dGScibXK1v1MS0ZBxywW/V2OkxIkDgFP5DcmUamqnBtDOyvfy/VeuKFPby8KMhs/bPpo893xd/fRsnZHPD/y0vOa6svGzxnqgUTbmV8qMfPqE02vVY+EWmTjbvTVj4472PGI4Odiyn6l1Xx2LRNjc+6jA385YB/7345Ypt76OyK3zUcNNL17DzIVjxlBfWPvnzi7rHWmcXnI+UCQibY6XheETHcbMhWPGra8jwkUHjbKxqpwe3XNDPTF8osO4dT5K2fCBZLasnOw4DPaG5Odvj7uyzRvsbTfufPe5Yxe97HWJg28CpxvC5vWz3a4Pm9sr4sHe0L7+Hcs05PrZbpm5cMyVL912EwM92kNn8qW+aY1MqeboGmXLNOTaGctVnY5ENLQVLrxwpp2dnB7dvNLf5ap6YnvZIHh6k5PrNq/0d8nNcxHXt+23zkcdGWxJ5TckmS1/sofri8DplrDp1KaRg7p5LrLnW4iG+sJy57vPDS/9jhMDPUbc0rdqJFPalExJz7CSk6ObccuUH7+OysipTleWhUQ0ZPz87XHjSn9XIBtmJ0c3Y+EWmfnmM3H6mLBPBc9rZyzhBjZvlWmnblC7frbbteV5t3bv+tluV3YIPB84CZuHDZ1HP9mA3Po64pmR251+P50Ni47F206ObiYibTJz4Zixn6MwnHK1v8uY+eYz0dnpcAOnRjfjlik/f3vcE2Vj5FSnMXMheGWDMh2Mtn34RIf20Nk4rcW3gZOw2Zwe/8jJjh3/2ZX+LteuWdmrWNg0dF7tqWONke61og1DfWE5yO0STop3txozF47te/mIV80urzkyuhm3TEeu7T1s3eDUem/snVMj9l5v24dPdBjXDrFX4yA+dfOeZwMnYbN5rn3R/YfFxnHLdPW02H4N9rZrW0zduIrTTk6MbnphM9zH3DwXCUSwcOKILC+Gze0mBnoCu/zCC5wY3fRL2z5yqlNrvfepUU5PBk7CZvPdOh81fv72mMx885lnpkz342p/p5bPKdaUres4556va+/txy3T02Fze7Dwc+hMZsva17l5PWz+Xj90ObLuDR/nxOjmyPtzhP3yDHXvZfjYmdSeC5yETfvEwqbvgmZDIhrSNspp53mQP2kewbJMwxeBIgihU/fId/3Uih7fPL/hEx1Mr7uM7tHNRKRNrn3R7bs2UOdehlR+Q9KFqvJ84HQ6bDaOBfJj2AyCob52TwfOxjV+uisqv9Hd49dF920jfztjid86qBMDPYFZ7+uF9l7n6KZlGp5bo75Xuvcy7La054iXCp/TYfPHr6OETQ/T9d3ZtY5T92ahkZMd4uUNY27p8Wup4JfXtM47DvaGfFsX3jwXMYJ+jqsb6J7N0RnInKBzL8O9bNm7gdMtYdOv081BomP0YrX2zpY/V+fB8pZp+HJqaXuP/2+ad3DaSed0euPQfz+bYD2no9KFqtbZnMHe0B+uRPVtuR7QU66LNbXjQfCuD5yETTTTaavV/srShooyXahq3RDyN58HCpH6iLcfbp3RvdTi+1OdEgv7+9T0RDTE1HpAOlAi4vsO1PaOtq51yjt9h64OnIRNNNtXkVZP/tw6Rzdj4ZbALB3RdXqBnX7J6btf2jIN3xyXRgghcIrUlw75vQPlRJ2309Iy1wZOwibsoGtNYipXaeqaut3WxNjhyl86A1UevD7KeU9jZ+T7U8EpGzpHg7Ctc50ta9ss5PelQ06W652m1V0ZOAmbwB/pmjIN0uhmw8ipDo830HoCZ5BGNxuGNZ1sge2ddX0j9hd7g/n96irXH36XrguchE3gz++Ers8K4oiOl3erN3skncYZjnegNI7Y+2FJzUEkoiEtJzF8+F26KnA6HTbrt2Z8Rtj0+8vmsSnUVL7qu54vmuMXjWVj5GQHDxy20rk5crA3FKi1m3/6/Y/bvykuU9r8w817rgmc7gibx4wgF8CgsOvYIruCwNOinlAR9ArYi3RNP8bCLXTEoaFzrXE6/XiwTyHQdQrD9k2NrgicbgmbvO4B6UVrvq3HKz9v0CtgGujdsXkGfgucQb/ERdcG2qfb2i/H73cjbMKWiuv92rZ0sSbFmno/tL8pq7V3ngqcqVxFjS3ktXzWV9E2Co6XOiKFqhr952stnzVIZwRa6js9gXOwNyT/4nFL3DJtbw/TbgmcOitMwqb/AmWxpiRdrMlqtR4it4dJXSHNbrrW6MUtk+l0rwVOTUstLNNgOh22y5Rq6vL9V1o+6+LxkNzkkctpq9X2wLl91NqxwJkuVNUPCznCJj4aKldKm5Ipv5OnxaoUq2qr8PolUH6KrvWbiUibzFDkPFY29IzUJ6JtcofHDds7UPpmnpjNqdOxU72R9+LdrYYjgbMRNnUd7krY9E6wTOU2JFOuT38HJVS6oRJOUAFTNj7SGQH8Up4t02A2R7NMuX7ygPbA6XTYTETa5Nb5KIXNwXCZLtYkXazJ02JV0sUawfJjL6qmI0LilsnD9hhdo9+UDehpG/Ss3+xqPSLTS6uKJ66vfWl0JrTWJE6HzaG+sEwM9BA2NUpmyyqV25B0sSap/Abhcp/vi441zvT4vUlXPaprNysCHn7KesJPprQpt5dWeeAOBFttgfNpsSo/La8RNn3fS62oZLYiqXw9ZI4vvuGhHJCO80JF6gvHWaPnvfdMR+ctbpns5oXWUAIC56Hpuu+XsKnf3PN1de9lRVI5RjCbSecOdXiLro57l3mEhw0NgUTfDnU48P06tYaTsOkPyWxZJbMVmV8piZPnqKIJoaKVUOE1bCaDvwIno5tB+H59HTgHe0OEzSabXV5Ts8/WmSrXQNci+q8irTxsAI5xaqkd9PJ14PTaFYbu7Z3U1OzyusyvlGTqSZEHAtAZAWirsffvuFBVvg6cmdKmjD3MKY5BOnjQnF5aE9bW+Juuw38BAMG0Wnsnvl+8lcpvyNRvBcbr92l6aVWNPngt8yslHoaDZVdP4ORIJOyMTUMAmiUQtcnss3WZe75O6NyDZLasLt9/qW4vrbKuBnApXWcWcoc6tJRnNg0ROP1k8nFB0oUqCeojxhfzanzxDS8/QAMNUJ7RNMWakkDNl/ywkONb30EyW1aX7r5QTp6VCgAA/CldrAUrcBZrSkYfvGKUc5up3wpqfPEN0+cBlYhwziIAwH6BWxGeLtbkxqO3pCsRGXuYU7PP1nkQAACAwNls8yulwG8iGn3wSunaBQ0AAAicgRTUTUTpQlVduvtCcdAuAMANLA5D8L24ZUqgD1kL2iaidKGqfljIsV4TW54WqzwEAI46bXGjle87FaYR7MAZtE1Ek4/fEjbxp3cAAAC7Bf4aiaBsIhp98Crw0+ixcAu7suGb0QIA8BKTR/D7JqLhEx2+rMVvPHqrgnBFZdwypcs8Uv9ra/2vlmnIaavV6NrWQH/z/14wrAdPO221Cpv+QAcKBE4PmnxckFSuohLRkK9KfjJbVuOLb3wVKmPhFjlttUqs/Yj01f/7HwKlX8TCLdzAAUf5sU6EO+t1+FuXeYTAuV39WseaioX9k14mH731bNiKW6actlrrIbO9RU4HrBsca9cTOAkVAAC7WKYh8e5Wg8C5TbGmxE+jgeOLeU9cV/l+2lsS0Tb5KtLq2xFLoJkdMsnb/zkrjLBDg0Q0ZPz1H/9hqZNPw+bNc0clIS6cUrdMQ670d8n8Skmc2OTS2EQ0MdDj6cSTylXU2ELetT/fYG9IEpE2SUTaAjdy6bZQwZmsHi0bGmTK73jY8JW4Zcq1MxYPQoMu84jEu1uNxPu/d1XgtExDfvw6KvHuViNTqqnRB68dObZlfqUks8trauRUp2eD0PTSmus6Ehd722WwNyQXjzN966ZQwdFI3hw10BI4GeGEJolIm5aNcMWaEpYQOcM1gXN72Kw3tqbh5Cjd1JOiZ9e2uWl0c7A3JEN9YULmQQJn+xFN5YXdzl6ja5MFgRNaO9h5yrSfueIczg/D5laPJxoyrvR3OfZzNTYRee1LnX227vjPMNQXlp+/PSb//eVRg7B5MH2aRjhXa0ybek2XqakzwtFL0Bk4NUnlKkzrBDFw7hY2G672dxmDvSFHfjYvbiLKlGqObhQa7A3Jz98ek+tnu43/1d5C0PRABcwaTu/Zrb60q07hicNuX0X0XW/5S54rfQMXOGPhlo+GzYab5yKGU+d0ee0mIqfCZmMn2n9/eZSg2bT3Q99mKnr8dEjokMBJOpevsYwoYIEzbpny87fHjb321K+f7XHsNoLGJiIvfKFO3CgUt0z5v98eZ+rcjkpY01Wc9Pg9GDjb9QROGmfobEu0lGmWigQncMYtU2YuHNtXOIl3txrXB3oce1BTT4qSzJZdHTozpZr2+9KH+sLyf775jHMz7QoVmkaxnhYJnJ7rjET1dEZonOG3DraIyNzzdWZ1/B44DxI2GwZ7242Rkx2OPazJR28lXai6tpD+onkkYqgvLNfPdpM0fdDj98IFAXCmbDClDr91okRE7r2kzvN14DxM2Gy49kW3obMXtF2xpmTysXuvikxpnBZ9f3guYdMnoaIeOsv0+CkbO2I0CDoM9rZra1OS2Qob4vwaOBORtkOHzYZb56OGziMUPuztjy/mXVlIdZ0v1tggxDS6jh5/SGsFDO+IhU1t9SCjQfBlR2qlzAP3ZeBs8lD5zS+POvbQktmKTC+tui506lprdaW/S9iJrjF0ahrRv5el8qVxpjMCZw31hbV91k/LazxwPwbOple03a3G9bPdjn3+7aXVQE5BxsIt8v3JDsKmzsCpaV1TsaaYVqczsium1aGDznO3izXlysEjAqcLDZ/oMHT2hj7kpk1Eus5RdHLTVlDpPBDZiWO14I3A+ZMLbjCD/8XCptZztxnlJHDu2cRAj2OHwrt9E5HXe594HyqiIUPXGbRBXEjv5TNI492ths4D4IN2QQA79J2hcyCpWFMy9VuBUU4C597cPHfUsUPh3byJqOmNm2WydtOx0KlvJGt6KVg9fq+PcOgc5Qxa2ZhlVNcRugc2Zp+tc9sagXNvYmHTuHmOTUT2P+cW3hiHXDyurwKeXykFZpRzemlVFT3+q+psnFP5jcA0zHPP15Wukz/w5zZdd+i88bjAgydw7rGXHw0Z185Yjn3+7aVV3y+qP2218sY4ZPiE3o1aU0+Kvn+mmVJN+WH91mBvu6Fzhicoo5x/D8A74Ga692dkSpty49FbRjkJnHszcqrTcHKN4d+fFF19ExG8Hiz0le1ktuL7kawbjwpS9MlA7sXedm2flcpv+L5zPb6YV0XOBHe8I6V7Vm1+pcRpDATOvbt5LuLoJqLxX9/4trAwveRwqDjOFFOzTC+tKj/dEa67o+3n0b+55+uKc0fd4cpfOrV/5uTjAgNHBM69u362x7FNRJnSpow9zPmysD4tVnljHKR7Wt2vU0zJbFndXlr11e+ke1q9WFO+rOfShaqaZC2fq+o8J9ryHxZyhE4C597Eu1uN6wM9jn1+Kr+h/ZgFHVMP6WJNVplmcpTudU1+m2JKF6pq8tFbykaT6jk/bZZMF6rqh4UclYzLfH9K/yhnsaYInQTO/fX4nTykfPbZutaGOhbW0w3kJhqHe/x97do/c/JxwRfrORuBwq9r80ZO6a/v/LJZ0u9lw8uu9nc5MspJ6CRw7su1L7oNnWfUfUj3JiIda1dv/9vbO1SferxFSURDhhPHU40vvvF0xTv3fF2N/vO1rwNFLGw6Ut9NPi54OnQms2XCpstd6e9y5HMbodPPG4kypZoaX8yrv/7jP+rS3RfKzlmLI34vqLfORw2nzo/UvYlIx++ZKW3K/ErJky/f02LNF1NmTiykb1S8XhzpnPqtEJh1eVf7Ox35XK+GzumlVTW++Iaw6XIjpzodbccnHxd8eRvR7PKaGn3wWhqb5Io1JbeXVm1bu38kCIX15pfOHQqvcxORrnMy//6k6Lm1nPMrJd+McA2f6HCk8i3WlIwt5D0TLNKFqhp98EoF6bYYp0bAG6FzdnnNE2UjU6qpsYc5320e87OJs93OhrNn6zL64JXyw6UYqVxFjT54paaeFHdsE+dXSra8y4EInPHuVuO6g4VV1yairyJ6Auf70S5PvHSrNSX/9esb341w6d4g8mGwcPvu9emlVTX6z9eBvAvbiRHwhqknRddf9Tu9tKpGH7wWPx2LFZTOlJPnbIvUN85evv/Ks5vlGtPnYwv5T9aNU0+KTR9cOBKUwjp8osNwspHWsYkoEQ0ZOl+8ycfunmK497Ki/vf9l748U8+phfTbe8CX779Ubptin11eU5fuvgj0yJVTI+ANyWxFLt19ody2wXDu+bq6fP+lur20yhS6R107Y4mT9V7D7aVVuXz/pfLKbE+mVFM3Hr1Vl++/kv20h81eKnMkSIV1YqDHsUPhG1+e3RsvdPYA51dK8l+/vlFum17/n/yG+mEh7/u1WU4tpP+9EtuUsYW8jD3MOTrNlCnV1PTSqrp098WuU0RB4+Qop8j79euLb2TsYc7xTsns8pq6fP+lmnxc4PIKj4uFTcPpem97/Tf5uODq4JnKVdT4Yl5dvv9K5ldKB84tzfr9jgStwN48d9TRHpLdm1Z071JNZivyw0JOuWH39//kN9Tk44IaW8gHYrrMyYX0f6jU8hty+f4rGV/Maw0Xc8/XtypTRq3+aPhEh6MndGwvG41Oic4Rz2S2rG48eqv++o//qKknRYKmz+o9N5TtnYLn9NKq42s8M6WaanSyxhby0owZvmaFTkOkvqbF7imoK/1dcrW/y3BDAUnlKmpsIe/Y58ctU2YuHLPtWfz1H/9xpMBf6e+SkZMdRpfmQD+/UlLzK2VXhUxd5T2ZLavxRXddpxoLt8jg8ZAM9oaauswjlauodLEmqfyGeG2ZRCLSJrfOR7W+GE7XczuxTEOG+sKSiLbJYG97055HulBVqfwGZeMDfm7bL9194dr77uOWKUN9YRnsDWk5I7tR/udXSrauW79+tvtQN94FMnCK1KdZphy8D3ioLywTAz22PI/xxbxj6xYt05DvT3XaHjzvvayoZLYi97JlV45s6SzvYw9zrr4XPBFpk0S0TWLtR6Qv3CJB5DxeAAAQIklEQVRd5hGJd7cau4UkkfqUbLpYk0xpUzKlTc+PWDsROEVEbjx6qw46labrucQtU2LhFolb5kfLRrpQVau1d5QNAqdrO1S7dcAb5TxumU3phG/vfKdyG1rbwMOEzsAGTqeDWTN6C25/EYf6wpKItMpgb/uhw+f/5DfUL/mqpHIbnmhgdJb3TKmmRh+8ZkqZwLkjN48EgcDp9t/ProGZxjGGieinlwekcvU272mx6op6/qDZxQzyi37zXMQYffBKOXV0SmMT0W49+gNXYNGQcfn+S+X0uqX5lZLMr5Rk8nFBxS1TTlutEgu3bI107WSltCmZ8rutlyxT3mT91Sd70Kbh1YoXGhqHgR5x27ILoBmu9ncZTg8cHUSxprYGTrw4Qt9Y07nf0GkGvcBeP9sjTl5rZtcmoit/6RQ3nT2ZLtYCeSaizorX7VPrcMZgb7snG2VgL5weOAqqg4TOI0F/aPHuVuP6QI+jPZ3RB6+annaHT3Q4egQU9JsY6HbFGXVwZ6NM2YBfzVw45ooTO4IaOgmc+xwBGDnZ4djnp4s1W25uuXbG4ssNkFjYdLTzBLeHzqM8BPi3fH95lA63y0MngbMRzr7odvRsr/mVUtNvIkpEQ47eroTgdZ7gXoloyKATCr+Kd7caP34dJXQ6FDr3cqkNgXObW+ejjg7LTz4uSLMPzp4Y6GEqjc4TICL1Q7PphILQiWa7/e9Pb1olcH7g5pfOTjuNL76RZt9UwFRaMDtPrOHFbp1QygYInWimvWxKJHDuUFivn+127PMbdxA3UyIacs39s9CHhfT4WNkgdMLP7fid7z6njGs02BsicB7E8IkOR6ed7NhEdLW/y9hLgYC/sJAehE4EuYyzvEhDwLdMufKXTw9qETh34fS00/xKSWaX15o8tR6hgQlgT5/pJRA6EVS3zkfZSGmjob5wvR7ZwwU2BM6PBjRnR4emnhSbvomIBiaYoZPpJVAnIKiufdFtON2e+41lGnLz3FGZGOjh4PdmiIVNw+kNN3ZsIqKBIVgAH5YNltzAzwZ7242ZC58JdWAznmVI7nz3uTHY276vBE/g/ASnz66zYxMR4SPYwYJjcf7cU0d9yQ2bC+FnsbBpzFw4Rjk/RF1589xRuXkucqBKk8C5ByOnOh3t/dt1ExHhI5gmBnqM62e5BlNEJBFpE25n+t3V/i6mHt+LW6Y4eWIJ7C3nM998Jmwo2kcOOtlxoFFNAucBe/9+20S0PXwEp4fLMUEi9ZMYfvw6GujppSv9XXLrfJSLET7QmHoMcmM8crJDZi4cM/qoL/zboehuNW6dj9L53kOnfOabz+TaF92HfkgEzn24frbH8U1EyWy56aFz+ESHMfON/9e2jJzskJ+/PU7Nsq3CbUwvBanCjYVb5NbXEbna30VZ2PUZmcat81Hj2hkrkGWjGY0rvNP5vvPd54GrB/f6Ltw6H93TDvS9YBHfPhvoZLas7FhTuVeTj95KulBVzSoA2383EZHppVV1e2nVV99bItIm185Y0uxn5hdX+7uMTKmm6h2aiq9/1yv9XXK1v8v4ma99b520U52GiMiNR2/V/ErJ9x3Sa190UzYCXA822sCfltekWFOBfA5xy5TvT3bI8ImOpr8LBM59GuxtN5wMZcWaksnHbwkfewyaV/s7JRENGbcoup/ozda79qlcRU0vrUkqv+Gr32+oLyxX+zu3fk/sz8RAj+HXspGItMnEQDdlA4EOntvbyxmbPoPAecACOfYwp5yqeNPFmi2jnH4JH0N9YRnua3c0aHp1aiYRDfkqeG4PmhNUXZQNOqTYZ/Cce76ufnq2LulizXe/o2UaMtQXlpFTHfVlNDZ/nikiEmu3fynn4HF/nfF263zUGH3wSjlVCC0Ns8PbG5i5lbK4eUotbpnvX5xO418iMvGJEGL37+L1Mw0b3326UFWzz9blXrbsmZ7+h5UoQdOespEp1dT00prnysbF3vatTojfg+ZXkVa5reEz/Gz4RMdWXTi/UpLky4pkSpueDpkXe9tlsDckg73txh0Ruabps7dSi13Dx5ZpyN/OWFtfmt/cePRW6axwnXyemVJNJbMVmX227ooXLm6Z9RfneGjf6zPtWpMWC7fIlb90+rK8zz1fV/deVly51OLDSnQ//24qV1FjC3l7Q1qkTW6dj/p2ytbNZaPRAbx4PLTv99IPZcPOtv37U52B3HzXCJ+p/IYnRj5j4RYZPB6SRLRNDnOsUdMCJ7DfFy75siL3smVtL1ws3CKJSJskIq3yVbSNNVcOB4xUviqp/IZjnY+4ZdbLwyErUQJncyWzZZXMVigblI1AyJRq6pfchjhdH35Y/k9bra5rK1nDiYMV6A9GFJPZskoXa5LKbUimvHnoly5umRILt8hpq1Xilvn+7012kLrE9pGiTKmm0sWaNPP7/3AkpVEOYuGWepiIhox/icgMX4XrfBjwGnXD02JVMqXNpnZQG2WjUS4oG9BtpzCXylXUL/l6ec+UNuVpsWrLLGjjrNxEtE1i7UekL9yyVf7diMAJWxoZkfoo6GrtnayUNiVTfvfRRqNxBmgs3CKxsOnaFwZ7q3AbQbQRPNPF2p4q3Ealub0siIjc4TH7qm6gbMDPGuucd2sT91PuReoDMI2NqF3mka0BH6+1kwRO2IZzLwmiPAVQNgDaRBFuGgIAAACBEwAAAAROAPCoX/JV2z/DYnUJAAInAMBOp61WHgIAAicAANAv9n7nPUDgBAAggHRcakHgBIETANAUFqcAeZJX7ogHCJwA4HI6rqJrXGwA0BkBgRMACJzAlqdF+08woDMCAicABCFwlu0PnLtddQd3K1aZUgcInADQjMDJCCd2oWOEk84ICJwA4HPpgv1DWEyZehebhgACJwAcPnBqGMHqMqlmvSiVq9ieNhORNh40CJwA4HdPNZyzmIgSKryIK08BAicANEUqv2H7Z8TaqWY9WTZy9pcNrjwFgRMAfC5TqikdN8n0cZMMnZFdfBUhcILACQC+9ouGESwRdiF7UTJb1rJbiGstQeAEAJ+797Ji+2ewQ92rgdP+shELt0gszDVDIHACgG9lSjWlI1SwC9mjnZFsmc4IQOAEgMOZWylr+ZzThArvlY3n60rH+Zt0RkDgBOB7qVxFTS+tKh0Hn7vRT8trWj5n+ESH56ZM04Wqml5aVTrOoXSj2//WUzYInAga1o8AATP2MKe278Ad6gvLxEBPYOqC6aVVdXtp1fbPiVumzFw45qnneuPRWzW/UvL073AYc8/X1eTjgu2fY5mG3Pnuc9pfBAojnECAjD54pT487mV+pSQ3Hr0NzGiWrtFNr41gfRg2RUTSxZqMPngVmLKha3TzYm87lREInAD8GzZ3O3cyKKFz6reC0nU/9lBf2NNhc3voDELZmF5aVZnSppbPGuwNUSGBwAkgWGEzKKEzXaiq2WfrWj4rFm6ReLc37i38WNgMStnIlGpK18h3PXC2M50OAieA4IXNIASL8V/f6AsUx70xgrWXsBmIsrH4Rhj5BgicADSETT8Hi/HFvLbpUq+Eiv2Eze1lw29rOm88eqvlitOtzgjT6SBwAgh62PRjsLjx6K2WQ94bvDCdfpCw2eCnjURzz9cP/BwOwjINptNB4ARA2PwwWFy+/9LTZ3UeJlgd1MjJDt8/k3SxJpfuvvB02dB1BNJ2TKeDwAmAsLmDTGlTfljIydzzdc8FCyfCpmUaMnKq0wjCMynWlIz+87XMLq95rmxML61qD5siIiOnOgQgcAIgbO4SLCYfF2R8Me+ZYDG+mNceNkXcfb6iXQF86klRxh7mPFM2bjx6q+Xg/w8N9YUlFjaZTgeBEwBh82OS2YpcuvtCJbNl14aLVK6iLt9/qXXN5nZX+zsDFTa3nnt+Qy7dfaHcPNqZLlTV6INXjnRERESG+zjsHcFGbwsgbO5bItIm185YrtkckynV1PTSmjgVJkTce0Wo7qUFiUibXO3vlEQ05JpnMfVbQdsZrLs9k1vno7S3IHACIGweNGSNnOxwLHhmSjU1t1KWn5bXtJ2juJufvz3muilTJ9axuil4Ti+tKjeUjVtfR1wVwAECJwDPhM0Pw8VQX7sMn+jQUqcks2WVzFYcHdHcbuRkh1z7opuw6YKy0bhR6l627HjQbHTK3DjyDRA4AeyJE8e6fIplGnKxt10Ge0NNP2+wETJT+Q3ReYj7Xn7nO9997qq6NJktq/HFN4EqG6nchiRfVlxXNmYufMZmIYDACXjX9NKqI7tt9yMRaZO4Zcppy5S+cMsnpxUzpZrKlDalWFOSLtbkabEqmdKmuGEUdzfXz3ZrG73zU9mIW6YkIm31g/ItU2Lhlk8Gs1SuohplI1PalKfFqqvLxpX+Lrna30U7CxA4AQInDheo3bgZZHZ5TU09KfIFORyoZy4co40F3uNYJMCjhvvaxWKmzjGWacjEQLcrf7aRU50GZcNZ18/28BAAAifgfbGwafz4dVRi4RYehgP+dsZy9dq8O999bsQtky/KAW46MgwgcAI4tHh3q/Hzt8cJFpoN9YVdt25zJzMXjlE2NBvsDbn6elPAKbwUgE+45Ygk34d8D67Nc8sRSZQNILgY4QR8YubCMWOoL8yDsFH9mBvvBYqJgR7KhoaywbpNYHf0xACfcfoaPz8Hih+/jnp6bd7c83U1v1L2xM+6WnsnXhmx90PZAAicAA4ULNx2KDxh0x2S2bKafPTWFbfw+MXNc0ebfpg9QOAE4AnpQlX9sJAjWBA2dywb47++cdWtPF7lxoP/AQInAO3YTETY3M34Yl4lsxW+aMoGQOAEcHis69y/uGXK9bM9vg8U3EpE2AQInACaJpWrqPHFN0yx78Fgb0hunosEpn5kin1/HRGOPgIInAA+gWnUj7vS3yVX+7sCWTcyEv5xIyc75NoX3bSbAIETwF4ks2U19aTIiNY2sXCL3PzyaOCnSVO5irrxuEDZ+KBsTJztlkQ0RJsJEDgB7BcjWnVBHtXczfTSqvppeS3wSzAY1QQInACaIFOqqRuPCpLKbwTud09E2mRioFtiYZO6cJeyMb20JkG8FjMRaZOr/Z2MagIETgDNlMpV1PTSWiCCJ2Fif9KFqpp6UgxE2YiFW+TKXzo5WxMgcAIgeBI0nSobcytlX454xi1Tvj/ZQdAECJwAdGpMp97Llj29js8yDbnY2y4jJzs4N7GJZWN2eV3mV0qeX+M51BeW4b52OiEAgROA0+aer6v5lbKnRj0He0Ny8XiIESsNZePey4p46agtRjMBAicAF8uUaiqZrUgqv+G6gNEYyUxEWgkShM8/lY1EtI0OCEDgBOBFqVxF/ZKvSiq3oX30M26ZctpqlbhlSiLSxnS5i8vG02JV69R7LNxSLxOUDYDACcB/0oWqypQ3JV2s1UNGVUmmvHngQ8QTkbatABELt0jcMt+PVrHezmsypZpKF2uSLtYkU6qXicOUjbhlSpd5ZKtsxNqPSF+4hbIBEDgBoD7ytds/q4cHzsSkbFA2AAAAAAD78P8B2hu62gUtTm0AAAAASUVORK5CYII=;" parent="1" vertex="1">
          <mxGeometry x="95.5" y="210" width="49" height="18.93" as="geometry" />
        </mxCell>
        <mxCell id="q4Nv1BHILr5TcBrE7PNp-1" style="edgeStyle=orthogonalEdgeStyle;rounded=0;orthogonalLoop=1;jettySize=auto;html=1;entryX=0;entryY=0.5;entryDx=0;entryDy=0;" edge="1" parent="1" source="LgC4L-c3pY4Z4chyAlvD-9" target="LgC4L-c3pY4Z4chyAlvD-31">
          <mxGeometry relative="1" as="geometry" />
        </mxCell>
        <mxCell id="LgC4L-c3pY4Z4chyAlvD-9" value="Game events processing" style="rounded=1;whiteSpace=wrap;html=1;fontFamily=Lexend;fontSource=https%3A%2F%2Ffonts.googleapis.com%2Fcss%3Ffamily%3DLexend;fontSize=13;" parent="1" vertex="1">
          <mxGeometry x="604.93" y="179.99" width="120" height="60" as="geometry" />
        </mxCell>
        <mxCell id="LgC4L-c3pY4Z4chyAlvD-21" style="edgeStyle=orthogonalEdgeStyle;rounded=0;orthogonalLoop=1;jettySize=auto;html=1;entryX=0;entryY=0.5;entryDx=0;entryDy=0;" parent="1" source="LgC4L-c3pY4Z4chyAlvD-17" edge="1">
          <mxGeometry relative="1" as="geometry">
            <mxPoint x="1250" y="317.49" as="targetPoint" />
          </mxGeometry>
        </mxCell>
        <mxCell id="LgC4L-c3pY4Z4chyAlvD-17" value="SQL Server" style="shape=cylinder3;whiteSpace=wrap;html=1;boundedLbl=1;backgroundOutline=1;size=15;fontFamily=Lexend;fontSource=https%3A%2F%2Ffonts.googleapis.com%2Fcss%3Ffamily%3DLexend;fontSize=13;" parent="1" vertex="1">
          <mxGeometry x="1080" y="277.5" width="60" height="80" as="geometry" />
        </mxCell>
        <mxCell id="LgC4L-c3pY4Z4chyAlvD-19" value="Data Storage" style="rounded=1;whiteSpace=wrap;html=1;fontFamily=Lexend;fontSource=https%3A%2F%2Ffonts.googleapis.com%2Fcss%3Ffamily%3DLexend;fontSize=13;" parent="1" vertex="1">
          <mxGeometry x="1050" y="197.5" width="120" height="60" as="geometry" />
        </mxCell>
        <mxCell id="LgC4L-c3pY4Z4chyAlvD-20" value="Data Exploration" style="rounded=1;whiteSpace=wrap;html=1;fontFamily=Lexend;fontSource=https%3A%2F%2Ffonts.googleapis.com%2Fcss%3Ffamily%3DLexend;fontSize=13;" parent="1" vertex="1">
          <mxGeometry x="1250" y="287.5" width="120" height="60" as="geometry" />
        </mxCell>
        <mxCell id="LgC4L-c3pY4Z4chyAlvD-28" style="edgeStyle=orthogonalEdgeStyle;rounded=0;orthogonalLoop=1;jettySize=auto;html=1;exitX=1;exitY=0.5;exitDx=0;exitDy=0;exitPerimeter=0;" parent="1" source="LgC4L-c3pY4Z4chyAlvD-23" target="LgC4L-c3pY4Z4chyAlvD-27" edge="1">
          <mxGeometry relative="1" as="geometry" />
        </mxCell>
        <mxCell id="LgC4L-c3pY4Z4chyAlvD-23" value="" style="shape=cylinder3;whiteSpace=wrap;html=1;boundedLbl=1;backgroundOutline=1;size=15;" parent="1" vertex="1">
          <mxGeometry x="90" y="400" width="60" height="80" as="geometry" />
        </mxCell>
        <mxCell id="LgC4L-c3pY4Z4chyAlvD-25" value="&lt;font data-font-src=&quot;https://fonts.googleapis.com/css?family=Lexend&quot; face=&quot;Lexend&quot; style=&quot;font-size: 14px;&quot;&gt;Portuguese soccer news&lt;br&gt;(until 2022)&lt;br&gt;&lt;/font&gt;" style="text;html=1;strokeColor=none;fillColor=none;align=center;verticalAlign=middle;whiteSpace=wrap;rounded=0;" parent="1" vertex="1">
          <mxGeometry x="70" y="490" width="100" height="50" as="geometry" />
        </mxCell>
        <mxCell id="LgC4L-c3pY4Z4chyAlvD-26" value="" style="shape=image;verticalLabelPosition=bottom;labelBackgroundColor=default;verticalAlign=top;aspect=fixed;imageAspect=0;image=data:image/jpeg,/9j/4QlQaHR0cDovL25zLmFkb2JlLmNvbS94YXAvMS4wLwA8P3hwYWNrZXQgYmVnaW49Iu+7vyIgaWQ9Ilc1TTBNcENlaGlIenJlU3pOVGN6a2M5ZCI/PiA8eDp4bXBtZXRhIHhtbG5zOng9ImFkb2JlOm5zOm1ldGEvIiB4OnhtcHRrPSJBZG9iZSBYTVAgQ29yZSA1LjYtYzE0MiA3OS4xNjA5MjQsIDIwMTcvMDcvMTMtMDE6MDY6MzkgICAgICAgICI+IDxyZGY6UkRGIHhtbG5zOnJkZj0iaHR0cDovL3d3dy53My5vcmcvMTk5OS8wMi8yMi1yZGYtc3ludGF4LW5zIyI+IDxyZGY6RGVzY3JpcHRpb24gcmRmOmFib3V0PSIiLz4gPC9yZGY6UkRGPiA8L3g6eG1wbWV0YT4gICAgICAgICAgICAgICAgICAgICAgICAgICAgICAgICAgICAgICAgICAgICAgICAgICAgICAgICAgICAgICAgICAgICAgICAgICAgICAgICAgICAgICAgICAgICAgICAgICAgICAgICAgICAgICAgICAgICAgICAgICAgICAgICAgICAgICAgICAgICAgICAgICAgICAgICAgICAgICAgICAgICAgICAgICAgICAgICAgICAgICAgICAgICAgICAgICAgICAgICAgICAgICAgICAgICAgICAgICAgICAgICAgICAgICAgICAgICAgICAgICAgICAgICAgICAgICAgICAgICAgICAgICAgICAgICAgICAgICAgICAgICAgICAgICAgICAgICAgICAgICAgICAgICAgICAgICAgICAgICAgICAgICAgICAgICAgICAgICAgICAgICAgICAgICAgICAgICAgICAgICAgICAgICAgICAgICAgICAgICAgICAgICAgICAgICAgICAgICAgICAgICAgICAgICAgICAgICAgICAgICAgICAgICAgICAgICAgICAgICAgICAgICAgICAgICAgICAgICAgICAgICAgICAgICAgICAgICAgICAgICAgICAgICAgICAgICAgICAgICAgICAgICAgICAgICAgICAgICAgICAgICAgICAgICAgICAgICAgICAgICAgICAgICAgICAgICAgICAgICAgICAgICAgICAgICAgICAgICAgICAgICAgICAgICAgICAgICAgICAgICAgICAgICAgICAgICAgICAgICAgICAgICAgICAgICAgICAgICAgICAgICAgICAgICAgICAgICAgICAgICAgICAgICAgICAgICAgICAgICAgICAgICAgICAgICAgICAgICAgICAgICAgICAgICAgICAgICAgICAgICAgICAgICAgICAgICAgICAgICAgICAgICAgICAgICAgICAgICAgICAgICAgICAgICAgICAgICAgICAgICAgICAgICAgICAgICAgICAgICAgICAgICAgICAgICAgICAgICAgICAgICAgICAgICAgICAgICAgICAgICAgICAgICAgICAgICAgICAgICAgICAgICAgICAgICAgICAgICAgICAgICAgICAgICAgICAgICAgICAgICAgICAgICAgICAgICAgICAgICAgICAgICAgICAgICAgICAgICAgICAgICAgICAgICAgICAgICAgICAgICAgICAgICAgICAgICAgICAgICAgICAgICAgICAgICAgICAgICAgICAgICAgICAgICAgICAgICAgICAgICAgICAgICAgICAgICAgICAgICAgICAgICAgICAgICAgICAgICAgICAgICAgICAgICAgICAgICAgICAgICAgICAgICAgICAgICAgICAgICAgICAgICAgICAgICAgICAgICAgICAgICAgICAgICAgICAgICAgICAgICAgICAgICAgICAgICAgICAgICAgICAgICAgICAgICAgICAgICAgICAgICAgICAgICAgICAgICAgICAgICAgICAgICAgICAgICAgICAgICAgICAgICAgICAgICAgICAgICAgICAgICAgICAgICAgICAgICAgICAgICAgICAgICAgICAgICAgICAgICAgICAgICAgICAgICAgICAgICAgICAgICAgICAgICAgICAgICAgICAgICAgICAgICAgICAgICAgICAgICAgICAgICAgICAgICAgICAgICAgICAgICAgICAgICAgICAgICAgICAgICAgICAgICAgICAgICAgICAgICAgICAgICAgICAgICAgICAgICAgICAgICAgICAgICAgICAgICAgICAgICAgICAgICAgICAgICAgICAgICAgICAgICAgICAgICAgICAgICAgICAgICAgICAgICAgICAgICAgICAgICAgICAgICAgICAgICAgICAgICAgICAgICAgICAgICAgICAgICAgICAgICAgICAgICAgICAgICAgICAgICAgICAgICAgICAgICAgICAgICAgICAgICAgICAgICAgICAgICAgICAgICAgICAgICAgICAgICAgICAgICAgICAgICAgICAgICAgICAgICAgICAgICAgICAgICAgICAgICAgICAgICAgICAgICAgICAgICAgICAgICAgICAgICAgICAgICAgICAgICAgICAgICAgICAgICAgICAgICAgICAgICAgICAgICAgICAgICAgICAgICAgICAgICAgICAgICAgICAgICAgICAgICAgICAgICAgICAgICAgICAgICAgICAgICAgICAgICAgICAgICAgICAgICAgICAgICAgICAgICAgICAgICAgICAgICAgICAgICAgICAgICAgICAgICAgICAgICAgICAgICAgICAgICAgICAgICAgICAgICAgICAgICAgICAgICAgICAgICAgICAgICAgICAgICAgICAgICAgICAgICAgICAgICAgICAgICAgICAgICAgICAgICAgICAgICAgICAgICAgICAgICAgICAgICAgICAgICAgICAgICAgICAgICAgICAgICAgICAgICAgICAgICAgICAgICAgICAgICAgICAgICAgICAgICAgICAgICAgICAgICAgICAgICA8P3hwYWNrZXQgZW5kPSJ3Ij8+/+0ALFBob3Rvc2hvcCAzLjAAOEJJTQQlAAAAAAAQ1B2M2Y8AsgTpgAmY7PhCfv/bAIQAAQEBAQEBAQEBAQEBAQEBAQEBAQEBAQEBAQEBAQEBAQEBAQEBAQEBAQEBAQICAgICAgICAgICAwMDAwMDAwMDAwEBAQEBAQECAQECAgIBAgIDAwMDAwMDAwMDAwMDAwMDAwMDAwMDAwMDAwMDAwMDAwMDAwMDAwMDAwMDAwMDAwMD/90ABAAk/+4ADkFkb2JlAGTAAAAAAf/AABEIASABIAMAEQABEQECEQH/xADZAAEAAgICAwEBAAAAAAAAAAAACQoHCAEGAwQFCwIBAQABBQEBAQAAAAAAAAAAAAAGAQIFBwgEAwkQAAAGAgECAAcIDgcGBQUAAAACAwQFBgEHCAkRChITFRbT1xQXGFVXWJSWGSEiMUFWWZGVl5i21NYaIzg5dXe4JDpRYXi0MkJic3YlQ0VxxhEAAgEBBAUGCQcJBQYHAAAAAAECAwQFBhEHEhchVRMWMZOU0hgiQVFUkaLR1AgUFTJSU9MjNTZCYXFzgbIkcnWzwSUzdKG0wkNFYmOSsfD/2gAMAwAAARECEQA/AL/AAAAAAAAAAAAAAAAAAAAAAAAAAAAAAAAAAAAAAAAAAAAAAAAAAAAAAAAAAAAP/9C/wAAAAAAAAAAAAAAAAAAAAAAAAAAAAAAAAAAAAAAAAAAAAAAAAAAAAAAAAAAAD//Rv8AAAAAAAAAAAAAAAAAAAAAAAAAAAAAAAAAAAAAAAAAAAAAAAAAAAAAAAAAAAA//0r/AAAAAAAAAAAAAAAAAAAAAAAAAAAAAAAAAAAAAAAAAAAAAAAAAAAAAAAAAAAAP/9O/wAAAAAAAAAAAAAAAAAAAAAAAAAAAAAAAAAAAAAAAAAAAAAAAAAAAAAAAAAAAD//Uv8AAAAAAAAAAAAAAAAAAAAAAAAAAAAAAAAAAAAAAAAAAAAAAAAAAAAAAAAAAAA//1b/AAAAAAAAAAAAAAAAAAAAAAAAAAAAAAAAAAAAAAAAAAAAAAAAAAAAAAAAAAAAP/9a/wAAAAAAAAAAAAAAAAAAAAAAAAAAAAAAAAAAAAAAAAAAAAAAAAAAAAAAAAAAAD//Xv8AAAAAAAAAAAAAAAAAAAAAAAAAAAAAAAAAAAAAAAAAAAAAAAAAAAAAAAAAAAA//0L/AAAAAAAAAAAAAAAAAAAANNuUvPjjDw8JHNdz38rWzzCOXMVRKwxWs11dMsd+0ivCsDYLDRipi5Kk5kFWiDg5TFSOcxD4LsDBWjDGePnOeHrLrWKm8pVqjVOin9lTl9eS8sYKTimnJJNZwDGek3B2AlCGILVq2yos40aadSs19pwj9SL8kpuKk01Ftp5R8LeEFcKU1DpkofJJwUhslKsjSNc4SUxj/AM5ML7bQWwXP/qIXP/IbUj8ljSI1m7VdCfmdav8A6WVr/maul8qLR4nkrNe7XnVGh/raU/8AkeP+kG8K/k95L/UnWntgF3gr6Q/S7n660fClPCj0e+i3v1Nn+KH9IN4V/J7yX+pOtPbAHgr6Q/S7n660fCjwo9Hvot79TZ/ih/SDeFfye8l/qTrT2wB4K+kP0u5+utHwo8KPR76Le/U2f4of0g3hX8nvJf6k609sAeCvpD9LufrrR8KPCj0e+i3v1Nn+KH9IN4V/J7yX+pOtPbAHgr6Q/S7n660fCjwo9Hvot79TZ/ih/SDeFfye8l/qTrT2wB4K+kP0u5+utHwo8KPR76Le/U2f4of0g3hX8nvJf6k609sAeCvpD9LufrrR8KPCj0e+i3v1Nn+KH9IN4V/J7yX+pOtPbAHgr6Q/S7n660fCjwo9Hvot79TZ/ij+0vCCuFKihCHoXJNAps4xlVWka5ymnjP/AJj4R24srkuP/SU2f+Qtl8ljSIlmrVc7fmVa0f62VIqvlRaPG8nZr3S8/I0P9LUyQjizz44w8w05Btpi/ldWiIRK6laFZ2K1ZuzRlnGO8gjCvjZLMxqJjYKs5j1XjdA5ilVOQxyYNqvGujDGWAXGeIbLlYqjyjWptVKLf2XNfUk/JGooykk3FNJ5bSwZpNwdj1Thh+1a1sprOVGpF06qX2lCX14ryyg5KLaUmm1nuSNfk+AAAAAAAAAAAAAAAAAAD//Rv8AAAAAAAAAAAAAAAADwuHDdo3XdOl0WzVsiq4cuXCpEW7duiTKiy66ymSppIpJlyYxjZwUpcd8/aF0ISqSVOmnKcmkklm230JLyt+RFs5xpxc5tKCWbb3JJdLb8iRXY6g3W9rlA8+ai4cvIy43cnlY+a3cdNrK0irq48oiuhQ2a5Fmd1mkT474kFSnhkuxcpFfYPnKXV+iv5ONrvTk79x/Gdnu760LHvjWqeVOs1k6UH9hZVXv1nSy8blTSj8oqyXZylxYClC0Xis4zte6VGm+hqinmqs19t50l5FVz8Wqzb7hatgWebul3sMxbLbZH60pPWOfkHMpMS0gv28o6fP3airhwrkpcFx4xuxSFwXHYuMYx2zYLvsV12Ond920qdCw0YqMKcIqMYxXQlFZJI4st9vtt6WypeF41ale3VpOU5zk5SlJ9Lbe9+7d0HWx6zyAAAAAAAAAAAAAAAHZKhcLVr+zQl0o9imKnba2/RlIGxQEg5i5iJkG+c5SdMXzRRJdBTGM5LntnsYpslz3LnOM+S33fYb1sdS77ypU69hrQcZwnFSjKL6U09zR67Bb7bddsp3hd1WpQt1GSlCpCTjKMl5VJZNe7d0FqHp99cCuXrEJqTmQ8jKfcjYSj4XeKaTaLpdlV/q0UEb8xbpos6ZMLHz3zIolJDq985VIxwTGVeKNKfycLXdvKX7gCM7Rd/wBadj3yq0/O6DebqwX3bzqr9V1M8o9paLvlF2S8uTuPH0oULf8AVhbN0aVTzKslkqUn94sqT/WVPLOVits5bPWzd4zcIO2jtBJy1dNlU12zlsumVVBw3XSMdJZBZI+DEOXOSmLnGcZ7Dk6cJ05unUTjUi2mmsmmtzTT3pp9KOrIThUgqlNqVOSTTTzTT6Gn5U/Izzi0uAAAAAAAAAAAAAAAP//Sv8AAAAAAAAAAAAAAAwhv/kZpvjDQH2yd1XWMp9da4VSYpOD+6JuySZEjKpQdWg0PGkZ6YcFL3wigQ2Eyd1VTJokOoWR4XwliDGV6RujDtnnaLXLLWa3Qpxz+vUm/FhBedve90U5NJxzE+LLgwddcr3xDaIULKs1FPfOpLLPUpwXjTm/Muhb5NRTapz8/urVuLmA4lqDRcymo+PquTtc0xm9JizXpsQ+Mpu9jTLE3irt1skwfEO1U83I5NgqpniiabjHfui7QXcGAowvS8tS3YpW/lWvydF+ahB9DXRyslyj8ippuBwTpP04X9jyU7ru3XsOFnu5JP8pWXnrzXSn08lF6i/WdRpSUSA3qaNOAAAAAAAAAAAAAAAAAAAAABLNwF6su6OHbmKotwPJbb4/kOm2NRpJ/3n6O1OrkyzzW8y8ybDFNLJ8qGiHBsxq5sGwn7kVVO4GjdJ+g3D2PoTvKwKFhxR08tGPiVn5rRBfW83Kx/KR3Z68YqBu/RjpvxBgKcLtt+vbsL9HIyl49FZ73Qm+jz8lL8m/JqNuZcb49cldL8paC02NpO7R1uglPIISrNM3uWwVaVVQKueCtcEvnEhBy6Jc5+4VL5NcmPKoHVRMRQ3AWKsH4hwXecrpxFZp0LTvcX0wqRTy16U14s4v9m9PdJRkml3vhbF2H8Z3ZG9sO2iFezPJSXROnJrPUqQfjQkvM9zW+LlFpvOwjJJQAAAAAAAAAAAAA/9O/wAAAAAAAAAAAAA0S6hXNqB4MaKPsZaGQtV7tU0Wm6wqLlydqxlrQtHPpVeQmlkDYeErteiY5Z06whjCq58JNinRyvhdPZGizR9V0kYqhcXLKz2KMHUrT3OepHpjSi90qkvJnmoxU6jUtTVlrnSjj+lo5wtO/OR5e2SnGnShvUNeXRKpJb404+XLJyk4Qzjr60aNvIbktujlNfnex92XWRts6r5dGKZnN7lr1WilV8rkgqnBI5wwg4hDOcfcJF8oufHlVzqrGOob9J8KYPw9gq643Th2zwoWZZOT6Z1JJZa9Wb8acn53uS8WKjFJL838VYvxBjO9JXtiG0Tr2l5qK6IU4556lOC8WEV5lvb8aTlJtvA4kxGgAAAAAAAAAAAAAAAAAAAAAAAADN+geRm5OMV+Y7I0rdpSnWJtlJJ8k2U8vCWONIqVVSEtMGtk0dPwy5sd8ouCG8mfsollNUpFCxzFGEsP4yuuV04is0LRZJZtNrKdOWWWvTmvGhNeeLWa3POLaciwxiu/8HXnG9sPWidnta3PLfCpHPPUqQfizg/NJPJ71lJJq8p07+bsPzm0XjYJ4ZnVdg1OYzU9m1Jg4UcR8dPYZNpJhLwZnKij7FdscY6Iu2K4yZVusVdtlRfyHuhX819K2j6WjbFk7hjW5exzoxrUZPLX5KbkoxqpZJTTi+jJSjqzyjrakf0h0VY/jpHwpC/pUeQtkK0qNaKz5PlIKLcqTe9wkpJ783GWtBuWrrS30GtTZAAAAAAAAAAAAH//Uv8AAAAAAAAAAAAAIq+rtwNtHPHjVH1jWUswiNyartyOxtb4lHeY2NsblOKkIebpruW7HJCqTke+wq1dHLlIr9mgmsZJuosqSaYFxQ8K3yra5ThCSS14NqdOSecZprfu3ppb8pN5SyUZQ7G2GY4oud2LVhOaz8SaThUi1lKDT3b9zWflilnHPWjTlfdNvqixbtxHueK23112ipkFVmdbhZhsqdP7WToykW9dxz4hs/eURVOQ34M5HVdLTfbZU01fVle7plGjrP+9mk8/3pHL9TQbYdd/7Grrf0RqVNVfsj4z3ebJs9T7HV1Pvmobo+pLT1g+m263cZsXqo+4t2G2Hg9p6yp3h9jq6n3zUN0fUlp6wNt1u4zYvVR9w2G2Hg9p6yp3h9jq6n3zUN0fUlp6wNt1u4zYvVR9w2G2Hg9p6yp3h9jq6n3zUN0fUlp6wNt1u4zYvVR9w2G2Hg9p6yp3h9jq6n3zUN0fUlp6wNt1u4zYvVR9w2G2Hg9p6yp3h9jq6n3zUN0fUlp6wNt1u4zYvVR9w2G2Hg9p6yp3h9jq6n3zUN0fUlp6wNt1u4zYvVR9w2G2Hg9p6yp3h9jq6n3zUN0fUlp6wNt1u4zYvVR9w2G2Hg9p6yp3h9jq6n3zUN0fUlp6wNt1u4zYvVR9w2G2Hg9p6yp3h9jq6n3zUN0fUlp6wNt1u4zYvVR9w2G2Hg9p6yp3h9jq6n3zUN0fUlp6wNt1u4zYvVR9w2G2Hg9p6yp3h9jq6n3zUN0fUlp6wNt1u4zYvVR9w2G2Hg9p6yp3h9jq6n3zUN0fUlp6wNt1u4zYvVR9w2G2Hg9p6yp3h9jq6n3zUN0fUlp6wNt1u4zYvVR9w2G2Hg9p6yp3h9jq6n3zUN0fUlp6wNt1u4zYvVR9w2G2Hg9p6yp3h9jq6n3zUN0fUlp6wNt1u4zYvVR9w2G2Hg9p6yp3j2GvTg6ob5wizQ4qbhSWcqFRTUc1aKjkEznz2wdV8+dN2TQhc/fUVOQhfv5yLZ6b7coN/TVk6P1VRz/lue/zbisdBth1l/se0Pf5alTL+fjdHnLhvR94G3Tgpxwm4XbMixfbm23cTX6/tIt+WWj6wmhFtIeu1IkulnLWZfRjNuq4eOUMe58O3qiCJlkUE3CvK2PsVc7L7duU6lSEU1yk23OpJvOU3nvS6Ek8tyzyjnqrp3AmF1hW5VYdSFKUmnycMlCnFLKMFlu3b22vK8s5ZazlkEHJqAAAAAAAAAAAB/9W/wAAAAAAAAAAAAAjj6lnLGT4uajqSNbkyV227fuJ6FB2xwRPDSskRhJGbkHmHTgp2jSUfkZJsmiiuMFTO5MrgxTplzjVml7EV/wCHcJTrYai3eVSWq5RWc6dJf7ydOOT1prNJbs1FylHxoxI/iS2Wyx3c3Yc+XluzXSo5b3H/ANS3Zbnuz8uWVc1xc78+cLvXVttz108WVdOXi0/MOlnbhc+VVnKzozxQzlVdQ2TGUyY2T5z37579x+fFW1zrVZVq9SUq85OUpSk3Jybzbk3vcm97b3t9Jp+Vqryk5TqTcnvecnmeH0pu/wCMlp/TEt/Ej58vH7a9ZT5zU+8l62PSm7/jJaf0xLfxIcvH7a9Y+c1PvJetj0pu/wCMlp/TEt/Ehy8ftr1j5zU+8l62PSm7/jJaf0xLfxIcvH7a9Y+c1PvJetj0pu/4yWn9MS38SHLx+2vWPnNT7yXrY9Kbv+Mlp/TEt/Ehy8ftr1j5zU+8l62PSm7/AIyWn9MS38SHLx+2vWPnNT7yXrY9Kbv+Mlp/TEt/Ehy8ftr1j5zU+8l62PSm7/jJaf0xLfxIcvH7a9Y+c1PvJetj0pu/4yWn9MS38SHLx+2vWPnNT7yXrY9Kbv8AjJaf0xLfxIcvH7a9Y+c1PvJetj0pu/4yWn9MS38SHLx+2vWPnNT7yXrY9Kbv+Mlp/TEt/Ehy8ftr1j5zU+8l62PSm7/jJaf0xLfxIcvH7a9Y+c1PvJetj0pu/wCMlp/TEt/Ehy8ftr1j5zU+8l62PSm7/jJaf0xLfxIcvH7a9Y+c1PvJetnlRuF9arIuW9qtrZdsqm4QcpTswgq3WQOVVJdJcrohkVEVC4MU+M4yXOO+M47C6napUqkatKo41YyTi02mmnmmmt6ae9Nb8+grG1Vk041JqS80nmWLemlyvleTWrLdFWeVxZrfpyxsKhN29DCJ29hQkYzzlGGcu0M4QfTsUVNVq9WTL4iuUk1DHOqdUw/QbQ5iK/8AEeD4V8SJ/SNKo4KUllUqUtWLp1KiyWUpZyXnkoqcvGk29wYattst12qduX5eMms3uco7spNeR9K87yze9kkQ2sSAAAAAAAAAAAAD/9a/wAAAAAAAAAAAAA1D5vcT9acxtCWDVmzJk9SZx7pG512/pFZnVoVigWr0qdiWQkF2se9iMRTx02kG66qKarFwr4qqCuE10sTfNxU8Q2RXfLWVdzTpuKzkp9Cyit8s88tXpee7KSTXivClQqWWUrTKNOlBOTm2koKKbcm20kks882llvzXSqbUxxG0jESslFMepDxvdNYx86j0XCbXfpUVis1joZUb5hNfTcMq2PkndNRo8ctlC9jJqnJnBs2r5HOnS0RVelc9ilSmlJOdooQm1JZrXhKOtGX2oy8aL3SSaaNJ1dKOimlVlSnfdnc4yabVnrTTaeTalGm4yXmlFuLW9Nppv53wV9OflGuOP0fkh7KQ8DPTxwa7u1Wbulm1XRNxuh2a0fhD4K+nPyjXHH6PyQ9lIeBnp44Nd3arN3RtV0TcbodmtH4Q+Cvpz8o1xx+j8kPZSHgZ6eODXd2qzd0bVdE3G6HZrR+EPgr6c/KNccfo/JD2Uh4Genjg13dqs3dG1XRNxuh2a0fhD4K+nPyjXHH6PyQ9lIeBnp44Nd3arN3RtV0TcbodmtH4Q+Cvpz8o1xx+j8kPZSHgZ6eODXd2qzd0bVdE3G6HZrR+EPgr6c/KNccfo/JD2Uh4Genjg13dqs3dG1XRNxuh2a0fhD4K+nPyjXHH6PyQ9lIeBnp44Nd3arN3RtV0TcbodmtH4Q+Cvpz8o1xx+j8kPZSHgZ6eODXd2qzd0bVdE3G6HZrR+EPgr6c/KNccfo/JD2Uh4Genjg13dqs3dG1XRNxuh2a0fhD4K+nPyjXHH6PyQ9lIeBnp44Nd3arN3RtV0TcbodmtH4Q+Cvpz8o1xx+j8kPZSHgZ6eODXd2qzd0bVdE3G6HZrR+EPgr6c/KNccfo/JD2Uh4Genjg13dqs3dG1XRNxuh2a0fhD4K+nPyjXHH6PyQ9lIeBnp44Nd3arN3RtV0TcbodmtH4Q+Cvpz8o1xx+j8kPZSHgZ6eODXd2qzd0bVdE3G6HZrR+EPgr6c/KNccfo/JD2Uh4Genjg13dqs3dG1XRNxuh2a0fhHux3EvSsjIMY911H+OCCD942ZKLGbcg8ppFdLEQ8otmT1vGRqaBMqdzncuUECFxkyihCYybFH8jfTrSi6tS57AoQTk3G0WeUsks3qxjHWlLzRj4ze5b2kXU9KWiidSMI33Z1KTSWdnrxWbeW+TppRXnbaSW9tLerjfBPiZrXh3oKC1xrefTu6M85zd7DsQhGJE73MTjFiRCajiR7h4zbV4kO1bIxyKS65CtiFUyqqqoqspW5cPxw1ZXdslP52pt1XNOMnUXiyTi98dXLV1X0Zb97be7bvpUKdljKzzVSnNKSmmmpJpZSTTaaayyybTW/fnm9yhmD2gAAAAAAAAAAAf/Xv8AAAAAAAAAAAAAIDvCF9o7H1xxG16wq+ZNrr6+7jjqvtmQiMnw4PEIViwztchHfif8A4qQn4orpXGck8otHok8b7vxD7u0CXjctz42V6XxR5ZU6MlDL61PX8SVWEc0pyimoOD+tCpNJZtNaT083bfF84L+irpruhKrWTlvahV1U5KjUa6ITWtLoa1oRcvFTTpqYuVUNjBsTrTGM479jkckPjv8AgOTKHcpsfhx+Ad+Rx1g2UVL6RoJPyNVE/wCa1Nz/AGHBksCYyjJxd3V215U6bT/c9fev2nPpjVfj5j+Zx6gXc+cG8Ss/t9wt5jYx4daPY749Mar8fMfzOPUBz5wbxKz+33BzGxjw60ex3x6Y1X4+Y/mceoDnzg3iVn9vuDmNjHh1o9jvj0xqvx8x/M49QHPnBvErP7fcHMbGPDrR7HfHpjVfj5j+Zx6gOfODeJWf2+4OY2MeHWj2O+PTGq/HzH8zj1Ac+cG8Ss/t9wcxsY8OtHsd8emNV+PmP5nHqA584N4lZ/b7g5jYx4daPY749Mar8fMfzOPUBz5wbxKz+33BzGxjw60ex3x6Y1X4+Y/mceoDnzg3iVn9vuDmNjHh1o9jvj0xqvx8x/M49QHPnBvErP7fcHMbGPDrR7HfHpjVfj5j+Zx6gOfODeJWf2+4OY2MeHWj2O+PTGq/HzH8zj1Ac+cG8Ss/t9wcxsY8OtHsd8emNV+PmP5nHqA584N4lZ/b7g5jYx4daPY749Mar8fMfzOPUBz5wbxKz+33BzGxjw60ex3x6Y1X4+Y/mceoDnzg3iVn9vuDmNjHh1o9jvj0xqvx8x/M49QHPnBvErP7fcHMbGPDrR7HfGblVcYznM6zzjGO/YpXJjZ/5FLhDubP/DH4RR46wak39I0Hl5lUb/ktTe/2FVgXGUnkrurpvzuml/N6+5Fx7wePaew9i8VNmxFhzKvNda+24rXNWyUuddRVJu+rcTPWmvsPKqnI2iI2TkkXqTcmMeSVlFc5znxsYLwL8oC8bmvjHKvO5qSo0qllhGeaSnUlCUkq1SK+q5x1Yxi82oQim+hLvLQFd18XPgf6Kvity1SjaZuGTzhSjOMZOjCWSclCTc5S8sqksslkT+jRxu4AAAAAAAAAAAD/0L/AAAAAAAAAAAAADWHmRIcao7jjso/LlnXpTQ7iKQbW+GsLZy8JMrGet1oOPhGkedOXVtJppBBSNOxOm8bu0yLpKJZS8qSTYQujEV+X/QuzC0Zyvirmo6ryUYtNTlOT3Rgot6ze7LozbScaxfe2Hrlw/aLwxTOELmhFa+ebcm34sYKPjOo3lqqO9Pfmkm1R6nGfSdcTUstDaE5mNYhSQd5ikE9+a2aYJHeXP7jyZo+1bYnbRQyHi5MkeQe5Tz9z5dXt4+e1KGhvSByMOXvi7VW1VrJWWrJKWW9KXLQ1kn0PVjn06q6FxnW0y4D5afI3PePI6z1c7TSTcc9zceSlqtrpWtLJ7tZ9L+X5t6V/yGcz/wBoTVnsVH12N474xd3ZKvxB8tsmB+D3h2ql+AMx3Sv/AAaK5m/tC6t9iuQ2N474xdvZKvxA2yYH4RePaqXw483dLD5CuZv7QurfYqGxvHfGLt7JV+IG2TBHCLx7VS+HHm7pYfIVzN/aF1b7FQ2N474xdvZKvxA2yYI4RePaqXw483dLD5CuZv7QurfYqGxvHfGLt7JV+IG2TBHCLx7VS+HHm7pYfIVzN/aF1b7FQ2N474xdvZKvxA2yYI4RePaqXw483dLD5CuZv7QurfYqGxvHfGLt7JV+IG2TBHCLx7VS+HHm7pYfIVzN/aF1b7FQ2N474xdvZKvxA2yYI4RePaqXw483dLD5CuZv7QurfYqGxvHfGLt7JV+IG2TBHCLx7VS+HHm7pYfIVzN/aF1b7FQ2N474xdvZKvxA2yYI4RePaqXw483dLD5CuZv7QurfYqGxvHfGLt7JV+IG2TBHCLx7VS+HHm7pYfIVzN/aF1b7FQ2N474xdvZKvxA2yYI4RePaqXw5z5u6V/b7eiuZuP8AnjkJq32LYwGxvHfGLu7JV/HG2TA/B7x7VS/AHm7pXfIXzO/aE1Z7FQ2N474xd3ZKvxA2yYH4PeHaqX4Bx5t6V/yF8z/2hNWexUNjeO+MXd2Sr8QV2y4H4PeHaqX4A829K/5DeZ/7Qeq/YqGxvHfGLu7JV+IG2XA/B7w7VS/APei2PSjRko9WR0PzNcRxHrUz9E+/tZL4Oy8sT3VjDdtqaHXcHwh42SpldtcnN2L5ZPv45bKuhvH3Jy5K+Lt5TVeX9lqpZ5bk3y0sln0vVlkt+q+h309MuBOUjytz3jyess/7VSbyz3tLkY5tLoWtHPozXSrvfCVzxic8ada/A/ZQsZopCNXb1qKiU3aLuLfkdKnn2VpTk1XE1m4EllFDSKj5RVy4XPlbKipFCKH4sxndOJLkxFaLuxXGcb5g1rZtNSjl4kqbXium19XV3LoaUk0uy8HXth2+sO2e34WnGVzSj4uWalF5+NGafjKon9bW3tvWzaab2uEWJOAAAAAAAAAAAB//0b/AAAAAAAAAAAAACBPwhTWW3blxBpN61nHSVjgtNbVQuuzqzHIKu+1Qe1Ww170xds2/jOlmNSeSZSrqIlOdm2fqOj+Kggscm4dCuLJ4RxW7ZRdNV6lFwyn9WpDPOdKT6VrZKScd6lTi0m0k9RaZsKU8W4VVirqpyFOqp5w+vTlllCrFdD1c3FqW5xnJPJNtUpi7QZdseNBvsG7Y8bBHzTJPG/DgmTJ4Nkvf73fGMjtiOl679Va932jXy35VqbX8m4p5fvOLpaILwUnq3hZ9XPdnRqJ5ftylln+7cc++gw+I5D6az9WK7Xrt4faetpe4psgvLiFm6qr7x76DD4jkPprP1Yrtdu7h9q62l7imyG8V/wCYWbqqnvHvnsPiOQ+ms/Vhtdu7h1q62l7hsivHiFm6qp7x757D4jkPprP1YbXbu4dautpe4bIrx4hZuqqe8e+ew+I5D6az9WG127uHWrraXuGyK8eIWbqqnvHvnsPiOQ+ms/Vhtdu7h1q62l7hsivHiFm6qp7x757D4jkPprP1YbXbu4dautpe4bIrx4hZuqqe8e+ew+I5D6az9WG127uHWrraXuGyK8eIWbqqnvHvnsPiOQ+ms/Vhtdu7h1q62l7hsivHiFm6qp7x757D4jkPprP1YbXbu4dautpe4bIrx4hZuqqe8e+ew+I5D6az9WG127uHWrraXuGyK8eIWbqqnvHvnsPiOQ+ms/Vhtdu7h1q62l7hsivHiFm6qp7x76DD4jkPprP1YbXbu4fautpe4bIbyfReFm6qr7x76DD4jkPprP1Ypteu3h9p62l7iuyC8uIWbqqvvHvoMPiOQ+ms/Viu167eH2nraXuGyG8uIWbqqvvHvoMPiOQ+ms/Vhteu3h9p62l7hshvLiFm6qr7zjO0GXbPiwT/ACbt9rBnzTBe/wCDBs4TybGP/wBYyKPS9d2TcbvtOeXlrU8v55Re4rHRBeLfjXhZ1H9lKpn/AC8bpLpfg8eu9tVjibsK/wCxY+Qr1Y27tL0k1hXHyTlqVStxFaioJ5cGTVzgp/cVnfNsN0nBsYO7TjCrY7omRObirTjiqWLMXxttZwVpo2dUnCGerSjGc5RpZvfKUdZynLpbnvyacY9naE8LQwnhGVhoa7s1W0Oqpzy1qspQhGVXJblGWqowj0JQ3ZppufoaaNwAAAAAAAAAAAAf/9K/wAAAAAAAAAAAAA/kxSnKYhylOQ5clOQ2MGKYpsdjFMXPfGS5xn7ePwh0b10jp3PoNZ5DhXw4lnrqSlOJ3GqRkXqx3Dx++0XrB08drqZ8ZRdy5Xq51l1lDZ7mMbOTZz9/Iy8cQX7CKhC22tRXQlWqZf1GKlcNxzk5ysdlcn5XSp909T4DfCr5oXGD9Qmq/wCVBXnFiD062ddU7xb9AXF6FZOpp905+A5wr+aFxg/UHqr+VBR4gv573brXn/Gqd4r9A3GtysVky/hU+6PgO8K/mhcYP1B6r/lQOcF/em2vrqneH0Dcfodl6qn3R8B3hX80LjB+oPVf8qBzgv70219dU7w+gbj9DsvVU+6PgO8K/mhcYP1B6r/lQOcF/em2vrqneH0Dcfodl6qn3R8B3hX80LjB+oPVf8qBzgv70219dU7w+gbj9DsvVU+6PgO8K/mhcYP1B6r/AJUDnBf3ptr66p3h9A3H6HZeqp90fAd4V/NC4wfqD1X/ACoHOC/vTbX11TvD6BuP0Oy9VT7o+A7wr+aFxg/UHqv+VA5wX96ba+uqd4fQNx+h2XqqfdHwHeFfzQuMH6g9V/yoHOC/vTbX11TvD6BuP0Oy9VT7o+A7wr+aFxg/UHqv+VA5wX96ba+uqd4fQNx+h2XqqfdHwHeFfzQuMH6g9V/yoHOC/vTbX11TvD6BuP0Oy9VT7o+A5wr+aFxg/UHqr+VBVYhv9dFutfXVO8HcFxPpsVk6qn3R8BzhV80LjB+oTVeP/wCUFecWIPTrZ11TvFOb9w+hWTqafdOPgN8KvmhcYP1Car/lQU5xX/6dbOuqd4fQFxehWTqafdHwG+FXzQeMH6hNV/yoHOK//TrZ11TvDm/cPoVk6mn3T2GnCXhmwdIPWPEnjMzeNVSLNnTbRGrkHDdZM3jJrILJ1YqiSqZsdymLnGcZ+3gUliC/pLVlbbW4v/3qneKxuG44y1o2KyKS8vJU+6bMpJJIJJIIJJooIpkSRRSIVNJJJMuCJpJJkwUiaaZC4wUuMYxjGO2BiW3J5ve2ZVJJZLckeQUKgAAAAAAAAAAAf//Tv8AAAAAjH2H1P9Pa66p2hulzLNW59h7x483vczK1lmcYThbPBSTpxTNcuYcrA6GXtwpNKt0sZZR6is281sUyt1cSJFEwJOAB8ewLzzaEk3FYjoyXsCLRVSIi5qWcwUU/elx3SavphpEzrmNQVz9rKxGbnJPv+IYAVreHfX935zn5KcguJui+mw2S3HxgVtTbbrG/8y6pV69Fvqbfca1nGELOR2j7IafXTtODkTOkgVA6CeVMqF8ZMpwMp8q+tdyb6e0ay2Pzx6UG4Nd8c17HD1yS3/x55E6o5NVmuOZpyVm0PaK8nB6ssNTTXdqpIN1ZdOPZPXSybZu4VcnKjkCYjiby00Fze0RSuSHGm/R+xdU3ts4NGTDVFywkYuUj1zNJqs2eCkEm8rXLPAviGRdsnSRFCZ8VQvjoqJKHA2PAGovJ3mtpniw4qtVsze9bO3XsZGRX1Rxq0VUHez+QO0kIbxTTcpV6FGuGicXUa+mbxpOyTryGrEV3KV5IoHUSKcCOvYvNTrdKRUrYNP8ARdoqUYzM4Wh6/tXqD6UQ2fOxxC+UbndVSlwEpQ69KLp47Za+l7/BD57ZU798ACM+B8K5R0DulpoXqp9OjkFwRtKyxSLWlnIuNnwCMeofyadozAv6fQ52Zp5T98Zf1xSy+U/+yRXPfGALW2oNwau3/rOmbl0rfKzs7VmwoZGwUy9U+UbzFfn4tVRVuZVo8bmzgjhm8bqtnTdXBHLN2iq3XTTWSUTKBBHzT66974ZdRPSHTgluEfvk7O5IratU0zd6/wAjoqBp03F7b2BN61gH1mQltSuZOprRNlrj0sgjnDsyaCGFkcrFVTxkCwhCKzK0THrWJlGx04o1SPKMIeRcy8W0eZx3VQYybyMhnT5unn7RVDtW5jff8Qv3gBzNKzCMTIK15lHSM2m1VPFsZeRcRMY7elL3RQfSbSNmHLFuob7RlSNXBi4+3ghvvACvXwY67GwOcPP7efT3hODp9YbG4yO9mI70uVp5IRE3WK2jqfZMVqqzZrLWE1IV/cnT61zCJI8pDNEV2+crHVTLjsYDcPq79TSxdKPj7E8nXvHM+/8AVh7xW6BbSQO12OvrXUJO1ITx4eZNEzFIsLCdry76KbsjmbuyPEnLwhsoGRKoqQDLPDHmHubmbwlp3L+ucc6xRpXbdIRv+m9QT+88SjqxwTp29xE4uN8itXea6U8sEY3SXbkRYyvubK5SOfJHKpggEefTE69KXUQ5o7t4N23iPP8AFTcXH6sXmX2DC37ccFcpkti1zeoXXdwpkNDwdIh28nJQNhmi5cOCPco4bImVT8oXOM4AsLgAAI9+DfM/Y3M2Q31PH0Ay1rpTUO9duaAou3c7Uxcm3ICwaVvEnr253vWsC1oMEgXVhLTBPmTWVVkVTO3jRZJNLOETnyBjXY3UwmLPPWuh9PnihtLqGXKkS76t3C70S30LTHFCoWyHcFa2ClS/Kfacg2qlrutcWWSLIxdJjbg6jFTHQfFauUzoYAj/AORfU466PGmLc7Ds3Q6rOydYxiKr+cS0NzHj9v3OHYNy+Xc5WgqxqlS4vjINcGMddpW3DcmCGMcxcdu4HZumb4S9wS6iOwojQU6wt/FDkxOSOYOvao3O4jFIK7WIqhW/oxQdkMPckXKWk7vPudGJlWcJKvXP9UzbOT9y4AsWADVHlZyXf8XatD3l7rzN2q0nNtq44cMLUjCycbLPGci/aYWj3UG+TcMXCEYrjypFvGIpjGMk7Gxka70h47rYAu+le1WxfOrvqVVSbjVUJRm4yks4unLOLUXvUtz3Nb0zC3ze8rnoxtEqXKUZS1c1LJp5Nrc09zye869XuQPI611Wu3evcSkZet2mDibLDGab8paMu5hZti3k49c0dKV2MbIulGTkhjInclyQ/cuc98DxWLGWOLxu+jetjw4qlhtFKFWGV4UFNwqRUovVnTik3FpuLksnuzPlSvO9a1GNopWLWpTipL8tDPJrNbnFeTyZn0dSczdbbOvcjqKahrTqncUYq4bKa82KxQjH0g5atsvFU4STZuHjCR7suzhMucpKuG2fLIpqJYyfH3w3pQuO/r3nhu1UrRd2JqbadmtMVGUmlnlCSbjLd4yT1XKPjQUo7y+w3/ZLZaHYqkZ0bdH9Sayz/c+h+ddDa3rNbz7DPk85dldYT478j3KjCSlYV6tHUaCexppODkXURKljZBS3NPOTBGSZKkSclTIRchcHLjGM4wPTTx9OprJXLfknCc4ScbPTlHWpycJ6suWWtFSi0pJJSSzXSXxvhvPKy2t5Np5QTWaeTyess1mtz8p0q3c7dd6/l4CAver981Kdti2G9ViJmhRpHtjc5ct2WG0SRraHSbhf3Y7RS8TJim8dUn4DYyMVeWly5LmtNGx3vd98Wa12l5UoTs8daq81HKGVV5vWcVlmt7XnPPXxHZbLONO00bTCpP6qcFnLybspPytL+ZkD4Sb75uHJr9X1e/ncZnn1V4Hf3Zqf456vpaXols/+Ee+ZU1dsUuz646sqdRt1LQRnpiBSibxHNoiwnVgXGI6RcuYxs9kCM0iy6LhBPGVTZUKh5TH3JyiQ3Bfav+xSt0bNabLBVp01CvFQqZ03qybgpS1VrqUVveajrdDR7LHavnlJ1lCdNazWU1lLdue7N5b810+TMyOM4es//9S/wAAA+dLy8VX4mUnp2SYw0JCRz2XmJeUdoMIyKio1sq8kJKRfOjpNmbFi0ROqsqoYpE0yZMbOMYznAH5kfVjp3IKhm4R+Eq1c16Y3zkZzAtmzY+r3PLGPj9baTqk7FPunVUyQMIRfGIbY/GfUzp9ZXKjlRGRWmCEOmUzk5TgfpI6C3VSOSOjtQcgdavTSFA3Xral7RqDlTKeHPmC8V5hYo5s/STOfDWUZN5DCLtDOfHbuUzpnxgxc4wBlwAUK/Br/AO/m62v/AMo5Gf6yXQAu58g9H0DktozbnH3acS2m9ebl17a9dW1g6QSXx5otUO6ilnzTKmP9llYo7grtk5JkizV4ikskciiZDlAqL+BT13YEHxA5pHlF3DnVqnKmOi6M6IofMNIXOD1xCNtjScQQ33KhXUOtWiqLFxnCmEiF75ynnGALVHNLlLU+FfFvc3Jy4xEjZo/VlWI9haXDe6SzWw79YpaNp2r9ZwarWOllW03svZNhioFmvlssmg5kSKKFymU3YDHPCLihJ6Iq0xtbdz6E2Jza38hEW3lVuhom4ckk7V7ny4Yai1o5k/KSFZ476VTdnhabAo+QQTZonknSasxIybx0BvOANQObXBHjB1C9Iz2hOU+s4m/VCTbvVICa8i2Z3nW9jctTNmt31nbctnEhUbZGZyUxFksHbuky5bPUHTNRZsoBTT6Kk1yQ6IvWYv3RZ5BW19buOnJdvOXbjvZXRHTGuSdiLCzFg1vtyrsHblwjXvfNrNIlKlZoxt5cvpdHNUSulko7y7kDsPW4/wB6n6NP+F8M/wDV/uUAXygAAFEjoTf7z31vP/d5if61tbACUHwuz+5pv/8Anxof953YAkX6Fv8Ac/dO7/pg15/2SoAqtdb+OfdHvr+cMerHTI52w07yKeMjbvbw7c6iL6TqsbG6g5ExhIpoUrTL2x6QtURMR5VsZM8sZHTvGDKoGUwBf2i5OOm42OmYd+0lIiXYtJOKk49wk7YSMc/bpumL9k7QMdBy0eNlSqJqENkhyGxnGc4zjIA0N6oHJm28U+FG4NgaqaLTHIK5oV7Q/FursTRCkvaOT2/7HGaj0bHxUbNuWzKbzE3y2tZd608bJjxUa7P27EznAGgrjSMTQYXhH0EtGWmUrVHqfF5tt3m/semrztEuEvxjp8s3oMpW67OV5FFSr7E52ch5OVzMyLGUaybCsxtrUaHRfLsXaAE5tDoVI1bTKxrnWtQrVAoFJhI+t0+lU6Ejq3VavX4puRrGwsBAxDdpGRUYxbplIkigkRMhcdsYAHbQBVR8Ic6BOu+b2p7tzA4mUVlRue2r49ze3JaMx80m5PRFfQw/katYmUSRPLjcrRkzyrWJ1Mnu567SJFvTqILNHUWBtX4Np1JLj1H+nNXp3cU04sPILjxbXuhtuWWQWyrK33EJERE7QdlSeTnWXVlLPTJpu0k3KqmVH87FyDrxUyLEIUDcnqzf2Yob/Nuq/u9choX5Rf6A0v8AEqP+XWIhjX80R/jx/pmbmcZ/7Oehf8m9Z/ubDDaGBf0Juf8Awyy/5EDP3T+arN/w9P8AoRGF1TIFKsbR4zbXq2MMb6tNvosjppjxHzxSozVXmquuTxOxjrRkhMLl8b7Zs4WIXv2KXGNB/KBscbvxBcOIrv8AEviVWUM19aTozpTpP9rhKcln+2K8iIhjGmqNssdso7rTrNfv1XFx9Tb9aJqsYxjv2xjHfPfPbGMd8/e75/457YHUuSXQT8hd6lf9o/iB/jiH791QcuadP04w1/FX/UUSA4s/Oth/vf8AfEmjHUhPjjGMFx2xjGMf8MY7Y+39v72P+OQ6OgHIA//Vv8AAAIVeuxtqYieHsRxOojXYsvs7qD7MgeKTaI0zU22x9ux2iptlI3Pl9fKdrEyib67GqXF+qWZDKKBkvIv5RlkyqfjFzkDULqO3rV/NTpt7n4HVDp4dSCoMpPUsRXNCsUuEVviq9QbtqpOKmNJNmSp5RJKCrkZPVaPjnOSHTwWHVXRybCZz4yBq14HXzSf7T4XbZ4N7AcvGuyuF2xHbitw0yQ7OVR0/tmVm5tCJM0e+LIrPaVtOPsbd7gxcYYN5COb5KT7jGQLhgA/PB6Dm1rfqbrk9Z2Xp/H/bvIN5J37kbGu4HUDvVTSVgW2OXsk5xMSx9sbL1jEnjlFUcIlw1dOHPlD47peJ3OUCYzqKdb+yQXIPV3S6tuodydOC18w0ommSfMbffvbWaK1ZrTZpZiqpW3V8RqPYl3r0lb5ywtzVxvNSs9Gx1JknHnaRRWaszFOBYk4k8UdJcIuPOs+MPHmreieq9WQfmiDZrr4fTEs+duV5OftVnlfJN8zFrtc68cSEi68mmRR04P5NNJLCaRAINvCRN8m1NB9KKpvpDMZTb11Z+J9o2WqdXybGRoWorIe2P4aXIf8AqVovM47j5E2D/awrGpm+9jPcCyuAAAACtL1tOP7Sy9RboE7/AK5HlSv1Y57stVSsiyTKR/K0CUj2W1pBpILEL5ZxH1xjrOWVRJnPiIlknWe39aYARH9bj/ep+jT/AIXwz/1f7lAF8oAABRI6E3+899bz/wB3mJ/rW1sAJQfC7P7mm/8A+fGh/wB5nYAkX6Fn9z907v8Apg15/wBmqANdfCSuDZucXSn3rGV2I86bV46pJcntWFRSyo/cSGrI2WWvkCzTQTM8fuLLqeTnWrRknnPumVyyz4pjJkxgDH/gvXOL4ZPSo1PWrHL+cNqcSnivGW8lcLJ5fOa7TI9i909Oe5/HO5ywcarkoyLy5VznLuShnpu/fBsFA2O3P5LmB1euO2g0/Fl9P9M/Wa/NrdDbHo1OV59yp3uyt2meH1On411hScgLRrvW7XYN5aLp4L4qrmJVx2zkhgBp/wBNrfZ9p+EAddetzz/KsjT6nw1oWvYtyp5RSIouoaraoS2N4sp+6iUc+vl1zJLlL9x7pks5/CUAWWwAAAAVoOhdoJhx157dfah1RgSK1wnzW1nL0+KZpFQiIY93pl12xIwMS3SwVBszgo/ZUe1SSLj+qbpJF+9jAAkk6s39mKG/zbqv7vXIaF+UX+gNL/EaP+XWIhjX80R/jx/pmbY6IkJiM4w6IcwVfUsshjT2siJxiUkwicmLmkxRvKneSJyoETKcpS57YMb7rvjGe2RsXCVa00MBXRUslF1630ZZfFUow/8AAhv1pbv/ALe/oM3d0qkLoszpx15chT3ZpfqLysxP8Gi37e3hV96chn1fTZa47H1Vp6pO30vCwLwrtOQSsFvs0gzijzs/7tRRWUQaNEGnlGrcuVFUkjFVjiwJeWJMWUMW40nRVKxb7JY6MpThTaesqlarKMNeprJScYQjBuME5SjFqXi+ia9uvCF43m4pUv8Ad04ttReeecpZRzefSksnkk20snvENsEhIXOpX/aP4gf44h+/dUHLenT9OMNfxV/1FEgOLPzrYf73/fEmjHUhPgAAA//Wv8AAAIZNLGS5gdXrkZv0+cS+n+mlrJvwi0y4NiuTdee8qd6NKlufmDcq9IN/KTcBZ9e64a6+o7tE+S9lHEqlnt3OXIEzYA/Pt29kvRA8Kmqu1ks5rPFTqOqZcWhYucNYONj+SFhShNg4kZBbyUaxb6+5Q19nbXSaZe7GuOEUS4xhXBsgfoJAChX4Nd/fzdbX/wCUcjP9ZLoAT5eEG9Jtl1UOE0pEUSKYZ5Vcf/PmyuN0ur7kbOZ6QOwQzdtNOpF14iTWI21FRLdFEx1m6CE+winK6xWyC5Tgay+DN9XN/wA6eN77iVyKlpBlzc4dQ7ep3RjbTrtbhtDU1eeNqnX9jSLKWwjOL3Onv/IV24+XKq4JKYZvnSuF5fyKQHreFtcSLbyQ6WLzZ+v457KWriDtavb9lWcYiu4kltYlhLDSNkOWqTchjpo1ZlaGlher5yUraNhHKmc9igDdroPdUmodUTgvQ7q+sTNfklpyHruseUNUWdI5nW1/jIr3LH7J9w+Kgv6LbiYRp5hi4Inlqm993xxFVVo5xnAE1YAACIaxtGnMHqwapXrqruQ1F0qqXsiwXuxsl3Ho3Oc1eUdGY0in6qLheI82zEzozjTIzc/O4bPVDRrrYMAQ5Sr4VImBWE8IZtTLSXhIfR+3tdckjNcwUPxOdy1gdnw1j2UfUeYOyHNycrO1vFbkxXoSwN3a3c2METULk2cYzjIAv6AAAKJHQmzjPhPfW87Zxn+t5iY7lzg2O+Oa+tsZx3x3x3LnHbOPv4z9oASg+F2f3NN//wA+ND/vM7AEi/Qs/ufund/0wa8/7NUAStqpJLpKoLpJrILJnSWRVIVRJVJQuSKJKpnwYiiahDZwYucZxnGe2QB+fH0w7DG9DjwifmNwLvs/Ha94lcloO3WaizlnlmlepFcq9frdi5C6DtEnYJtZq0WQptFXstHXVLkpV5twcv2sp4LgC1X0a6larLxyvPOLacU+i9x9S3b9k5lTcbNqwslN0vTFsYRVT4j6oxPRLRqpIwmvuL1Uq/kUV+6jSQkHxc4wc585Aqy8/tzWbob+E3R3OO3Rk3jiZzmo0Mlsl/FsHztFeizEFTKDuFBiduzcGl7RqrZ9FhbwvGtiKOlmDpo1LkmXpD4Av3VK2Ve+1at3mkWGFt1MuMDEWmp2utyTOZr1lrc+wbykHPQUvHquGMpES8a6ScNnCJzpLIqFOU2S5xnIHYQBjzbe2NdaJ1hf9z7ctcZRtY6uqU5eb3bpgy3m+v1iuR68nLSKyTVFw9dnRatzeSbt0lnLlXJUkU1FTkIYDQTpRaZv1F0Ps3fe5KzO0fdvPLkVtPmvsXXdpOVWxali9sKQ8PpjTMwY8VDvWszqzQNOq0XLs10cGaWFORJjOcZ8bIH99Wb+zFDf5t1X93rkNC/KL/QGl/iNH/LrEQxr+aI/x4/0zNzeM/8AZz0L/k3rP9zYYbQwL+hNz/4ZZf8AIgZ+6fzVZv8Ah6f9CM3CVGQAAhc6lf8AaP4gf44h+/dUHLenT9OMNfxV/wBRRIDiz862H+9/3xJox1IT4AAAP//Xv8ADBHJPbV00pp63X3XGktgciNhMI543o2o9cYh0Jm3W1aOfKV6OkpuwSUXC1SsupVuki/lnKh049BXyvkljYwmYDVbpL6FuHHvgbpWu7ZjLGx5D7CLb978qHd0jIGOuc1yh3pcZzZu83tkWrariJmcx17sbqMjHySyxHMHHsckPlPBMYAkgAFXbwpvptbQ6g/FDRKvG3TNv29yd09uN04pLOp+jDRJDWl2ryrbaEdYZq12Osx0OweSVdr71uphVdZR1GlRIj4qx1UgJWenfyA5PWXhfRFuZvGXemquTunta1ms7ggJaPq1sX2zbK7EJRbq86xmKhapqMsxr0RgSScs1FGjiOfu1WpsHIkRwqBXI6GPEfnTxS6tnO/k1yJ4Q741hpfmtL7aea7tbxxq6yK011fuQaO0q4x2VD1DYs/JV9vmsu1iu3iRHTdo7b+SNnOFCnwBdnAFPXq89E7lpSebFU6wPRoNEQnKmHnvSndmjE5SIrDHZ82VkZhP3KtoTUhB1SaPsevGWYXSvOnbDz9lQ75uopJunOVgJS+P3Ue5l8g9eFoO2+i1y0om5piuqQ1yg9gTOj4HinKHdtsRtgJIbVvV6b27NUk0FlznZJUuddZbGygUjw33RwK/HIPwfvqP9NHlaXnt0MbZBqNZNJaSunE11c2pVIBnMLNZa36fiHGwTVer700Mo/bm82oTDmIs8emizM3wvJN0pAgEgDzwmDa3EzXNfnOqj0kub3F6XeSGKspf9d1KItul7PbU2i7z3JA2DYc/rptDOpNs1VXbxnnOYX8ikoYjhciSihQNvuOPO7mZ1jtZNrrwnhtc8JOJlkkncHYOT172RrnfvLpVg2MdOarur+OWuX1j1nozYxcoeRxKbCsEovGoPE3qVbeFwgZQCZXjjxz1XxV1JXdMafhnsZVYJaVlX8nOy7+zXO73GyyTmdumxti3GYVcTl22JfLI+cSUzLvlVHT564Oc2cF8UhQIq+up0Zal1hOO1Wq8TbIrV/JDScrNWPROy5tm8e1rtZGrFtb9c31COQdShaRdcQ7BVR4yRWfxUhHNnKSThErpi8A0D4S8zuvbwtpEHxk53dLXanMkut4+OqdD5O8ddsarmLHb6rDNUmEKbYDaVsJ4+1zBWSaZMzjxzASq6aWDyTRw+O4eKgSYsZ3qo85Gq1RseoGvSk4/ypjsrrdFtwUvd3Oe81V2Vrl1D6iZa7YSmnONL+ZjzuWi1nkZez2OI8oVWNjWj0qT5qBBb0henxyq6dfW+517bsHCjbtW4ZbmxvbTHHzYFQladfYiJqrrftKterbFbEXmzZfZOa3PUKjnUczD5J7Kmfronfk8ou4WSAkw8Ji0ZyU5f8BzcS+KvHLaG9dnXjaGtrqs9qxajEUyrVmlyE1IyjietFxtVaZFlVnLduggxb4XcKYdFV7YTIc2AN3OivXNq6w6cXGDQG8NJbM0Ztjj9qut6vu9a2IzruUH8vAnkWfnepztUsdngrDAyLVsm5TVTcFVRI4Imsmmrg5CgSsACrF4QB0UXfUn5RdNfcVQrr1+0idzQ3H/li+hUjllGnFt6/lNoGtbiQKdLEYzpbiHsMU3U+6OeUuLTGMYKQ2cAWkmDBhFMGUXFsmkbGRrRswjo5g2RZsGDBmiRu0ZMmjcibdq0at0ypppplKQhC4KXGMYxjAEfHU36Z3Hjqn8aZnjxvpk6i3bV0ey6p2rX27Y911DsFFoq1Y2iv5c+KhJRjtBUzWXiXBitZVgcxMmQckau2wFWHiDrPwh3oEzDrRULxwL1Q+A6Uy+d1CF1PbfdFmpLd/IGkJBzrZg7SfbN1u5k8uzOpCAdwU1WjSJ1jsXBV1nTxcCdyj9Yfkls2PxEUjog9U9ts5VtnDaD2lSNK6Q1kaS8T7ls63FtPblbYMo/K33OXRovOcF+68ln/wAIAzdRuLXKrlteKXuPqSvNb0zX+vrJBX7UPT60dPzF61dAXivuUJyqbC5SbnnIqsOOSOxKLOYTcQsLHwUHSIKTYISOEJd+m1etANh+SrXmYttrTinHlzDo61Tco++AV4euFTw687FM/UtCc3/9VXrua/jBUCxPd1hbK3fGFPc2capxzT0nSxFdjwZKmri1l85z5Lp1/G5TlPGcHT3JUs5Z63RLUZgb0V9u20Po5/2LNcp9TPp35ay+z+15+aLXjdI6jlE2TuLVMDrDWGubRcZz00h7a8kWOYVlAR8ZFxdgj1UF5GWl2BlZNdzKJeTQSTP/AFeDnMYvYuD4jTfdF+Ymw7RuC4LDaLVa/nUK0pR1I04xhCpFpynOOc25rKKT3ZttZJPyYqs1rt9jjY7HSnUqcopNrJRSSkultb9/R/8AntBxqLOsNIayq9nqlgp9ipVEqNQm4ufQZkNmTrsEyiHjiOcx76QaPo5ddkY6KpVO+Uzl8YpTdy4n+BfnlHClgsF4WatZrdZbJRo1IVFH61OnGEnFxlJSi3HNNPoazSeaWXunlY3fRo1oSp1adOMWpZdMUluybTW4zsJcZIACIrnRrHcm2d56WsuudP3SzQOoXyTyelSKVuMbSyhbPFS52lfJLTzJy+yRpE5/rTETSMdYuMGz2N25t0t3DifEWLbqt1yXZaq9ku2alUn+Sip/lYTyp69SLluh0tJZtLPpyhGIrHb7beNnrWWhUnSoPNvxVn4yfi5yWe5fu3kskTI+do5pI+4ZGM91p+U9wSzb3HItvujF8m7beUVwkp9z37eNnHbOM9x0XZq3zihGvqTp6yz1ZrVkv2Nb8mTSEteClk1n5Huf8z6I+5eAB//Qv8AAAAAAAAAAAAAAAAAAMZ7k0zqnkLrG5aY3fQKxtDVmwYdeBuNHuEWhLwM3GrGIqUqzZbHjN3rJ0km4aOkDJO2TtJNw3USXTTUKBSo3B0EOo30h97TvMroNbjkr3THucr3nh/smWYvJyZrSSzt8rT12866iKbu+oRiSqpY/3W5iLnGYULiPcvH5jO8gSQ8R/ChOLFml0tH9SXW2x+mlyrg8kjbVUd10+5t9YSMkn/s530RancA2sVMbPXCCymULLHMWjQnipkknpu6mQJztac+ODO6JWHgNPcyeLO1rDYVmreDrmt9/aru9jlXDw5CN27Gv1q1Scy4cZMfHjJlQydPtnx8FwU3YDbQAAAAAAAAAAAAAAAAAAAAAAAAAAAAAAAAAAH//0b/AAAAAAAAAAAAAAAAAAAAAAxPtfQujN8xKMBvLTGp9zwTfJ8t4Xa+uqfsWJQyp28plGNt8PMM0sqdseN4pMd/wgDp+muIXE3jk5cPePfF/jvoh47Iom7d6a0prXV7l0mtjsqRwvSKzBqrEVx/4sGznBvwgDYgAAAAAAAAAAAAAAAAAAAAAAAAAAAAAAAAAAH//0r/AAAAAAAAAAAAAAAAAAAAAAAAAAAAAAAAAAAAAAAAAAAAAAAAAAAAAAAAAAAAP/9O/wAAAAAAAAAAAAAAAAAAAAAAAAAAAAAAAAAAAAAAAAAAAAAAAAAAAAAAAAAAAD//Uv8AAAAAAAAAAAAAAAAAAAAAAAAAAAAAAAAAAAAAAAAAAAAAAAAAAAAAAAAAAAA//1b/AAAAAAAAAAAAAAAAAAAAAAAAAAAAAAAAAAAAAAAAAAAAAAAAAAAAAAAAAAAAP/9a/wAAAAAAAAAAAAAAAAAAAAAAAAAAAAAAAAAAAAAAAAAAAAAAAAAAAAAAAAAAAD//Xv8AAAAAAAAAAAAAAAAAAAAAAAAAAAAAAAAAAAAAAAAAAAAAAAAAAAAAAAAAAAA//0L/AAAAAAAAAAAAAAAAAAAAAAAAAAAAAAAAAAAAAAAAAAAAAAAAAAAAAAAAAAAAP/9G/wAAAAAAAAAAAAAAAAAAAAAAAAAAAAAAAAAAAAAAAAAAAAAAAAAAAAAAAAAAAD//Sv8AAAAAAAAAAAAAAAAAAAAAAAAAAAAAAAAAAAAAAAAAAAAAAAAAAAAAAAAAAAA//2Q==;" parent="1" vertex="1">
          <mxGeometry x="98" y="431" width="44" height="44" as="geometry" />
        </mxCell>
        <mxCell id="LgC4L-c3pY4Z4chyAlvD-30" style="edgeStyle=orthogonalEdgeStyle;rounded=0;orthogonalLoop=1;jettySize=auto;html=1;entryX=0;entryY=0.5;entryDx=0;entryDy=0;" parent="1" source="LgC4L-c3pY4Z4chyAlvD-27" target="LgC4L-c3pY4Z4chyAlvD-29" edge="1">
          <mxGeometry relative="1" as="geometry" />
        </mxCell>
        <mxCell id="LgC4L-c3pY4Z4chyAlvD-60" style="edgeStyle=orthogonalEdgeStyle;rounded=0;orthogonalLoop=1;jettySize=auto;html=1;entryX=0;entryY=0.5;entryDx=0;entryDy=0;" parent="1" source="LgC4L-c3pY4Z4chyAlvD-27" target="LgC4L-c3pY4Z4chyAlvD-57" edge="1">
          <mxGeometry relative="1" as="geometry" />
        </mxCell>
        <mxCell id="LgC4L-c3pY4Z4chyAlvD-61" value="&lt;font style=&quot;font-size: 11px;&quot; data-font-src=&quot;https://fonts.googleapis.com/css?family=Lexend&quot; face=&quot;Lexend&quot;&gt;news in video format&lt;/font&gt;" style="edgeLabel;html=1;align=center;verticalAlign=middle;resizable=0;points=[];" parent="LgC4L-c3pY4Z4chyAlvD-60" vertex="1" connectable="0">
          <mxGeometry x="0.3714" y="3" relative="1" as="geometry">
            <mxPoint x="50" y="-7" as="offset" />
          </mxGeometry>
        </mxCell>
        <mxCell id="LgC4L-c3pY4Z4chyAlvD-27" value="Select trustworthy news websites like (record.pt, ojogo.pt, sapo.pt, ...)" style="rounded=1;whiteSpace=wrap;html=1;fontFamily=Lexend;fontSource=https%3A%2F%2Ffonts.googleapis.com%2Fcss%3Ffamily%3DLexend;fontSize=13;" parent="1" vertex="1">
          <mxGeometry x="200" y="400" width="160" height="80" as="geometry" />
        </mxCell>
        <mxCell id="LgC4L-c3pY4Z4chyAlvD-33" style="edgeStyle=orthogonalEdgeStyle;rounded=0;orthogonalLoop=1;jettySize=auto;html=1;" parent="1" source="LgC4L-c3pY4Z4chyAlvD-29" target="LgC4L-c3pY4Z4chyAlvD-32" edge="1">
          <mxGeometry relative="1" as="geometry" />
        </mxCell>
        <mxCell id="LgC4L-c3pY4Z4chyAlvD-29" value="Scraping using BeautifulSoup" style="rounded=1;whiteSpace=wrap;html=1;fontFamily=Lexend;fontSource=https%3A%2F%2Ffonts.googleapis.com%2Fcss%3Ffamily%3DLexend;fontSize=13;" parent="1" vertex="1">
          <mxGeometry x="604.93" y="410" width="120" height="60" as="geometry" />
        </mxCell>
        <mxCell id="LgC4L-c3pY4Z4chyAlvD-56" style="edgeStyle=orthogonalEdgeStyle;rounded=0;orthogonalLoop=1;jettySize=auto;html=1;entryX=0;entryY=0.5;entryDx=0;entryDy=0;entryPerimeter=0;" parent="1" source="LgC4L-c3pY4Z4chyAlvD-31" target="LgC4L-c3pY4Z4chyAlvD-17" edge="1">
          <mxGeometry relative="1" as="geometry" />
        </mxCell>
        <mxCell id="LgC4L-c3pY4Z4chyAlvD-31" value="" style="rounded=1;whiteSpace=wrap;html=1;dashed=1;align=center;" parent="1" vertex="1">
          <mxGeometry x="820" y="180" width="140" height="60" as="geometry" />
        </mxCell>
        <mxCell id="LgC4L-c3pY4Z4chyAlvD-54" style="edgeStyle=orthogonalEdgeStyle;rounded=0;orthogonalLoop=1;jettySize=auto;html=1;entryX=0;entryY=0.5;entryDx=0;entryDy=0;entryPerimeter=0;" parent="1" source="LgC4L-c3pY4Z4chyAlvD-32" target="LgC4L-c3pY4Z4chyAlvD-17" edge="1">
          <mxGeometry relative="1" as="geometry" />
        </mxCell>
        <mxCell id="LgC4L-c3pY4Z4chyAlvD-32" value="" style="rounded=1;whiteSpace=wrap;html=1;dashed=1;align=center;" parent="1" vertex="1">
          <mxGeometry x="820" y="410" width="140" height="60" as="geometry" />
        </mxCell>
        <mxCell id="LgC4L-c3pY4Z4chyAlvD-47" value="&lt;font data-font-src=&quot;https://fonts.googleapis.com/css?family=Lexend&quot; face=&quot;Lexend&quot; style=&quot;font-size: 14px;&quot;&gt;game_reports&lt;/font&gt;" style="text;html=1;strokeColor=none;fillColor=none;align=center;verticalAlign=middle;whiteSpace=wrap;rounded=0;" parent="1" vertex="1">
          <mxGeometry x="840" y="184.99" width="70" height="50" as="geometry" />
        </mxCell>
        <mxCell id="LgC4L-c3pY4Z4chyAlvD-48" value="" style="group;aspect=fixed;" parent="1" vertex="1" connectable="0">
          <mxGeometry x="930" y="197.5" width="20" height="25" as="geometry" />
        </mxCell>
        <mxCell id="LgC4L-c3pY4Z4chyAlvD-44" value="" style="html=1;verticalLabelPosition=bottom;align=center;labelBackgroundColor=#ffffff;verticalAlign=top;strokeWidth=2;strokeColor=#0080F0;shadow=0;dashed=0;shape=mxgraph.ios7.icons.document;" parent="LgC4L-c3pY4Z4chyAlvD-48" vertex="1">
          <mxGeometry width="11.66666666666667" height="16.666666666666668" as="geometry" />
        </mxCell>
        <mxCell id="LgC4L-c3pY4Z4chyAlvD-45" value="" style="html=1;verticalLabelPosition=bottom;align=center;labelBackgroundColor=#ffffff;verticalAlign=top;strokeWidth=2;strokeColor=#0080F0;shadow=0;dashed=0;shape=mxgraph.ios7.icons.document;" parent="LgC4L-c3pY4Z4chyAlvD-48" vertex="1">
          <mxGeometry x="4.166666666666667" y="4.166666666666667" width="11.66666666666667" height="16.666666666666668" as="geometry" />
        </mxCell>
        <mxCell id="LgC4L-c3pY4Z4chyAlvD-46" value="" style="html=1;verticalLabelPosition=bottom;align=center;labelBackgroundColor=#ffffff;verticalAlign=top;strokeWidth=2;strokeColor=#0080F0;shadow=0;dashed=0;shape=mxgraph.ios7.icons.document;" parent="LgC4L-c3pY4Z4chyAlvD-48" vertex="1">
          <mxGeometry x="8.333333333333334" y="8.333333333333334" width="11.66666666666667" height="16.666666666666668" as="geometry" />
        </mxCell>
        <mxCell id="LgC4L-c3pY4Z4chyAlvD-49" value="" style="group;aspect=fixed;" parent="1" vertex="1" connectable="0">
          <mxGeometry x="930" y="427.5" width="20" height="25" as="geometry" />
        </mxCell>
        <mxCell id="LgC4L-c3pY4Z4chyAlvD-50" value="" style="html=1;verticalLabelPosition=bottom;align=center;labelBackgroundColor=#ffffff;verticalAlign=top;strokeWidth=2;strokeColor=#0080F0;shadow=0;dashed=0;shape=mxgraph.ios7.icons.document;" parent="LgC4L-c3pY4Z4chyAlvD-49" vertex="1">
          <mxGeometry width="11.66666666666667" height="16.666666666666668" as="geometry" />
        </mxCell>
        <mxCell id="LgC4L-c3pY4Z4chyAlvD-51" value="" style="html=1;verticalLabelPosition=bottom;align=center;labelBackgroundColor=#ffffff;verticalAlign=top;strokeWidth=2;strokeColor=#0080F0;shadow=0;dashed=0;shape=mxgraph.ios7.icons.document;" parent="LgC4L-c3pY4Z4chyAlvD-49" vertex="1">
          <mxGeometry x="4.166666666666667" y="4.166666666666667" width="11.66666666666667" height="16.666666666666668" as="geometry" />
        </mxCell>
        <mxCell id="LgC4L-c3pY4Z4chyAlvD-52" value="" style="html=1;verticalLabelPosition=bottom;align=center;labelBackgroundColor=#ffffff;verticalAlign=top;strokeWidth=2;strokeColor=#0080F0;shadow=0;dashed=0;shape=mxgraph.ios7.icons.document;" parent="LgC4L-c3pY4Z4chyAlvD-49" vertex="1">
          <mxGeometry x="8.333333333333334" y="8.333333333333334" width="11.66666666666667" height="16.666666666666668" as="geometry" />
        </mxCell>
        <mxCell id="LgC4L-c3pY4Z4chyAlvD-53" value="&lt;font data-font-src=&quot;https://fonts.googleapis.com/css?family=Lexend&quot; face=&quot;Lexend&quot; style=&quot;font-size: 14px;&quot;&gt;soccer_news&lt;/font&gt;" style="text;html=1;strokeColor=none;fillColor=none;align=center;verticalAlign=middle;whiteSpace=wrap;rounded=0;" parent="1" vertex="1">
          <mxGeometry x="840" y="415" width="70" height="50" as="geometry" />
        </mxCell>
        <mxCell id="LgC4L-c3pY4Z4chyAlvD-59" style="edgeStyle=orthogonalEdgeStyle;rounded=0;orthogonalLoop=1;jettySize=auto;html=1;entryX=0;entryY=0.5;entryDx=0;entryDy=0;" parent="1" source="LgC4L-c3pY4Z4chyAlvD-57" target="LgC4L-c3pY4Z4chyAlvD-32" edge="1">
          <mxGeometry relative="1" as="geometry" />
        </mxCell>
        <mxCell id="LgC4L-c3pY4Z4chyAlvD-57" value="Speech-To-Text using Whisper" style="rounded=1;whiteSpace=wrap;html=1;fontFamily=Lexend;fontSource=https%3A%2F%2Ffonts.googleapis.com%2Fcss%3Ffamily%3DLexend;fontSize=13;" parent="1" vertex="1">
          <mxGeometry x="604.93" y="530" width="120" height="60" as="geometry" />
        </mxCell>
        <mxCell id="LgC4L-c3pY4Z4chyAlvD-62" value="" style="shape=image;verticalLabelPosition=bottom;labelBackgroundColor=default;verticalAlign=top;aspect=fixed;imageAspect=0;image=data:image/png,iVBORw0KGgoAAAANSUhEUgAADwAAAAhwBAMAAABikNZBAAAAFVBMVEVHcEwAAAAAAAAAAAAAAAAAAAAAAADtBGx6AAAABnRSTlMA33hFH63Y5PmKAAAgAElEQVR42uzdS1MbRxSAUR5inwEza/FcC4awVrDYS2CxHwj3//+ESKlQqThyIUDqefQ55Z3Bi7ld9dXtkWFnBwAAAAAAAAAAAAAAAAAAAAAAAAAAAAAAAAAAAAAAAAAAAAAAAAAAAAAAAAAAAAAAAAAAAAAAAAAAAAAAAAAAAAAAAAAAAAAAAAAAAAAAAAAAAAAAAAAAAAAAAAAAAAAAAAAAAAAAAAAAAAAAAAAAAAAAAAAAAAAAAAAAAAAAAAAAAAAAAAAAAAAAAAAAAAAAAAAAAAAAAAAAAAAAAAAAAAAAAAAAAAAAAAAAAAAAAAAAAAAAAAAAAAAAAAAAAAAyNFjJcwGArbo+XeXMgwGAbbj4Rxmr1G9/PfKkAGAj7udLsZ7j5ddOPTQA+IplTss6Fn/WtfjieF1814OHBwCfcbH+3rvK4rsfPUQA+Ij9r8X3bRte/CtjDxMA1rI7m81iU46L2dQjBYB3HBRFGZtVF8XQgwWAXzvZeH3fGnzo4QLASldFEVuzWINHHjEA/GRQ1LFlZfnNcwaAf43HkUi9M/a4AWBpshspTSceOQDZG0zuI7VzCQYg9/xeRhMkGICc83vTTH6Xbm48fwDyVN1GkyoJBiDH/FbRsFqCAcjN96qM5tXV2CgAyMegFfldepRgALJxehHt8Tg0EABysNem/C48n5oJABmsv0/RNqcSDID1t5EED40GgB67uIx2en40HAB6u/7Oo7Xq+ciAAOil32fRZseWYAB6aH9eRrvV87ExAWD9bWAJVmAAemVwXEYXHP9mVgD0x24RHVEXpgVAb/pbRncUUwMDoBeKLvV3sQQrMAA9cFBEx9SvpgZAxw0OooOeByYHQKddRjcNjQ6A7pp0tb8R52PjA6Cj7qLDXhQYgG6qotNeJkYIQPfsd7y/C5UpAtC5/t5GKDAA6O8n/kdwNTJKADrkuhf9XThSYAC6oyqjL47GxglAV/bf/vQ34lCBAeiGuz71N+JBgQHQ3yYKPDRUANrf36fom1cFBqDt5v3r76LAU4MFoN39jV5SYAD0V4EBII/+KjAALTaLHquHBgyA/iowAOTQXwUGoJVOIhQYAPRXgQHovcvIwotJA9Ame5GJl7FhA9AadxEKDACJfY9QYADQXwUGoPeqyMyfZg5A8/YjO5WpA9B4f29DgQFAf1P8QA4FBkB/myjwyOwBaNBVZOpQgQFoznWZa4DjYWz8AOhvet/MH4BmDHLub9TnTgAAjfR3Fll7/eEMAKC/DRTYIQAgvT8ie8dOAQCpHZQCrMAAJKe/S1MHAYCkCvH9+6PQCgyA/vogFgD9tqu8XgMDkJwPYHkNDEB64yfZVWAAktPf/74GHjgSAGzf4F5zfRALgOQOFPdnfi0DAFs3cQH9f0PnAoAt098VnkcOBgBbda22KwvsZACwTXtau9qZswHAFvt7KbVeAwOQnP7++hJagQHY2gKss14DA5C+vxZgl9AApKe/LqEBSO9CY11CA5CcF8DvenBKANh4f/0IrHfVQ+cEgA3zAngNh84JABtegNXVJTQAFmCX0ADk4ERb13PkrACwOS6gFRiABriAXt/IcQFgQ1xAf8CL8wLAZuyr6kfcODEAbMLgVlRdQgOQnP66hAYgPRfQLqEBsAC7hAYgC5WcuoQGIDkX0FZgABrgAtoKDIAFuDMqZweAL/TXz6B0CQ1Aei6g/VIGABpYgHX002orMAAWYCswAB1agEsZ/cIKfOYEAfCp/s5U1CU0AMldaahLaP5i72662jbaMAAHY7rGfGhNRPCar7A2xbDGEHtdm6D//xNek7RvSROCLY+k0ei6TptFcpqDpjPc3I9kG6D+AmwArQIDoACrwAAowKxUgUf2EQAKcP0GEhgABbgBB3YSAOvoD4SnITQAtbuTnWF8tZcAWKMAS85QVGAAFGAVGAAFuPyN1cEPMhUYAAW4SoeDycs/uz9+tdd//7YKDIACHDx7J5PJ9Pdf9vRwKVOBAVCAA4XvdDpZNcWup9NpZCH89dSWAqB1BXgZqOsG2Ml0OvNuHAC0zPZVNMn1PJ0+lLuInZgy2LtxALCCs3i67/0m17ETzyxaBQbg/QIcR2rtPUw37423Jx/jqMCn9hUAbSjAizxQZG3neQzX44OBAWhBAc5Dxe/S6EOeD1VgABTg9+M39DX1Go/guQoMQNwFOHz8fo/ghp+J9iA0ADEX4Mfzqi6sd9FsBHsQGoBoC/D+RZU98eIiU4EBUIDrjd9vEXylAgOgAP+o8vhd6jcYwSowAG+6biyeLi9r+hHjRgUGIDb9pgrw07i+ixwPVWAAFOAXn2qNpn5TEawCAxBRAZ4vxrVf6O1cBQYgGndNpFJ230QsjWYqMACxFOAmSuFhU1c7aaLuq8AARFGAB/fNXe7WQAUGoJsFeNDsFQ8yFRiA7hXg+aTpS77O4q/A45vLf53apgAK8Mb5G8E89noS6YPQ/Yu/XU5fPy62uPj/79uxAApwKYdR3A/tH9Zcgnff+4q2v+Xru6/Ifv6ew/YtgAK8Zv6eRnLhn7NoZtDfsne9Nwl5+S9Gdi9Ai23VO4mdnkZz5TUn8Btx2T8+Pi75UVSPy//0yA4GaKlaP4dw/hjTpZ/U+qYc+7/4Cnp5/nmzv3WR58c2MUAL1fo5hIvHuC6+V+d7Q8//2/3P83wY4J0x50We56d2MoAC/Hb+HsV29bUm8P5/0jfk372X5yObGUABbkn+vsyAm6jAf+Z5+HV/yHP7GUABbkf+LuW1V+CTvKp7zw8PR7Y0gAL8o2if181rrcC96bTSn3KmD3Y1gAL8SsTj0foS+OBkWvmD14NpRK/0AqDpAvwY8Sr0P9dWgetZ78PpF3sbQAGOPX/rTOD63u/k3u4GUICLx1HcC5FeAotggKgDWP6mm8DFfCCCASJV0wT6yyj+pehfp5fAxWBwZJMDxFiA65lAH4zasBhJJvCyBZ/a5wDRuZK/ryWZwC8RPLLVAeIqwLV8/99tz4JcZ2lG8NexCAboXAHebdOKJJrARXYwtt0BulWAB+3qXndFouZjEQwQiz/k70/6gyzVCH4ej+x5gChcyd9fOCuS9eXSpgeIwLb8/eWyDNJN4MWFbQ/QhQL87+fPtyqBJ+kmcHF8auMDJF+A54/tXJmblBNYCQZIvgC3NX8/fOhlhRIMQEUqD5n99q7N56QT+OnY7gdoTuVvA73X5qKVF0nLlWCAxlQ9gV60+3v8MO0E3lOCAZoqwFV/i295x+olnsDzT84AQJIFuPUNq1cknsAnI6cAoAEz+fuOxG8DF8X03jEAqL/fVfsI1iKFNTpPPYGfJTBA7aq9w9nyB7DqWaQYEnjqJADUq+JHsI4SWaXkE7iQwAD1+ugG8Cp6yQdwMTlyGgBqVGm1W6SzTufpJ/BcAgPU2OyqfARrMUpopWYdSOA9BwKgLpW+CDipRtWBIXRRSGCAmlT6CFZa77DUv+1AAM/3+w4FQNtr3WFqi7XThQ48v3QqAGpQ4SNYz+mt1qwLCVxIYIB2F+D79JZrJ5PAAIRwZQC9XgJ3IoCLsZMBULGhAfR6ujGELm5GzgZAlXoG0OtW4I4k8IEEBmhnAU72jYU7MoQu9iUwQHX6BtDrm0pgADbUM4AuYSaBAdjM0AC6hK4MoYsHCQxQEQPoMvozCQzAJnoG0KX82Z0EdkgAqjD0bbuc20ICAxBdAX4epb5y3RlCp303H6Ahf1T0PftL+kvXnSH0XAIDBDdUgEvrzhDaFBogtIpeTfPciY/S6dAQWgIDBLZlAK0CS2CA+s0MoFXg1Rw5LQDh7CjAG7nuUADPJTBAONVMoL90pAB/6GUdCuBiIIEBgqlkhDqXv4km8KkTAxDGjgG0/F2HBAaIuQB3JX+L7nkaOTQA0QbwbjfWrj8sJDAApewowPJXAgPUr4oMmXekAF8VHfXk3ABsXOJmBtBlXRSddeHkAGxoxwBa/pb4XyyBATY0VIDlr9d5A9Suigl0NwrwdtFtT6dOD8AGqngd60En8veq4wFc7EtggA1U8Fl6nfgUpO1h0XkHjg9AaVVMoLvwJpTbH+VvMT92gABKB4kCXMqZ+F0ajJwggJJuFeAyzjPp++JBAgOUU8EEugsFWP7+Y08CA5SyrQCXGRvI307NOwCqiJLwr01JvxL15e+rgYcEBigTJcEn0B14f6T+ROy+TmDHCKBElnhpqPzd1KFzBLC2awW4+TVrvXsHCWBddwrwujyA9fNPXRIYYE3BnyZKvwBvyV+3gQE2TxMFeE078tdtYIDNBZ9Ap75go5mwdRsYYHPBJ9DyVwID8K7gL0LaTXu9xvL37dvAY+cJYGV3CvBa5K8HsQCCyBTgdeYFt1LWEBogSKIowOs4l7G/tbh0pABWs6UAr6EnYt9LYEcKYDVnCvDqboYS9j3HzhTAKrYV4DUWS/6u4MipAlhB4An08yjhterJX0NogFACT6CT/lx2+bua3LECeF+mAK8qF62G0AChbGcKsPw1hAao3ZbqI38NoQHqF/YWcMIT6G2p6icxgIBmJtCr5e9MqBpCA4TTyxTglfJ3IlPX8+BwAfzOjgIsfw2hAer3UQFexZk8NYQGCNrsFOBVfM7kqQoMEFLQCfQ81QJ8Jn/LGEhggDddBZ1AJ7pIY/lbzp4DBvCWoQn0+/k7EKWG0ABh9RRg+Vuhp5EzBlB9AN8nuUR98+dNEtgZA/iloQL8Xv5eS9FNnDpkAFUH8F/yFxUYYCVBXwV8L3/52YVjBvCzkLeAk5xA3wpQQ2iAClwpwL91M5OfhtAAFQh5C1j+ogIDrCbkLeAEJ9DyVwUGqEbIN4K+T251+vJXBQaoxpUC/BsnkjOQhQQG+FHAivdV/mIIDbCafsBvscl9DsOO2DSEBog/Y5KbQPfcAFaBAapy5xEs+asCA9Rv5vur/FWBAWoX8BbwYpTW0gwlpgoMUJmAt4Dv01oZD0CHdyiBAf4R7hZwYo9gyd8q7DtxAH/L3OBLKX/nsX99KjDAdwFvAX9KaV160UdtNp8X2cH4lbPlvzcPy1+ui+zlT1VggIhthXsEK6n8zaLO3qXFt8wd/fDD1MsvL7/T//Znt/Ol7H/s3UtDG8cSBlAiiawtG7QWEFgDjlmLh7IG29LaIkb//yeEOPdeJzd2YkNPV/XMOWs2U/TMp6qehxYYIKdyW8C3ParKOG/+Th/9LXq/7Pc/u3z885kWGCCfchfneX+KMrlIm76zn78pez8fymMIX0ynHkUCyBY1JtDN5O9mOp1PnnRAi8VBogz2Ng6AnZJbwLfyt+v0fc4x7ezcpclgLTDAzs6lCfTfJMzf/WmR3zf7Uy0wQBLFtoD7M4F+na75vbtblGru9/dnWmCAXgXwbV8qki1/N6uytw2fre60wADhyj1uM+9L/s6Sxe+74oc4Wq21wADBfjCB/qtJrvxdve3kKMMjWAsMDN5ZqSvqi55MBM4GEL+/2w2OYC0wMHQm0Hnzd3Xc6bHuvl1rgQHCAmdmAv3nchzkid+H484Pd3msBQYI8oMJ9F8SKU/8Htb4tNT48EALDBBi1wT6T67WWfL3Za0vO44Po24681EkYNhKbXlu5G/JbDqsGE7nJ1pggPpsAX82yZK/50dVj3t8qAUGqK3YV+f7cC1d5Yjf+9fVj/x1TBPsu8DAgBXbApa/pRxF/JYZn2uBAao6sJ2XLX+DDj+kCdYCA8O1NoEuPQtobfz8X9dvtMAA7QVw+/k7G+z4+XMTvNYCA1QyMoFOlL8P18FVuFlqgQEq5U6h6+hH+fv8LHq4Ca/D5HKjBQaoodSNN633MQkeAN68v0lQiMnN1BuhAdoJ4MYn0Iu7+Pyd7i1yFKN2AnsdFjBMaxPox67vJEH+LvKUY1p1Hm8XGBikkTFiuTHAc0IoUf4+OptpgQG6VegerM2i5SKcx+fvXrKSnFWdyWuBgQEq1Ps1fSdrgvzNV7/xVAsM0EAAt9zCjOTvF8typwUG6FCZe7Bavo1mHL4BvP8u5w+TOy0wQPbur+HrZ4L8nWddHBU/TuFUBIam0IsH290Clr//5NgMGqAjF0O/fF5E5+/DPHN5js2gATLnT7tbwOE3QN/PcxfoUAsM0IVJmXuw7uVvT/N3Z3KsBQbowLjMxfNdo4d/PpO//+pYCwyQNYBbfQ3WWP5+i7UWGKC45ZAn0OM7+fstRm+0wACllbkHa6/JY5e/36rSPvCt8xEYjkL3YM2bPPjL6OePfm5nnVTpgV85IYHhGPIW8HImf2v/UjODBigawA/y9wneN1Wu6xrlchsWMBxlprAtbgFfRufvu8bGBlUSWAsMDMYvQ715ZhLe/y5aK9nNVAsMUEyRm6Ab3AK+mcbG72avvZrt3My0wACp+sD2toAXwfm7bTF/q4zt505KYCABXOSi+aK5445+AHja6HLpPoFfOimBYShzE/RtazmyjM7fRaPrpUICnzorgUEocg/WRv4OJH93Knw9+d5ZCQjgnm4Bh+dvq1+u+KN6Uy0wQJZ+5kVbx7wbnb97TS+Zzj8g9dFpCQzBALeAr9fB+fu+8TXzZmYGDfBcRW6CbmsL+PokOH/fNb9quk7guRMT6L/R4LaAJ8H524sP/pxpgQGe6ccS18sPLR3xYXD+7p/2YNlc3WmBARIEcEuXS/lbZnLSbQJ/cGYCPTc6LDKPlb/fvgF82pelYwYN8GTnZeK3pQAeRefvUW9Wz6EZNMCTjA/fzgbXroyib8A66tEKOtECA3y/yepggBt24fl72Kc11G01naNAT+N3NcRx4Sj4BRx9a+u6nOdv5k5ToIfKxm87zUp0/3t/2rOFdOLHCsB32F0N9FJ5LH8LG3eZwFpgoF8Wo1XxOeyHRvJ3Jn9L63II/cLZCvTIZLTfwTZoG8EyDs7ffnZ0HbbAL52vQH/id3HWyZdcF03k7zQ4f496uaa6HELPnbJATzzGbzdNYAsBfB2dvz/1dFV1OIR2GxbQk/b3pqP43f6q//1373u7rq46q9mDsxboRfxedhZBHxs4/LPg/N3v8dI6MIMG+PpFctlV+9vEPViTy+AbsPYXPV5ci7UZNMDX2t9ll+mSPoAnl8H9b89nqbtaYICvtL/dft8nfXcXnb+b256vsM5a4FtnL9Cy66tu4yX9PVg3wfPnh97HyO7aDBrgb153/QLkvew/QORv9wmsBQb4P+PzzgPmVP7KkPVQxysAX2t/L7YDD+BJdP6uBrHQumqBPQoMNNr+HtW4w2iROn/fROfvYhhrbWV+APA5fy9qJEzqIaH8rWZtBg3wH+cHVSIm9T1Yy+D8zf+IVjEdDaEfFs5koLn8rbT5eZq4Blfr4Pz9aUALbm0GDfBocljr5qO5/P1q/h4NacmNuqn2Rycz0Fb+Hld7ynUhf+XvJ7tm0ADLavmb+V1Fwfm7fTW0Zbc2gwaGbrdi9OQN4FVw/r48Hdy68ygwIH/rSfuh+ej8fTW4/N2ZdLPwFk5poBGrqqPXufz98gbw6QCX3vXaDBoYcv7W/dJA0vZkFJ2/rwe5+JZm0MBgLSp3fkm3gKtO4b9kmPnb0RDaaQ00YLS/FcCPZZjJ3x61wLdObCB//lYPnpz3YJ0E5+9wX2DcSQtsBg2kd1W/8ZtnDIGD4Px9tRjuGlyaQQMDFPHp+YQBHJ6/LwecvzuTuw4q+sLJDaS+8kXkb8bhYHT+3i8GvQ4XazNoYGD5exERNgmvjNfB+TudD3wldjCEHtBXHYH2jC9iur10hXgtf6N10ALfOsMB+Zv8wih/43XwSug9VQWy5u/ZVgB/KkRw/mb+OnLLLbAZNCB/c+dN1CDgf95ajDud7ALfqiogfxPfgyV/e9sCm0ED8jdxAIfnr6dlOmuBzaCBhCZvAl85kaoSZ9H5O7caO2uBbxUVSJe/x4GRk+qqeD6Tv/1tgc2ggQFc6hp9RaD87XULbLwPZHO13uqAP00CgvPXjLTb34UPp4oKyN/Pd8bkuSiOo98A7Qbov/4eWptBA722G5q/202e6/0qOn8XVmO3LfC9mgLyN9++nPztfwucaNwCEJ2/21e9bbe+95eI/O3+fzJXUyCN6PxNcxP0MnoS8LPF2H0L/EpNgSyix65pAjg6f6fyt0YL7GVYgPxNdkXcDX4AaSN/67TAczUFUjjYxgdwikIsgvvfjedjKrXACg2kcLUVwH/k7110/i6sxq+0wIVHEx5EAlLk7yxBAKd4Cik4f7fyt9r/xoNIgPzNMxKcRD+ANJW/X3dTeHfgo5IC0UYp8jfBTdCTZXAl3AD9jy7LVvtXFQWiY+dkK4A/FSJ6J3x6ajX+k93C9TZuAIIlyd/47/+Moisgf//FWr2BPnmdJH+30YW4Dv4lsvFupsotsE1gQP5mCOBxdP6+sxgrt8AeRAJCYydN/gY/Bhyev74AXL8FPlVRIC52LtIEcPBjwNE74S8txvot8AcFBcLkyd/gi+Fh8NHvzy3G+i2wGTQQ5nwrgOXvgFtg9QSi8ncmgFPk7738/Va/FC28ugMxxpnyN/JaOB7wsbdm2Z+xCzDg/D3IlL+B08BR9A1Yhxbjtys6g7YJDIQ42wrgT/l7IH8bsmv2ALTuzUwAp/ghogsLbIE/qCdQ3ThZ/obFUPQPkXtNWGAL7NcPMLy+L0srEp6/p9bid/507NH714AhyjaAjnoxvvxtzqToDNr8AahsmS1/gwI4fBD/3lr8bkVn0C/UE6jbRKTL3+2HiDrcTGMPevNuYTF+v5ItsE1goG7+XqbL35AP04Tn73v5+6T5jU1goFWX+RrgbUAUTYLzdyt/n2ZUMoBv1ROo2PglzN+AAA6fA+zL3yf+50rOoF+oJ1DPdCuAf8/f4N8h+zeW4hOVvA1rXzmBai4z5u+megBH5+/USny6gi3wg2oCtaQcQNd/Cim6DPV/cfTI5KTgf+JWPYFK1671VgA/5m9wGTYeAH6OXQEMtJe/b7YCeGfnWv62rWALbAYN1LHcCuAEY4A9KzFNC/ywUE5gCMmTIpHCxwAeQHq2glv4c9UEBtwAV30KSf72QMEZtO0AoIKrtQDemRxH5++plfhsBd+G5XXQQIXoSZu/NQM4egqwkb+5WmCbwED/oydFAI+ib4A+shBL+NEmMNCOvAPoik2I/O2JgjNom8BAxxIPoOs9hTQ6kb89Ue4/aRMY6FjiAfT21/au2k/zyjrM1wLbBOY39u5lMY1ci8JwmyoybnxhTOyYMcTE47KNPcYJME7hRu//CMenO92dc2LMbW9pb+n/8gJByFq1VCoKULYkgH9LfQD6dMQ8FMNNYABOLAIBnDp/X8hfOYJvZOCHyQBo6gYCuJP4U67IX5tfJzeBAWhamg7gKIewUh+AZqdTuALLHY1rGE0AhRbgKNGUPH85AC1Mbg+arQkAevlruwDHWAA7z+RvZuT2oLkJDECN8fyNEMD1OPUNYGahtMrfY3AAyivAofQArsf9xA8gNUxDcWJ70NwEBlBqAdYPYPI3R3J70Hw9AHTa32MoPYAfEufvigVeQ+XnChBAmbp96/mr/Ya+KvEItDNmoYpbV8/BASiP+Q1o7TMw1S35m6eOkxkIoFD3ofQATpy/a/JX7dKKm8AAKMCGA7hK/OnIXwfXViPGEkCJBVg3gFNvQC+Yg3rE9qC5CQxA3MOw9AAek7/5Ejtex++kABDnIX9VAzjxCWjyV5fYDRaGEoCwTig9gNMW4DVTUNeYAAZgU+2iAGv+Fn7aAryeMwd1iX2/A8YSQIEFWPMIatICvP7EFNQmtQf9naEEIGpYegCnLcC85U6f1BUWp7AAlFiAFbf/khbgrw1TUJ3YJRZDCaDAAqzYgJfkb+6W5q8CARToOpTegFPuQJ+OmIExSG1yfGcoAYjxsgGt2IAT7kBrv+EJP3SFvrDfGUoAYoah9AacsAC3N0zAOKS+ZB7ZBlBgAVZrwOmGoEf+RnPLKSwAFGBrDXhM/y3AidCXNmMoARRXgLUacJ1qB7o9Y/7FU3MTGAAF2NhvIHSS5W/D/IuoTwADoADbCuAx+VuEJ05hAaAAmwrgVDvQL+RvXEI3gVtGEkBpBVgrgKtEB6BHbmZJPZlM//zn+5JB6kprxroBoLACrBXAT2ny180bkCaTx/aH+WTiebY/EcAAKMCWAvg2yYcZOJkiN/c//6/7qwfHESy0B83LqwCUVoCVArhO8VHaUx8TpLr59Vvw++yy0FfNKSwApRVgpQBOMghfndTfN3cHrkZeJ7zMTeC2YekAUFYBVgrgBLeAWy/5u+n8ttcE5iYwACPuAwGc5Cpk5WN+3GwsjF63oR8JYAAUYDu5Ff9zrAfO8/eVzwQWugnMKSwAR3J2B1gpgGvy94D8dfoa43rJKSwAFGArARz9MmTlI38/bzmwdOoygZ8IYAAUYCsB/CH2p5j5yN+tXdFlAsvcBPZZ/wFQgA/3kkMAX7qYHLvs1XpM4LqkiygAFGAx8wyuQ3w8gFRd7/JZHL7NWOgmMO9xBuCrAK9M/noj+ftGTC12uxX6zd+0vy3pOTIAFOC/7putBv3iA3jdZJS/rx9n7m7edzmFBaC4Anw1+K34AF77eJHB7ieVHCawyB40p7AA+CnA/SuBrNMI4C75+0v+LnOr9D+T2YMesIQAcFKA1zf/XagtNuCYh6B91MXuXh3xYkoAA4DZAtz+qH4WV72TeMPwzUVbbPbco/WWwDJPAnMMGoCLAtzOf2y9WmzAT9FG4dxH/j7v+8EufE39imPQAIopwO387+Sx2ICXsYYh1/wNYd64mvxLAhhAQjFPHvX+TR6LDbgfaxh8pNTzUVdYLojcBOYYNIADRdyB7k3/XZ1DuQHcc3GntD7sDdHtrLyrzwGrCIBDdGLmr2DY+Q1gL/l74Gisp8XNfgIYgPEC/L/BU2wDbvPOX2dHoUVuAr+wjAAwXYB7I9Gw8xrA7Xn28+Ji4mf+DwlgAKmKzjBR/pbagBn5uLMAACAASURBVFsfD41WR80LR8eCRW4CcwwagOEC3C5GwmHnM4BbH+8Mqo68LrtqyvoDGLGSALBagNtf37xXZgMuof/+mcBu/gSWBDCANCttsvwtswFf+FipBS7L3CSwyCXojKUEwL7uk+VvkQ3YSf5+LunRHJGbwJzCArCvSDvQK42wcxjATn4x6VLmS3eSwFWfAAaQbQF+eyk22LCUT6S1lz4SSfVrt0fiJrC/NyEDyGHtOXQh7pcWwE7ytzMMZSUwp7AAJNBNmL/l3QN20n8/yn1iHxuzYwIYQHzDhPlb3D1gHz/WIJm/Tq45RC5D56wmAPaSMn9Luwe8GriYEuPyWr/IKaw/WE0ARL/0Pzh2yroHvBq5mBJfhPcAXJz7JoABRBfhCNZcr35rNMo++Vvgk88SrZ/nkAAYK8DfGr2wUwjgWi2ABy5mxBeFz+8ggU94DglAbgW4fS9/LTZgtUsSH7/LOFW5/rCfwBIBHAhgAJYK8Lv5a7EBVzoNuHWSv8860+DMejbVPIcEwOF1/7vV5/2Ft5x7wD7ezTftaW2EmE9gia/9nBUFwM60d6AvprqrnkIA69wDvnCRv3VPbSb0zo2PwBPHoAHEpL0D3W7J32LuAW+7EDGSv3eac8F4PfxAAAPIqAC3W38aqJAGvPaRv4/9pFdj/i9GeQ4JwK6UX/wTzptt/4My7gG3Pn6jUDd/Q+iZTmCJU1gtawqAXVfcpAewimnATvJ3qv9IWmP58/McEoCIlsmX2xLuAbczF5PhQT1/Q3veZP7XMGJRAWCgAO/U+ww2YPEtaB/9N0L+bn0qPC2JU1jfWVUA7GSYPH9LuAe8aFxMhij5azqBuwQwgFhq1TV3t4dOLP4SVon5W38JkRjeDyCAAcSiugO944//GmzAJyXm7+dY+RvWE7ODIPDpViwrAFIX4F1fAdvPPIBtn/v9ZypchnjWn6wOg8QfBOsKgNQF+GzH/0TmDXjt4wBWJ8R0YTWBPxDAAOK4VVxjT3cswJk3YCdvQOoMowZwWBndFngigAFEobkDvesGdOYNmPzd4KvNgZA4Bj1gZQGwleIO9B7Bk3UDPvMxE6Lnr9kE5hg0AO8FeI/gybkB77wPn9ZlCCTwX38TQwIYQASV3uK6T/Bk3ICd5O91SGJgcSwEbgL/ztICYBu9HejdbwBn3YD3Gobi8jesLSawQACvWVoAbNtt09uB3uvOZ7YNuL1xMQ86IZDAoqPB2gJgi67awvqyV/PLtQH3neTvc7IAtvijUQK/hcUbgQFE2GzbYK/8zbYB+8jfh4T5a/EgVkUAA9C/1O8rLartno/eZNqAT13Mgipp/r4mcGNtRASOQc9YXQC8687GBnSmDbj1cQC6HqfN39dxsjYktxyDBqBNqwDvuQGdaQM+bTzMgXrcD6kT2NqbkXgOCYD62mtkAzrPBmz1p47N5a+9BBY4Bn3O8gLgPVo70C97R0+GDbg3cDEHLOSvuQQWOIXFg8AAVHun1AZ0jg24/eRiCjyYyF9rv1dSHT8qHIMG8B6tM9AHnKnJrgH3yN89f7fFVAIPCWAAqpR2oC8OSMPsGvDAxQyozeSvsQQ+/hh027DAANBLPcHsya0BL1xMgGocDLH01kaeQwLgsf4c9FBnZg2Y/D2kMxr62bAxAQxAk84OdHtQFubVgH2cgK2+hEACbxgbAhhAIQU4rwa8nrmYAI8hkMAbCDwIPGOJAbCJzouQDjmBlVkDdpK/98tgL4GbfK5Oz1hiAGyicwPwwCTMqAGTv8fsn4yMDA/PIQHQI/BbA2Ib0Fk1YPL3GF+NJPDxAcxPYQHYpGupAGfUgO29W+8ttdH8NTN+dwQwADUqO9CrQ/832TRgJ/l7Hcyamxih409hsQUNYJOlpQKcTQN2kr8Lu/kb1iYSWCCABywyAN6kcgv48uD/TiYNeO0jf7shkMDaAcxzSAA20NiBXh3+38mjAa8nLr77x2UggbddpCwJYABKhgoL5xEpmEUD7t24+Oq7xvP3NYGnOfyBEMAA3qSxA31EAc6iAbfkr5RFTQADyNXYVgHOoQG35y6++XoYHEj/Noth0gtSABkb2irAGTTg9qxxkb/XwYV56tE8/peyeRAYwFs0dqCPykD/DdhJ/n70kb9hnTqBOwQwABV3xgqw/wbcjlx88V7y93VAP6UdqS4BDEDF0FgB9t+Afbz75j74kfiHLGjAAFQo7EAfeeLEfQN2UYDv+44COKyapIO1DAavCgG492StALtvwGZeZJtP/oZwmnRQ+SUOABqG1gqw+wb84mHfow3OrFLuKxDAABTU5gqw+wb8h4P8vfWWv6FN+Sgtv8QBQEHHXAGmAZO/b7pKN2BdAhiAxWt78fyjAZO/xhL4+ACes9QA+D+1vQJMA9bmNH8TJjAPAgOQJ74DLfDEJg1Y101wa5Tqz6Sf/roUQG4+2CvANGBdn/t+AzjZUeglDRiANPFbwALpRwPWVDnO33QJvKQBA5DeWjNYgGnAqvn7MbiWaHBpwACkfTBYgGnA5O87ZwzSHMQ6OoCdvKADQDxDgwWYBkz+mkvgcTB4WQjANYsFmAaspr4L/rXfEoxclwAGIKtjsQDTgNXy93EZckjgEQEMwL2hxQJMAyZ/33cxiT52JwQwAFl9iwWYBqwkl/wNYTH114BnLDcAftIxWYBpwDqm2eTvawduYu8eHH2tesZ6A0B0X03ltwZowCr5uwgZOY+dwH0rfx0A8jD8D3vn09A2DsRRNzGcG2hyDhRyDgF6NiXpOaSQu8PG3/8jbNvdbpeWP441oxlF732AIow6zz9pZLkMwCRgFe72yb9NfR/ZwAgYAHwVFZ0KQwKWp1w0zZ4ZGAEDQLoc+AzAJGAN/472TMDNNm4j1hoBA4AgE58BmASMf1s1YkU18A0CBgBPq2pK2iEBi6917KF/Ixv4HQIGADmEDyHJaY8ELMztutlLhikJmOuQAOAXsm05gi/4JGBh/05G+yng5muVjoD5FBYA/GLiNACTgKX9qybAB2Oz1/EMzMegAUCOUnRd8khwZCRgxy9a/2dVXI+yycAjBAwAUvS8BmASsCgzvfz77V83N/AZAgaA5BDdAhbtMCEBC3Kq6l97A29iGRgBA4AUflegScBJ+PfnO9eFcQTeRBIbAgYAKURXoGvR4kIC9vlXfurf5b8/on+Sh4ERMABIsXAbgEnAcv5Va8Da/nrIt+YGjvIsgx/lPUUHAITqiVoAJgH79++T6+V71gY+jfEw+RQWAAghugUsXFpIwA5fsn47gFQ9Ef0oAwMjYACQCkeS9e+97NhIwDKcRvLvt59kbeCx/tNEwAAghOQWsPAKNAlYyL+jWP799rPqvW/EChbwI1UHAMRXJ4+Ex0YClkDvgO62+vOnzYwj8FDdwCRgAJChlKzOU+HBkYAFuFXz7/Dq2Te60Z4b+BABA4AIfc+nQEjAAv69U8u/V8/PqIlxBj6uSMAAkAI3fluwSMCu/VtfvfROZ3wYSftmpOB3VvaAAeAHnxyvQJOAw2Wh598PL0t/st8GHpGAAUAAyS1g+Rd7EnDon1ft+8z1awu9B8bbwPWx6lMNHt6UwgMAslvA8rojAQf692Zk4d+imFkb+MqzgOWXigAgRQS3gGv5dT8ScOBfV82DbzQ6lQtbATcDTQMjYACQQHALWME2JOAg5mr+HbypkDtrAytKboSAAcBDLVHd2CIBB/l3YJgvS2sDKx5GIgEDgACCW8AarZ0kYJf+bbfD+mDdiKVm4DUCBoBwDgUTh8N8nnMCFr3l6rdTPq0GUK2tDTz1+r8GAQOA5BawytEKEnB3/14b+7coFtYG/oCAAcAvvgMwCdijf1etB2Ft4O0lAgYArwhuAY81xkcCduffnW68MjewzmEkBAwADiqJ7go0Cbgresdwd7tryPo4sI6BD12+rQJAWkx8r0CTgDvyee3Dv0X5YG3gyqOA7yk9AOB8BZoE7M2/m12fqLmBVwoGDhYw1yEBQM/5CjQJ2Jl/OzxQyds+vBgYAQOAfSFRXoEmAXehnKjJ7NTX64CVgd8hYAAIZeI8AJOAu/j33JV/i2JmbWDxHdceAgYAa7/9anVRGiAJeHe8+bcoLowFvL339h8HAQNkj9wWsNb95yTgnfmsdwCpcyY/Md4HHi4RMAD44p1UgdNagSYB7+5ftfXeo+4Ps39hbOBNhYABYD8FrLUCTQL249+gT1qYG/ihcjUvETBA9oj1YGmtQJOAd6Sn5t86bB+1b70PLNsKjYABwFhv/7EkAbtIwHoHkOqvgQLrD6wNjIABwA9iPVh1pTVEEvBO/j0fefVvUVxaG/gMAQOAG8S2gD+oDZEEvIt/9ZqNw/37zcDWh5HO/MxLBAyQO2LrlWoBmAS8C3qNTkORv7D1YaRazsAIGABs7fZfYdMbIgm4Pbd6/p17T+jtGIy9zEsEDJA5YlvAipYhAbdGb49VyL8ODHwktVaDgAEgiAP3PdAkYA/+redig1S8JqLdr/I4RcAA4ICF+x5oEnBr9E751JIfUu7dGXdiCZ1YR8AAEIRUGtFMeSTglv69SMK/Du4mvBT5NdYIGABClgOlSuFScZAkYGP/Sh8xK3t7YeAvgYPYUH8AskaqB2tbkYCtE7Cef4eV13lnauDD0EFMKUAAOSO1BazqGBJwGy71DiApiOLB2sACv9MXBAwAAUhtAd9rDpIEvHf+LYpzYwE/hv9WCBgAPAi40hwkCfhtZmr+1brm2drAR8G/F0vQABCAVA+W6hYwCbjFH1LPvx+1xrxO3cAkYAAIQKoXRlcxJOC36J+n59/CvBU69DgwCRgAArhOYQuYBPwW8xT9a38cOPSXIwEDQABCW8Bb3VGSgF+nPHcbEl9nYRyBt2EGJgEDgL2AlQ1DAn7dv3oeC29UsnpzaGngryRgALBBqnVHdwWaBPyGf9eJ+teDgUPumCABA0B3pHqwlAsJCfg1EvbvNwNfGxv4IcDAJGAA6M5NCoeQSMBG/q3HEaZgaX0z0kP3yUsCBoDufJKpYUvlYZKAX2au59+PUebgpbWB7zsbmAQMAN0R6sHSriMk4Jf9q/dN5Y+RJuHlwFbA284GJgEDQPflP5keLO0VaBLwy+j59yjaNLxN1cAkYADojFAPlvqHnkjAL71BfU71ANJTA49sDVwvScAAEBmhHqx77XGSgF/yr5q5jqqoE9HYwB0PI5GAAaAzQj1YY+1xkoCfR8+/m3nUiVheGBt42On3JQEDQGdkerC26uMkAT9LT81a22XkmVheNAkamAQMAJ2rnkwB36gPlAT8HP2Jmn/vo8/FvnEjVj0kAQNAzKKXxilgEvDzf72TPfKvfSt087EiAQNANISaoMfqAyUBP5d/1RaglyazsW/8QY56dwOTgAGgK19k8pL+QEnAf6K2/tw8GE1H68NIu395hAQMALY1XH8LmAT8J7O9829RnFsbeNd5QgIGgI6UMit3Y/2RkoAj+reym5HWBt7sOFFIwABgKuAIK9Ak4N/pqzlI/bOir3LSJGVgEjAAdESmByvCCjQJ+Hf/7tMBpCdT0tzAJGAAiIFMD9aSBBw7Aetpantm/VI4MTbwKQkYAJIR8DjCSEnAT/Kvmn/rD/bLMikZmAQMAB1Zp7IFTAJ+gt5XG1eV/azsGQu43sHAoQl4W1GFADJFpF49pjDSfUrA5UytVXjlIpCdWhu4/VM4TOE/DwA4RKYJ+j0JOG6hvVbzb8wbgD0buP1z+IKAAaATByLVKkrRJgFH8O9g6mVmWht4eNVyoGsEDACdOBQpVlGGSgL+id7nGgeXfqbmnbWBW76LNAgYADoh0gRdRxkqCfinf+9y8G9xa30c+LhCwACgiEgTdJwSQgL+h7maf+tLV3Pz1vgwUv21lYERMADYxMp4PVgk4H8o9fx77GxyLkbWBkbAAKCGTBP0lAQcrdCWN3r+nXqbndfWBm7TiIWAAaATIk3QcbaAScA/nKSWCv359/tva7wNPJgjYABQQqQJ+q84YyUBF5qrso+VxxWaO/8GRsAA0AmRJuj3JOBY7ynztZppxi4n6NzcwJX2vETAAJkikqeqNMa6BwlYT0eDM6cz1NzA929NbwQMAGYCjrQFTAJWPADcnLmdouYGfuswEgIGgC70JQQcaQuYBKx4AGnleJLOzQ8jVQgYAGwF8uIaHQk4yotKea3mmJXrWbpYG2fgewQMAD4FXJGAYxTabP1bFNfGBt5eIWAAkOYiJQHnnYDLmZpfNt6nqd7HRwQM3EfAAGARKn8UJxJwjELb07PL2P087T9YG/jlJrVDBAwAVgKO1YOVdwLuTdTy7ziBido3v5uwUhPwB+oQQI6INEHH6sHKOgHr+TeRANa3vpvwtNIS8JRCBJAjSfVgZZ2AJ5pqyedlUcPACBgAuiByFUO0+pFxAj5VVcs4ick6szbwGAEDgK8EHK0HK+MErOvfZoOBA5rVEDAAdEFiXy1aD1a+CfhUWy0YuKWBKwQMAEJIfN8gWg9Wtgm4p6+WYRoGvvCYgREwAFhkyrjlI9ME/HkdQS3HVQrztXdibODNM4/pCwIGgA71TKCcxdsCzjQB96KcgH3rwgEn9K0NvKrkl5EQMECOSDRBRzxFmmUC7kX6AkX9NYkp25/YCrj+08ANAgaAvRdwjgm4vIimlqs0Vm0G1gYWF/CYSgSAgJ33YOWYgMvreEuuwzQMPLM28BkJGADCkVjOi1g98kvAZdS230EiBrYVcDM8k30vfK6xCwD2nnVaAs4vAUc+djNII4tZfxX6t8eU0CYOALihFBDwNuJ4s0vAt7FbftM4jDS3NvBjJZqAqUQAGSLxgYeYr++5JeDb6LudNQZu95j+l4HLBgEDwM5I9GCNI443swRcDizUkoaBJ34M/A4BA8D+CzivBNy/MFFLGrfDL9bWBpYTMHvAADmySKsHK68E3I/cgJXYceADawNfkoABIACBdbyoxSOnBGyTfxM6jLTwYmAEDAAZCDinBHxjp5YtGXgXAyNgAOiAQAU7JgGrJOBbS7tEvF8jyMDGh5HqSkbAx1QigPyQOAa8JAFrJODPtululYaBH4wNfDz9PopPKfUxAoATJI4BRy0e2SRgY/+mYuDS2sCrqcCsRMAACLjbKtyUBCyfgEtr/0a9YsN4DSf4MSFgADAR8DbqgDNJwOW5uX+b7VkSU9h6qeD7zUgIGAB25yY1AeeRgD34FwO3f0wIGAB2R+AUUtwGziwSsA//JmPgmbWBKwQMACYCXpKAhRNwedA4IZFram9Gto9p1SBgANh/AWeQgEvzBujkWqHPR03SJHLqGgAk6YcXrrhN0Dkk4N7akRrSMLDdRzuFVhooRX+zdy7raSNbGOUgOWMLDGNMbMZcnIxlLhkTBzO2cOD9H+F0n6+7TzqddMxlV+2/aq0H8CfJpb34S7WrAPJDbhF0Bgk49jF73xtY45dkhYABAAGTgM9KwF4WYP2FxkKsWYWAASA3AQc+Ozb1BOzOvypLoaUNjIABMuQCn86uScCXTMD3/uywH0iM5VkfAQOAEHKLoFNPwHOXeqg1fk32ETAA6PDx/EXQgYtz2gl47nIetelIGLjQNfCGUgSAgE8ozoGvOOkEPHX6HbPpjBVGcylr4AGlCCA7yvOnoAMvgk46AbfdriNqNA6MLz8iYAAQoZBbBJ1yAna9m8RMYkC3KwQMANkI+JoEfKEE7Hs3p0bEwJ8RMAAgYBLwUQm4cD59KmLgOQIGAAmu9EpHsgnY/W7GgTf9PhXJcxnG1CKA7NBbBJ1sAp75t0QXAxuxpxQBIGABASeagCW2cRIx8EhOwOzDAYCAFUpHmgm40EhtGu3Aro5zJAEDgJWAr0nAF0jAxa2IKTTagdsjEjAAOKc8Pyq8kIDPT8Ay/j3s32NgBAwAF0CwCynFBKzj38OhwcDZTiwAgDMBD0Jfc4IJeKLkin0tMbRXUgJeU4sAEPDxBL/m9BLwVGvNUGcpMbaHCBgA0hZw8C6k5BJwuVJbs/ssYeDyHgEDQNLzdK8k4DMTsJ1/zTqbnmuJ0S20K/SAWgSQHed3Ib2QgM9LwEsz/1YTMwNvJAy8kDFwU1OLALLjk6CA00rAy2cz/86KWysD7zHwZZ8npQiABEwCDpyASzP//n52UWHWi4OBETAAxE7A1yTgMxJwadYs03R+//t2x9PvNxIDfLFFwACQagIek4BPT8B2C6CbPzZtntoZWKMZadVHwADgkfL86hT+otNJwKWdHXZ//jCa5t6M9EHBwOxECZChgA+CAk4nAV+ZuaH6/02aLcQ69DQM/Cgg4BtqEQACPn6qkwR8cgI2bEC6++Z/bLbPdNPTGOSVfwGvqUUACPhowu/DkUwCXpiZcX/37cUtzZZCN+9rhVG+rBAwACQo4BcS8IkJ2PAEpLu/X93V1s7AEsO8+IyAAcAb7bMrx1cS8IkJ2M6/T99f3srOwAOJcb7wvhBrQC0CyI5Pij/dk0jApd3q5Kf6H9dnl4H/Wm3tG+dLoRtKEQACPp6aBHxSAjbsDip/cIG5G9h5MxJtwAAIWEPAKSTgaehafnXIPANPEDAAIGAS8AW+vf+0lK9/conPdgaWGOquF2KxDwcAAiYBh0nA7VFw/1oaeIiBz+SaUgSQH2eLIMbcmXwCNvTv3b9cpN1SaBED37oV8JpSBJAd57cBR+hCkk/Arx/NCvm/nlA0z93A7T4JGAAQcM4JeBeyASmQgccS433aJwEDAALOOAHH8q+lgUWWQg+dGnhMLQJAwCRgYQH36l9ep52BOyIGbjz6l304AHLk4DBNkoBP9O/dGy7Ubj+Kbi0x4qcIGAASScAxqi4J+If+fXjLhRYTKwM3XzQM7HEpNPtwAGTIlaSAScA/8t/sbVdamO0IJWJgj81IXUoRQH68k1w9QgL+gf1u3iygys7AEoO+GLkT8DWlCAABH19zScAuBNx03/5LaGZn4AeJUT/vI2AA0BdwlD1sScDn+NfSwM8SBi7dtQMjYAAErNGFRAL+5zfE8VFXOzMTUG+JgU9gTSkCQMBH80oCdiDganzk5U7sDFxLGHjlqwupphQB5MdHSQGTgL/z79ETv6WdgW80ZOLqZCTagAFypE8C1hfwKUuf7AzcbCQMvHz2ZGAqEUCGnJ93SMCxBdyc1ERa5t4OvNz68S/7cAAgYJE2YBLwJXzXNpuEbTYSY3/lx8BfqUQACFhEwCTgb2z3yxOQfsbczMB7jWYkPwZ+oRIBIGASsJyAO/XJ1zw3u6iexoYcbgyMgAEQMAlYTsC9c+7l3mwp9L5WGP1umpHWVCIABEwCFhNw77xbsTPwUMPATpZCU4gAELDKDgIk4Mv4t9UaHTAwAgaAGLQl24BJwBe7kTYGduDfHZUIIEPeaQqYBPyH4y7wE8zOwHcSr0DZjy/gFyoRAAImAUsJeHiJC7cz8G4g8Q5MtwgYABAwCTi4fy0NvBcxcB8BAwACJgEf0QB8qUu/OmRu4ElsAw+oRAAImASsI+Dd5W5iaCYgjdVFxW1kA1OIABAwCVhHwBf0b6scml3myftkhjXwJK6AayoRAAI+njjb7pOAm/UlL760O5dBxMBVTP9yGjAAAj6FMQk4hoAvfeLfwtDAEi/CLKaBaQMGyJJPmstHck/Alz9x19DAGu3AMQ38QiECyJEtCVhRwAYn3tsZuIeBf8ENhQggRw4kYEEB92qDZ7ow24+iN5B4F2bRlkKPKUQAOdInAesJ2Oiw3ZWZgLq1xMsQrRmpphABIGASsIKAe0ubh1qaGbjRMHAZy8AIGAABn1JaScChBbxfWj3V8tFsIVZ3rPA2lKM4XUgIGAAB6zRQZJyAG8POa8N24K7E69COshDrlToEgIB1BJxvAm42lnFpaWfgmcT7MN9GEPBX6hAAAiYB+xfwTW36YO2akSoJA5cxDEwXEgACJgH7F/BzbfxkF30MTBcSACBgEnCYBqRv+WBn4FrilZgjYABAwCTg7/0bolTbGbirYZpnFkEDAAImAcfo+bI7mk/EwPcsggYAAZORgMMJuPkS5uEWZguxIh1eeTRbBAwA9rX2QAJWEXDzPtiouDXbROS9xGvRDmrgDXUIIEv+QwJWEXAT0F1tOwNrnIwUdCn0mDoEgIBJwJ4FHHQrqaKPgREwAPgWcKTps/wScCdsmR7aGbiWeDNWwfwr8kAAwJ01BnGuO7sEHNi/rdbUzMDPS4U3owy2FJo1WAAIWErAuSXg4P61PBwXA3v4igMACJgE/JYFWBEec3tqdjfm+2lexsCfwwh4P6YOASBgErBTAVdxmnfsMvBGwsCLQAbuUocAEDAJ2KmAIzXPGrYDaxh4FsbAbEUJgIBJwD4F3HRijY5ilLuBwzQjjSlEAAiYBOxRwBEWYP1J264ZaS3xfjz2QwiYOWgABEwC9ijgiP5tlXbNSDuNpdCTEAZuxlQiAARMAnYn4N1DzPFhaOBOjYGJwAAImATsVsDNIO4AKc2Op4/3adufgYnAAAiYBOxNwPtN7JxY2h1Pr3EyUjkhAgMAAs4uAcf3b6u1NDNwpWHgoiICAwACzi0BO/DvbwbeZm7gEBtyXFOLABAwCdiRgJ1s2biyM/BA4i1Z2H8G5kQGAARMAnYkYDdbJtsZOGaP1RHcmxuYOWgABEwC9iNgR0cWmBm4eZUQT2lvYJZhASBgErAXAbs6p93ueHoNA7duicAAgIAzScD7jasIaNeMpPH1s/2ZCAwACDiLBOzLv5YGbjSWQretM/CeagSAgEnAHgS88TZSyvvcDTxiDhoAPFkjVtVIPQE/1e6GStnP3cDMQQOAJ2vsIl134gnYoX9brek28/A3JAIDAAJOPAE/+SzFdgYWaQceEYEBwI81Yv1qTzoBV151NDGbhe5JGNj4MzDLsAAQMN+A4wrY7w7Jxa2VgZtuLWFg0/04mIMGyItHvgF7E3A18ztcCrOj+fZfJAxsETKw1gAAIABJREFU+xmYOWiArNiKzpqlm4CbmefxYnc0336jYODSthuYCAyQEyPRWbNkE3DjPAXNDA2s8MIsRkRgAPBhjVgbFqeagJuu9xBkaOClwhtzZfkZeEdFAkDAfAOOJGD3/rU0cE/BwOWUZVgA4CMBR7ruRBOw2wakvxm4n7eBLY9leKUkASBgvgHHEHA1kxg0t3YGrgVuf7E1jMA1NQkAAUc0WbYJuLrTGDSlnYE3CgK6MozAA2oSAAJ2XjCSTMAPKqOmNFsK3Ci0AxsejnzoUJMAEDAJOPijfNIZNnbH01cKBl7aGZhlWAAImAQc+lE2Lk9A+hlzs++g1Vrg9pd2n4HpRAJAwCTgwI9Syr+WBu4pzMSv7CIwRQkAAZOAgz7KnZZ/W2XbzMAdAQOXdhF4QFUCQMAk4ICPcq9XdudZz8Ku7H5/UJUAEDAJONyjFPRvq2W3EmmoYGCzu6cqASBgEnCwRynp31brPmcD2/UiDShLAAiYBBzqUaqW3G3WBra6e9ZBAyBgEnCoR/mkOnrsFmIp/CZZEYEBgASsLeCh7vCxM/DOv4XMIvA1dQkAAZOAQzzKvfL4medsYKubZw4aAAGTgEM8yt6d9ACyWwwsYGCrmx9QmAAQMAnY/FGK+7dV3vetDPxau795IjAAkIBVBby/Ux9BdgYW2B17ZXPvbEcJgIBJwNaPstnoD6Hiw8HMwLne+4DKBICAScCmj1Li9NtfZ2Czswkb97tCFzaT0MxBAyBgErDpo0zDv63WzMzA/k9GsonAzEEDIGASsOmjTMS/vxl4m62BbdZhNQNKEwAC/iVrEvCpj7JXJzOMHs2WQvfG3iNwnzloAIgj4C4J+MRHKXHw/Ftz4MTMwN3a+61b3PWe0gSAgL3+VNdPwNVDSuPIRkP/m411b2CT3x531CaA5HknKmD5BNw8pDWQiipbAz8yBw0Ap3BFAo4i4OZLaiNpYWfgmwwjMHPQAOlTkoCjCNj/NovHG9hsV+jmv+ydTVvbTBJFHVuwNpiw9uTDawMT1obgrB0CrDGJ9f9/wsAk78yTYCBGt6qry+fsQyQh6uhWV0snWxiB6UED5OeQBFxCwD/y3UkDMwFHn1czicDfqU0ACJgEbJKAEXAiA89v6EEDAAmYBJxRwO1qFjoCWzShryhOAAiYBEwCLi7g4G8NGxzSgwYAEjAJOKWA29jfJjzbttAPAAEEXKhMkIC3TcCxW7IWEZgeNAACfoEpCZgE7CHgVeiNOWf0oAHAXcDjKg+bBFydgGMb2GArEj1oAARMAiYBhxBwbAMbROAF5QkgNy0JmARciYBDZ0KDCEwPGoAETAImAccQcHu5VRGYHjRAck5JwCTgagQceTOSQQReUJ8AUrNLAiYB1yPgyBlYH4F/UJ8AEDAJmAQcRMDth7AZWB+BeR80AAJ+ljIfayUBb6uAA49C6yPwjAIFgIDDZTkS8LYKOLCB9RGYl2EBIOB4KiEBb62A29U46iWQR2B60AAImARMAo4j4PZutjUReEaFAkDAJGAScBgBL/ejekkegRdUKAAETAImAYcR8L2BtyUCsxEJIDM7nfuBJGASsLOA2+XJlkTg5YwSBZCXpnOJmJKAScDOAm73ghpY/l3gBSUKIDGdS8S0xqMmAdct4LAGVkdgetAACDiagEnAWy7gdm8a8yqIIzAbkQAQMAmYBBxLwO0opoHFEXg5pUQBIGASMAk4lICDGlgdgUeUKAAETAImAccScFADiyMwPWgABBzsfbUkYAQcNB2KIzA9aAAEHMwlJGAEfJ8O329BBF5QowDSMqlSwCRgBBzVwOLXYbEIDJCXXRIwCbhWAberacZnWnrQAAiYBEwCDi7g9jKgnub0oAHAR8CrGQmYBFxKwO3lLN6VuKEHDQAuAi6yD4kEjIB/cR3PwNoIzEYkAAT8JCRgEnBBAbdX4QysjcAsAgOk5YwETAKuWsCreAbWRuAFVQogKX0SMAm4agEHNLD2ZRwsAgOkhQRMAq5bwPcGjnYxpD3oO4oUQFKazvXhgARMAi4q4HZ1EexiSHvQLAIDIOBIMiEBI+DfRqGDGVg7hjWmTAEg4DgCJgEj4NAG/qQ8uX3KFAACJgGTgIMKuL0O9meljMD0oAGy0nlgs4RMSMAI+A/ez0Jdji/0oAHgRU47P58XqHwkYAT8520Y68tIO8pzO6BMAeSk+6N6AQGTgBHwIwOHyonSHjQbkQAQcBwBk4AR8GNNTSNdD+lOpBl1CgABR1mhIgEj4DXTwpEMLI3AY+oUAAKOskJFAkbA0Q18KjyxH9QpgJTMa6wOJGAEHH2xdCfpeQFApMJZwCYkYAS8dhDrXZwLIu1BzyhUABlpSMAk4CwCDmVg5RjWmEIFgICD9MdIwHULeP9mCwysjMAsAgMg4PWQgEnAmwl4eG5n4GmYSyIcw2IRGAABRxEwCbhyAWu3yf7uqnGUS6I8xxmVCiAjNxUWBxJw7QJuPubfjKTsQS8oVAAZ+VJhcSAB1y3gu95WGFjYg2YRGAABr+WWBEwC3mwI67/58NDKwKNZjGsi7EGvKFQAGTmtUMAk4LoFPHz4F8efrAS8/BbDwMoe9IxKBUACDpHnSMB1C/jn20sHe3YGjnFRhG/DWlCpABJyVmF7jARct4B/7ao5sTPwv7NFYBaBATJyXuE+JBJw3QIe/fpHJ2bLwG9jGHjCIjAAPPeUXqGAScB1C3j4z786Sm5g4RjWjFIFsOWVM0htIAHXfRv97wuWgyOzzUhvQxhL94CxoFQBIOAItYEEXPdt9P83K9oNYrUHEQys60GzCAyQkKb7Q/otCZgE/Jo14Hs+2w1iXQUwsG4OmkVggIxM6ns4JwHXLeBhz8XAAbYDCx5v/zmbGaUKIB+n9T2ck4DTJOB7A3+1y8AZHm9ZBAZAwJHGoEnAdQv4t6/rNZ/NRqFX5Uehz2UnM6RUASDgNUmDBEwCftUU9E8+Jt6M1Mgi8AGlCiAf3V+F5f4RdBJw3QL+I8w1mQ18JovzlCqAfPTr646RgOsW8J8PIIbfJiy+HbivOhP3x1wACFY6YwiYBFz3XXT36J9PzAz8rrCBdT3oBbUKAAG/MNVKAiYBb/zA1r9Ja+Bd1YmMqFUA6RBsVfSewiIBZxNwr2+Xgcdlr4ysB80iMEBC6huDJgHXLeD9NT/g3MzAq8IGZhEYAJ5kUl1pIAHXLeA706T4+L8bV/73xSIwAAk4zBQWCbhuAa+/Xd4lNXAfAQOAoYCdSwMJOKOAG0MDF702TGEBwFPMScAkYFcBP+VDu1Hoy5LXRtWDZgoLIB+CFtk+CZgE3P12MRyFvpxV/QfGFBYAAg7ybE4CrlvATzZM7LYDL0tmYBaBAUBRO0PsQyIB130TPf1dgZ1DMwN/KHdxVMGeRWCAdDTdY8dy7HrEJOC6Bfz0TFTzyczAb8sZWPVBhjuKFUA6JrU1x0jAdQv4mSRnaeBxqYvTF50TU1gACHgNVyRgErBkaN7QwKNZxX9hTGEB5OS0tuYYCbhuAT/7bfnmk9ky8LdSBlb1oBcUK4BszGtrjpGA6xbw849rzVczA48KRUjVRiSmsADSodiH5JotSMB1C/gFj1wYGrjM1RF8cYxFYAAE7Og0EnBWAQ9f+GEXdpuRTspcnn+xCAwA64unoN65TmGRgFMn4F5vbmbgvTIGVvWgETBAOgTvH3KdwiIB1y3gF28Ww1HoMgYeiM7nimIFkI1JZQImAdct4IMXf5ylgaeV/okxhQVAAg4whRUwR5CAhWvAtgYelTDwkWgKa0a1AkiGojqMHY+367EaJFASsDjHNUdWAl6WMLCoB80UFkA6dioT8CRejiABq9crBmabkdpvBTQm6kEjYAAEXHY8ZDfewZKAtS1oWwMXmGU6qvbIASC8gD2nsDoLWP9lHBKwXMCy0eE1LRD/LyOJNiJ9p1oBZKueh1sm4PZOXYFJwAb3yrtEBhY9TSBggHQIxqCXs5oELF8GJgFvwP7f/tRjOwPPvK/QpNLjBoD4AvacwhIIuH1HAi4m4OFf/1i7DHzpbTLRIvCUagWQDEVxOPA7XMl62iUJOL6AVS9RXsO1s4F3NIfNFBZANhTFwTPWteEMTAK2mRfo2xnYWWWiLyL9oFoBIOCiU1iaCqwcxCEBW6wBP/zgiZWAV84GvpEcNVNYAAi47BSWJkwoR2FJwDYt6PsMvJdkEGvOFBYAWLXHxn7HexpuMwoJ2Gxc4NjMwL4RWLQRCQEDZEPRHnOcwtpVZSDZQwMJ2G61wmwz0uqiuj8yxqABEHBhragE3O6r8gQJeAM2/ajecY5J6DPJMS+oVgDJUNSGu7oO9+fCtWo7KAnYag34AbNRaNcmtGYjElNYANmobApr0EYzMAnYMAH3PlsZ+K1nBNZsRFpSrQCS8UZRGsZ+x6tbFVzu+19A1oA3NrDVl5Fc3wmtWQSmWgEkQ/JuKccprFNdCV6ekICjJ+Be7+I6wVakL0xhAYBRd8xxEfiLsAbvKQxMArZcA34w8I2NgR3bNqJF4CHlCiAZCgE7LgK/UdbgvanzAZGAX2MvGwN7jmE1kiO+pVoBJEPywj8/AQ+kRXjU3cAkYOtWSTM3MbBrD1pyBoxBA2TjrLJ2nvTdDMvuBiYBmw8LNPPqI7Bk5YQxaIBsSHq6Q7/jPW1jGZgEbH+fNNe1R2DNIjDVCiAZkjFoxykscRpajjoeDwnY4QHEZhR66neVmtoOGABcOKzr2XwgrsLL9yRgt9/Hqx/UTDKwZw+aMWgAsBLw2C9LqCdyVt0MTAJ2MYjFZiTPHvQNAgaAx0jGoG/9jve0DWVgErCPQY4NDDz1u0y7la30AIALbyorDfNYSYgE7HSbGBjYsQd9zhg0ABgJ2HERuNEX4i7fZSABb0Cn128f1dyDbhAwADymX5mA9T3oTgYmAXstYg4+1tyDlqz0jClXAMloKysNFq9leP0H2knAblNEA/m3CR170JJXcQypVgDJkIxB3/odr0EPukMpJgH7jQrIDez4QNRHwADwGElLd+V4wBMDAa+uXpmBScCO5z/Y2+5FYMagAbIh2SHh+D0Gkx70vYFJwOYC7pzgTsQGntb12MgUFkA2NGPQY78DNulBt6sLErC1gA86/3diAy/8LpRiEdjxu58AEK+Ehgh3Nl/HuX6VgUnAvi3Uk0Pl79zxiai2z44BgAuaAOl4wP3DOAYmAW/ASPAfHil/+Y49XcmrOIZUK4BkSCqaZ3esOWptDPyKcyABO/tjIDWw313bKA57QbUCSIbmzRaetaFvI+D2w+b1mATsnIDvDby9U1gHVCuAZGjGoD1rg80Y1sO3CTc2MAnYfRtNXziINfS7UopFYPYhAWRDMh7iugjcm5sZmAQcPQH3eudfZb/w27raNiuqFcA219AYWyQam0Ho+7MYk4Dtbh5V3jyX/b6/1/Vnxj4kgGw0mlq2cD1mowjc3k1JwNETcK/3UTWI5TgGPVAc85hyBZBMwBqZ+Q6ImEXg/c0MTAIusYR5IfsykuOlmtT2lAsADmjGoH3Xp8wi8IYGJgEXeUaTGXjqd6mOEDAAPOKLxlwz3whsZeDNPhtPAi4zc9yIDDz0u1SKKSz2IQFkQ9TOvaryqDuOQpOArR5tXmA2kfyyb+sSMGPQAFtdRMNsUmyuIxiYBFzqDjm/qUzAindhIWCAbIjWU733SJgtA7fLKQnYQsBDbaK8qeypceJ6ZwJAHWimsNz3SBzbLQP/dZ0jAZdbcN2pax+SZAx6TLUCQMAhJkQCGJgEXDBuKgaxHK+V4pVzC6oVQDJE80z+b6r91JY2MAm40BDWA4JRaM8E3EfAANCtikZaoBp8NDPwX761iQRccs+PwMCO10oxhTWiWgEg4CALVHYGXn4jAYcXcPdBPM8ErFgE5ntIANlQzRP/h72z2Wob2cKoYis9xjh4bGjw2PyEsdrGPQYCHl+Rtt7/EW4gd610biBY0vlUp6r2fgKXllxb3zmnpACP56Zfh/0/A1ckYFsBC+yxiSgBI2AAeAWjKawQu0M5URl4t08GJgGHfQDp21cd9OycwRQWB4EBksNoCivIKcVLmYHrKxKwqYAP/Al40KmmUaR/MQBws416Ooj0YuCZysCP7xuYBBz29ujttIMBL5bFFNac3QogMayawGE6VOc6A9+QgA0FLLg9ohJwYfA3u2W3AkiNhVHRtgoiAZ2Bj95bEAk47JBeXAI2+JtxDgkgOaxmicMUyIQGfqhIwGYCFsguLgEbTGExBg2QHB+NfBXo+Vx4GOkdA5OAScCD/s0QMEByjKx8VQX6/bpR6AcSsJWAs+8BG/zNOIcEkN4+alXDnQdawOpOdhz4igRsJODcp6BNxqCX7FYAiWH2bd1PoVagM/DRFQnYRsAC2cUlYIsx6Dm7FUBqWDVRw7WoVtsQBiYB0wNuwQIBA8AvWE1h1eH2h1UjM3BFArYQcPY9YIsx6CWbFUByG6lVE/gg3BqEX0aqSMAGAs6+B9zudnnjYBybFUByWBVwAx6TKHUGPiEBGwhYILvIBGwwBv2VvQogOayawHXANVQLlYGbExJwfwEfZi/gYhbzEy4AiLBqAgcdElnJDFzfkoB7C5gesIGAScAACHjImOPBwE9zEnBfAQtkF5uA+9+fu4rNCiC5ndRqCitkDboohzYwCRgBt8FgCmvJZgWQHGbHaOdpJPn9CqgkYErQCBgAenIuFdVwnAw6iEUCRsAIGAC8RMc67DqEh5HuScC9BCyQXWwCHve/DTkIDJDgVmrVBA7+srztgAYmASPgVjAGDQCSrcHJScWR7LsM9SkJuIeAKUEjYADQBsc69ErWui8jnZKAuwuYjzEUxTUCBoBfMZvCCv/BlvV2KAOTgClBt+IDAgaAX7E7wBP+bXmbmczAcxJwVwHzMYai+KN/galirwJIjtKuVRp+LZ9lBp5WJOCOAqYHzDkkAHgdu7rtacIG/vnbhCRgesC6C4aAAbLh74Rq0N8MLBuF/ncGJgHTA25H/xuwYqsCSA+7JvDOwWpK3WGkKQmYBByuzjRnqwJID7smcHPrYDnriczAlyTgLgKmB1xYnEP6xFYFkCB2TeAnD2WytWwQa3JJAu4gYKagC4sxaM4hAaSIXRPYx6CIbhR6siQBtxewQHY5CvgfdiqABDH8lN+th/UIDyN9WZKAWwuYHrDJnwwBA6SIYRN4V7lY0LlKwPV0SQIu6AGH+JM9sVMBpIjhGxyXPvygG4X+fhyYBEwPuCWcQwKA1zBsAjv5aqnuuwzfV0gCpgeMgAHAAMMm8M7JknQG3p2SgNsJ+BABm5SZEDBAipRNchG4GB0rDUwCpgc8eJkJAQMkiWET2E3cG82EBiYBU4JGwADgY3NwNgf9zInOwBUJGAEP/h+7ZaMCSBHDJrCbGvQ3A8sGse5JwJSgh/7JHAQGSJOySTECFwuZge9IwAxhDf0fQ8AAaWLYBHbUqhrpDEwCpgSNgAHAAsMmsKMadDF2YWB6wAgYAQPAW6zSrEH7MDA9YARcGDREduxTAEli2QT2FIFdGDj3BCx4AIlRwJxDAoDXBWzpKVdP6rrjwCRgStAIGAD6Y/r9IE8bRXkxIwGHFTAfY0DAAPAbLE8Cu6pBfzMwCTisgOkBv/AXAgaA13dUy5y4c7VTlMck4KACniJgk9/csE0BJMoi2Qhc3NyRgEMKWCC7GAXcf9BxyTYFkCamTWBfEbi4eSQBk4DjF/AB2xRAmpg2gb29N/5mSwIOJ2B6wO2v2av8h20KIE1Mm8CKwddebLYk4GAyYQr6ewKeIWAAeB1TRTmrQRdlSAPTA0bAz1wjYAB4HdMmsLMxrGcDk4BDCZg3YSFgAPj9njZLOQIX5SMJOJCA6QEjYAD4PdukI3DAUWh6wAjYRMBPbFIAqWJbg/a3WQQzMD1gBPxM7y5IzSYFkCq2B5Hqyp+BZyTgEAI+RMDtLxqvwgLICtuDSP5q0EVxsSUBB3AJPWAEDADvYKsnd2NYwb6MlHsCFsgOAQNAWtg2gd29jOMlA89IwAgYAQOAN2ybwM2kcrjGEAbOPQFTgkbAAPDeBmEspwePizwnAQ/tEoawvlP27vHM2aQAksVYTg4Hob+p45gEPLCABbKLUsC8iQMA3sa4Bu0zAo/PScAIGAEDgLNt1bgG7XAQ+nmVExLwoAKmB4yAAeBdrM/JLl2u8nJCAh5SwFMEjIAB4D2sq7OfXK6yHNjA9IARMAIGgPfUZKwel2NYzxl4RgIeTsB8jOF/rBAwALzNNosIXBTHMxLwYAKmB9zlqiFggNy4ziQCj4c0MD1gBGzzq/9hhwJIGOuDSG4jcLkgAQ8lYIHsMk3AO3YogISxPojk9CTS8xY+IQGTgCNLwLyLEiBp/s4lAherLQl4GAHTA7ZKwDUbFEDKmNeg3UbgcjADMwWNgG3qSwgYIGnGTTYRuFyRgAe5TQSyi1PAxQIBA8Bv2GYTgYvikQQ8hIDpASNgANiHTT4RuCjPSMADCJgeMAIGAPOtNfYIfPNIAtbfJfSAETAA7MU2owisWC0JmB4wAgaATlznFIEHOYyUewKmBG0lYKefFwMAK+ybwK4j8AAGzj0BHyJgKwEfsD8BJE1pbySvb4R+We6GBCwWsMAaCBgAiMD7ce/ZwGckYAQcyV8LAQMkzljgIM9FaLmB6QEj4Kh/NgAMJyRBV9RzEVqyYBIwPWAEDACtuRZI6MHzgsWDWPSAMRkCBoC9UIwluY7AxeWWBKwTMC/iQMAAsC/b3CJwcXlHApYJmB4wAgaAfbnOLgJLM3DuCZiPMSBgANgXydFY3xG4OJ8hYJGABdZAwACQKtv8InCpM/DXKrkbZE0PGAEDgISFJAJ7N7BKwPWX1Ay8ntADRsAAIGEl8ZDzIvR4ojLwbprW7dHyStEDNistIWCADJCMJHn+KlL7XNdq5Vcp3RxtawUCa8Qq4L6lpSlbE0D6SGrQ3uewhAY+SsjArbvlJGCz/xUfBAbIgFWTYwQu1jMMbO5fesCGD7ZsTQDpU2oisPtppM86A1eJ3BrtLxFT0AgYAFrwQTMP7L0IXeoMnMgo9HrrQXYIGADSZaSxkPsidHmmMnAah5HWHd7Z+dXh7YmAAcAvmhq0+zmsorxuMLCpf+kBI2AAaMWHTCNwMdJ9l+Eh9pui7HRt6AEjYAAYdIt7g3v/Bl6oBLw7jdy/Z15kh4ABIGUW2cbAlczAR1EbuKN/KUEjYABoxx+qGOg+AotOQb8YeB7xHXFWI2AEDAADoKpBR1CELk5kg1i7eG+Ij45kh4ABIGlkhdgIZpFkBm5Oon0g2yJgBAwAkUfgCIrQpezpo7nPzb+UoBEwALQl5+M4ulHoZh7lzdDdv80hAkbAADDwbvFmBM7awLsIDdx1AJoS9M9sEDAADLPLxVyELtYY2Ma/vIjjBx8RMADsh0zAzUMEBt7MMLCFf+kBG/5uNiWAXDjWReAIitDCLyM9VVHdBz3PRU8RMAkYANpuczOdgW9yNnAdwVnof/l36052JGAASB3dKHDzGIGCys8NBi5Wfb9OQQ+YBAwArflLJ+Amhtcil7IvI9WHsdwDo0nvagcCJgEDQOv9QleDjqIIXdzoDHwVxy1g8EoSesAkYABoj24Mq6mPqqwNPLmM4QYYn/d/BhPIjgQMAETgPvwZhYG3MgMv8/AvCZgEDABdEI5hNfU8hiuwkRl46t/AFv7lHDAJGAA67cBCATdPEWTAopS9kKN2b+BLk6UzBU0CBoAOjJU16CaKUWDhcWDnBr6cmCxTIDsSMABkwLFSwM2fURhYVgaop57XPbbxLz1gEjAAOIzAcXybb6w7jOR4FHps9dxBD5gEDACd2EoF/JS5gSduawDjY6tHL3rAJGAA6IR0DCuSNrCwDnDk1MB2/qUHTAIGAG/u+c5JFFfhQnYVnH4b2fC5ixI0CRgAOlGKI3AdhYFLnYFdfpfhYuu6yEECBgAicDbv4yhOcjLwytC/lKBJwADQFbGAm8M4DKyrBLgzsKl/ETAJGAD8mScqA490R6IffK20tJ18pwdMAgaAjqhr0JJXNSiuw0I2iOXKwOWj7eq+ImASMAB4jcD1FwycrH8pQZOAAcBxBI7FwLIL4Ogw0sZ6bbyIgwQMAJ25buQGvoriQugOIz3eOMm/G/NXn9EDRsAA0JkPcgE3R5EYuEnbwAL/8jGGH1CCBoC26GvQ0Rj4WJeBKwfLE/iXHvAPzhEwAAy+cezBZBnFs4juMNJpeAPfCPxLD/gHCwQMAB4jcDOtorgUslHo+iH0Bbh5VKyLHjACBgDvETgOA49kDyOTwBlYlO7pASNgAOizNw8g4KaOwsCl7Ysaf7oA86ArE331WCA7BAwA+VDeDSHg+iGKa7GRGfhpGXBdqglvEjACBoA+rJtBMnAUo9BCAx+GM7DsjDM9YAQMAL2kMxvEwEeRGFj2BBLMwBcT1ZqYgkbAANCL82YYA1dRXI1HnYHDLGj0X/bOZaFtHQigLjZdkwSyDgGyTgiwDhC65pWs63Ct//+E25bb3j4ItSyNpInO+QBwRskcSzOSxPxLDRgBA4AbZZgpsHlSYeClnIFPoozuRG5EBV4pEDAAMAUWILnr6d82sFgZuBfBwOWx4OsVNWAEDACRk17bKaAOA8s1YoXfjFROJJc3qAEjYABwNI4JZeBnHfHYnVboY9HxFJAdAgaArLgKJWDTnKoIyM2uGHgsW95nCRoBA4AWAdebkYaAyG1GCmvgc1n/ImB/At6QhgCypFqbcDQqDFyeiQVgEPBTSLe3C8guVwEfkIcAsqQ0IWl0xETMwOE2I5XHBgFreddBwAAIOMRmJB1BEbNX/RToE8gf8s0StPaJOwBE5tpg4D+RO6GzCWLgAP7lMgYEDABuXAUWsBmpCMtczMD1NMDjhzhdRcAaCBgAEHD2jVjFXOwQ5ZX4xRTV5TDAQHIQBwIGAF09bFFkAAAgAElEQVQC1rIdWG4OvFrugn+pASNgAHBL1kNjmAO/yUwsNMJXQ92FGVNqwAgYAFwoTQQ2CxWhkTPwoWQAloHeqQSsgYABAAHLUveVGFhsDeBZLgDLh0CjSA0YAQOAC9cGA283sFgjltzFFFUo/0ocqqLUZPsIGAA68MlEMrCK6Mi1QjdCjVhVsMutqAH/4AoBA0AHJiaSgecqwnMjZuAjkc1IgRqgqQH7/RHdk4gAMiRGE/QrPSUGHmoycEj/MgP2J+AFmQggRwEbg4Hf5UzTZqS7kO9T7AP2JeCaRASAgAMbeKoiQnJ3Ez75NvDtOuT40QWNgAEgZsZzWsPM3MC1ZwPfPgQdvoMEv44IGADUcB1TwLUSA4s1qg3HPp/zJqx/jUAjOwIGgHz4aOIaWMcygdjKbn3v8TED+5ca8A+uEDAAhH93d808JyqmwHIG3oy8PeU49OBRA/7+/VgjYACwTx0msoAbJQY2yRs4uH+pAX/H+ThXBAyQJSY2Ou4mrMapGzi8f1mC9vbUCBgAAceZBC9yN3ASDqAJK+IM2JCIADJkL76AzaMOA8ttB/bQCr0Xo5Z/kOD3UecMeEMmAsiQjwkI2KwwsEb/ImBvM+DPZCIABIyB3zOwWCu0GTk+WpxedmrAvp4aAQMg4Gg8qwjWjZiBj9wMLHdc9bu8IOBXrhEwANizTkPAjQ4D36Zp4Ej+ZQn6O1cIGADsMYnQ3KsIl9xlQw4GjuVfDuJAwACwAwI2zVJDuASv2x0suk7Lo40ZNWAEDADdhZKMgM0qcwN3vRkp9A0MP78zIGAEDABd2TcY2NbAUp+/7jQHvu3FGzEB2ekU8ETlUwNAXD6alAy80BCyqidnYPunKSP6lxrw90FwXhWZkooAEHBcTlUYeCln4Avrt4FZ1Lo9An4VsHMkyUQAGfIpKQHXJyoMLLfq27M0cDUbGmbACBgANLI2iRlYRdRuxbTXs1qLLOP6lxowAgaA7pjEqEcqwia4GcnGwJH9Sxc0AgaA7gxTM/BmqiFsgpuRLAw8jz167AP29NAIGCBDSpMcfR0GFmt+am/geS/2WFEDfsV5G3BDKgLIj/30BFzrMHApdvxF3fJY7Cq6f6kB+xLwP6QigPz4YBKkryJ0t3IGbtUKXV7u5EjlKeDPpCIABEwrtIWBxSqwR6ct5r/RbmCgBvwHnxAwAIR/dc/ZwOOIBq7OUhgoasCvrBEwAFgzNGkaeKoheJWggRd/+d93SYyTgOw0Ctj9RhMEDICAaYW2nAOLBeDxfQPfrMXUzxK0Ne57CWjCAkDAGFiHgeX8u5kj4Agz4BGpCAABY2BLJnIGjuFfMyojyy5PAS9IRQDZsWfSZaAjgnIGvt/6T+X8Oy4QsD13CBgArNlPWMD1U+YGbrYZeCXoXzsBswT9jU8IGACs+WAwcLqrCFsMLOffr7u/rATMZQwIGAB2UcBaDHwuZ+Cw/v02n2UJOoaASUUA+TExaRt4qSGI1blUK1u9+vO/yW0Afm17sxIwB3F8+wKsvbz6AEBeDNMWsDlSYuBwm5Hu5DYgffOvnYAFLvHRKGC2AQOAPWuTuoEXKuL4IGfgX//RvtiI1aPCXsDUgBEwAOyqgM2hCgOXx2IB+OVU6KVYzaA+WXQQsIDsEDAAZEE1TF7A9bMKAy/l7ib8ycDVsXyYqQHbv34hYAAIn+ww8A8Diy0m9E7/96/YC9P/QaYGbI37XoJDchFAduwbFQbWEUsxOfZG//0LOf8edZzOMQP+ivsupCm5CAABJ0lzoSGWlVx/8strfpbrtV4tOwpYQHYKBfzReQAW5CIABJxoK3TmBq4HXw183gvhX7qg7blCwACwqwJWY2CxAHwx8FzMv80vm605C9qaIQIGAGuujRYDq8hQldwpkYNSzr+/1tipAVsPu0HAAGDNWouAzZOKFLWUM/BMzr+L7gIWkJ3CGbD7GCBgAASccCv0WEVAl3oiusW/dgLuI2Afm/leSEUACDhldBj4TpuBf/cvNWBr3LcBcw4HAAJOm5GGiFbnugz8OC1cBEwNuPCxCwkBA+RHOdTkio0SA2sKan9aOAlYQHY5CpglaID82Fc1WVNi4GKmJ6L1tHATMEvQhY9LtZ/JRQAIOHUD61hXOFbj35PCUcA0YRU+tgFPyUUACJhGrJwM/KZ/WYK2xiBgANh9AdePGFjYvwg4+AMjYAAEjIH9GVhDI9aWc5ypAVvyAQEDgD0zo8/AIxWRnadv4MHUg4AF2nczFPCGVASQH2t9AjZHSgys1b8sQdvCLiQA6MDEaDTwKasL7rxsXfXkII7gr7EIGIAZsBYDTzXEtpylvArd2x5DKwE3CNjDLiQEDMAMWAsvCxUGPk7XwL154UfAAwRcuQ/zgFQEwAxYSyPWAAO7+fek8CRgAdlpE7CHrQQjUhEAAtZjYBXhrRJdYahPCl8CpgbMLiQAiJLq4inkQkeAe0kG7/3zI6kB23GNgAEgJwG/W8RMiJsU1xgeF/4EzAzYwzJSjYABEDAG9k11k17kNu/7lxqwJe6Ffs7hAEDAygysY9pwllrcmlHhUcB0QXtogmYXEgACVsaTCgMvEzNw89djTDgL2goPTdDMgAEQsLpWaB0GXunyLzVgOzw0QbMNGCBD7oxuAz8tNES5SqkRq8UxntSAQ8+AR6QigPyYGOU861hoSMfAbS5ztBJwP3sBzxAwAMQQcD+yWhoV9zJUd6kY+LHNkgE1YCvWCBgAYgj44AYDtyGR7cCt/EsNOLSA6wWpCAAB26e6KnYZWcscOIkGrHaJnhqwDSXbgAEgjoCL8kyHVWIbOIHNSG3fVViCtoFdSAAQS8A+ZgAh1lUxcOu1ApqwbJghYACIJeDiPLaBVypiHX0zUuuOcZagbVgjYADogPPk9fUQ+XlkAw/vVUT7PK6B2y8UIODAAn4mFQHkh3Omq1//TmwDNzoMPI9pYIszS6gBh3yJZRcSAAJ2ETAGbse1Cv9yGYMNHnqwEDAAAnYQsI9OlAwMXF3Gik/Pwr8sQQcWsI4+fgBIVcDlLPIceKMiicUKU+/C6ilt/nTuB3HQBA0AkQX8RS2R58B9FQauohjYzr92Am4yF7CHun5DJgJAwE6po+yxHbiVgcNHprbzLzXgwAJmBgyAgDvwz09/bB7bwH0VMQ//olLbrhJTAxaK1RbuyUQACNgx00U3sI57GW4Dh6ke2C4NUANuzx0CBoBOXPnNdDeRG7F6JzoMPEzbv9SAQ/6EEDBApkw8Z7qz2AYeqQh70EYse/8yAw75E/ryijQiEwEgYOdMV8U2cH+qIezVZbgwHXWICDXg9kNJEzQARBLw59/zUeQrf2oM/Jt/Lzo8Hl3QMqFCwADgUcD3f6hlEtnAAxUGXgbajFR38S9nQbfHRw9Wn0QEgIA7sPgzea7jGlhiRibA3kMQ/z7KT+vyrgHTgwUAkdJH/cbfvIlt4LkOA69D+HchL2AB2SFgAGAG/Ffe+JvVXmQB1zo2IwUw8Ljjo1kJWGABVY+AffRgIWAABOxLwNEbsbRsBxZ/UelcnaUGLBKpbS+MUxIRAAL2swSdgoF1pLSxsH9HQbSSdQ3YRw8WTdAAeXIlMQMuvBxQn8N24HGa/qUGHO4HtPUtFgB2HOcK1rbcEb0R6zF7Azv4lyXooAIekIgAcsS9glWkamAdc2DBMvAo1PfiJWMBe+nBOiARASBgnwKOb+BDDQMwEfv442DfCwF/qBGwjx4smqABEHAn3pn9xDZw85x+/OWa1cYLBBwAHz1YNEED5IlzovssnJx228By/j1x8i/XEbaFHiwAiDYDfk/A1WXsAzkWaUdfrgDchPxeZHwZg5cSMAIGQMDeBewnPbmwStrAcmv0nW5A6vy9EJCdGgGn8LYEAAj4DW4fIhv4aJmwf8WC01wE/V5kfBCHlx6sQ/IQQJbsyQq4mPeYA28LvZh/6/uwYsm4BvzBx3gdkIcAmAELCLhYxjbwc6IGlrs2ufbwkakBt8NHDxa7kAAQsIyAi+UwciNWmgaujocpf2BqwO3wMYiptwoCgFoBF9cY+I24z4ZJT/mpAYf5+dAEDZAxe/ICrmbRDZxe3OVicuTldeNf9s5krXFkCaMqW94zFF6byWszrg2YXlMMXiNo+/0fobn93e4uqsADjj8jMnXOC5CWkjiKQUp6wCth0gJmCBqADFglYH8Dv5xHu+xnOv9O0u+L9mbAJi3gPwlDAAhYJeA3AzsPYu0EM7BuNtzqtSt6wCth8hz1TBgCQMC66NF1fx24Jf5tJh77orVT0CYtYIagARCwNHq4f5DjMNI1l/nX7uPXnAe8CiYt4PmYMATQTm4TRQ8M/J/bZAX55sEsltMDXgWTFvCcKATQUi5TRY8b50GszY7HNfWv7Ers2uVS9IBXweROMgQNgIDVj+8H3i8jDWL4d1/2C59Ghstca8atpQK2aQEzBA2AgNUCrg+cU+CXEAbWDYTvGPqXHvAq2LSAn4lCAAhY3cCqL50NvBPAwKfTLPxLCTrJP8/fDIhCAAhYPkHSGbbewLoTgBtT/yLgVbBpqoyJQgAIWD/C6W9g56td6/xrPOVNCTrBGhmCBkDA6cJHx1nAje8odP2UzVtWawn4tZ0C7tmMJhCEABBwkud370Gs5h7/2gtYILscBGxTz2EIGgABJyqguRv4oUT/2qegCHg5Nv2EAUEIAAGnEXB96m3gkdel7sl+04v9b+I4Qv0SmcECQMBpR0jcDbznZOCebADrVfCLOIwh1QMVAgZAwMlmOOthKw2s8++L4vdQgl6KzT5mBgsAASd8ieJm39nAhp9MXplb3QtIA8V6OYxhKTZ3lBksAASc8i3Gm6mvgJv0Bs7nBeCvCLiVPWCjFvB3YhAAAk75GYFe39nA3xMbeKI7jFF0zCI94KU1DZv7NyAGASDglAKub90NnPYq6/yr+rYXPeBl2LSAmzExCAABpxRwAANPEl7j+lrnX1X8JgNedlNtmgrMYAEg4MQCfjOw8yDW9nm6a3wqe9rYkT1H0ANWL/D/r5ARggAQcGIBKz8LteLLSMkMrPPviy6PZwp6CUZPkMxgASDg5AKuJu4GHqe5wh2Zf2d3ulXTA17yAGk01j4gBAEg4OQC9jfwQxIDd4cy/z4ql00P2O76MIMFALEEXE2mLTBwd1/nX+XyOQ94MUYVaGawABCwi4CrC28DP8ovb3fYz3Px9IDF/zfMYAGAp4DdDTw7Ul9e3Vc3n7TpOz3ghVi1gJnBAkDATgKuLpxfB94TG1g3AC32LyVow8vDDBYABBRwdeU9Ci2NgDr/3ov9u55hBJ/jCi5goxbwbEwEAkDAXgLuep+MNBNeW51/9YGbEvQirCrQzGABIGA/Afsb+F7nMJ1/5b1rBGx3dRAwAMQUsFBTq9FXGVj4AtKhfl/QA16E1YdUHwlAAAjYUcDCQq1rDtzVnYCUYnR2LQELXqaJLeA/mMECgBIE7G9gSRg8kS13dxRNwALZhRawVQuYGSwABOwsYKuPGnw9DgoMrHvBKol/EfAirCrQtIABELC3gLvlGTh3/3Ic4SL+QMAAUIiAyzOwzr9NGv9yGMMCrCrQzGABIGB/Afsb2DYXqXX+PUu0LyhBL7i9oYcPAAABr8dk6D0KPba7ppPt7P3LYQwLsPp8GzNYAAh4M4yCiO7Y+hXVZvc5xRL8Sw94AVZblRYwQMs5iRLorr0NbPV1qVr2AnCzm25fkAF/foOt7ucd4Qeg3Wwc6J6tVnLtXITePrcJz7c6/yYsWdID/pQrBAwA6QOtVMCV91ehGwsD17f9EvzLFPTnmN3gAeEHAAEHEXB97J0Djzb/ETL/zpP6lx7w59vU7ImK6AOAgKMIuJp4G/h1YwPfTFVrU3yuy2pftKoHbFaBZgYLoO10Agm4mjw5F6F3NzTwjWwAK8EJhF8X8FbAfSkTsFmJY4voA0AGHEfA1XiatYF1/m2OIu+LNvWAu2b3dED0AUDAgQRc9dwNvMHia93i70PvizadB2x2yhUtYAAEHEvAtbuBN/jWxUE5/qUH/Blm+5MWMEDr6cQSsN1Rb1828GFA/9axBbwVcF+KBNylBQwAhWbAbzgPYn35ZSSdf1/q4PuiRSVoswo0LWAAiCdg99eB779k4I7Ov4Po+6JFAjarQNMCBoB4AvZ/HfgrJyN1hroXgMfR94VAdkEFbFeBRsAAsHGgE2Q/wmlilYGF/j1y2RcI+EPsKtDMYAFAN+KT/LW3gR/D+Hd+lMG+aE0J2i4BFlSOAKB1Ap4rVnXqbODZmgYeBkrGHfZFaz7EYdjoHxF7ABBwSAG7v4y0noGP+6X5lxL0h9hVoOeEHgAIWYJ+W9aJt4HvIvh3Ns5iX7RFwIYV6FdCDwBsPvAkWpe7gVd3hc6/5277guMIFYuiBQwAPzMMmQG/GbjvbOCnVaPyjwL9Sw/4IwwfCkdEHgDYfH5ItbCbPAxcpn8pQX90TQx3JIEHAOJmwG8G3s7AwF3ZIptHz23BYQzSBJgWMAC8cblpLBnLlnbmbeDlCtS1qpvHsee2oAcsKBaJZ7QBoG0Z8PxOtzbvKvTSJLQ+Ua2w+e7qXzLgDS8JLWAASCDgZ+HiTnwN3DQDJ//Onf1LD1hQK0rRtwGAVglYWU2rnQ08fxn7PB9sO/uXKejf96Lh7aUFDADhBez/OvDLgmKhrkK+PfHeFvSAzVekrdkDAAI2D3s/fAXc7HxqYN2U9t65+7agB/wrhhVoWsAA8DcnsQVcXTsbeL6T3L+Nv3/pAW90QZbd4DFxBwCqsAevBjLw4ccBWeffhwDbgh6wMAGmBQwANpFOHk06U18B9z8ycPdC598I+RHnAf9C2vfLAQABx3ilojMPZ+D6WPbXdkNsC3rAwj04IuwAQCYCro6dDfz768C684p3YkRnesDvGRreYr9DJgEAAa/Ngfcg1i9WvJ7q/lKM6EwJWpcAvxB1ACAfAdfDUAbW+fdlEGRbIOB3fKMFDAAtFXDV8TbwbhL/xukOUoJ+h+n2GxB1ACAjAVfXzgZufhrE0vn3IMy2QMCmq6EFDACS2JLmgd7dwP++nfvUAv9Sgn7HPhVoABBQT0OFugUGdi5Cbz+0yL/rCVjwKngoAXf6VKABQMEwEwHXF84GbkZa/4YajqUErUqAqUADQHYC9jfw3puBezr/jhBwTAF3yn3OAgAEvKKBp84Gfno8nrbDvxxH+BO2D120gAEgQwFXN94Gnuny3/NYu4LDGAz/Q2gBA4AovCSsqbkbWNZfvgu2KyhB2y2FFjAAqATcJFzspFADH0YLyxzGIEqAaQEDgGF8maVc7W2/RP8ehUuL6AFrEuD5HREHAP6ll1MGXNUlGngv3q4gA9YkwDMCDgAYhromafpWXxVn4L1J5gLeCrgrt6IshAo0AAgjTNqqWn2Ff4MJuOQp6Evbm71FwAGAfAVc1dtF+XcW0b/0gP/BeOpvQMABgIwFXE1+lOTfmB9moAds9d/hNy8BAOHpZSfgatIvyL/j/AW8Zf/3owjYdgSLFjAAvA+1/ewEXF308W8gAZd7GpJxAkwFGgDes3GXazf9mksxcFT/ch6wJAGmAg0AxkHG493GMgz8FNW/9IAlCTAVaAAwzoBdPi5w2se/UQS8Zf/3YwjYOAGePxNtACD/DLiqT7L3b9ovmAgFXGoJ2joBpgUMANYZcDPyWHZnP3f/HgbeFAhYkADPCTYA8J7NU8k7l3V3hvg3hoC3BDc3gIDNE2BawADwC71MBbyeJPAvAvZOgAcEGwAoRMDVacYC3o29KfgUpX0CTAUaAMoRcHWQr39HBQm4zMMYzBNgKtAAYC/gV7e155oDvwb3LyVoQQL8TKwBAHMBO54yPsS/CFiyJvudNSDWAMAv1P2MBdzN0sDh/UsP2D4BpgINAL8zzVjAWRr4LP6eaH0P2H5bPRNpAMBewI1ncS0/A2fg39aXoO0T4AzKHgCQoYB9u1udPv4152qdX1TgYQz2T3WvBBoAUAj4znP59XVOBm52stgTl+3uAQsS4O8EGgBQPO0/uq6/vs5IwDvjHLZEt9/uDFjQ1hgQaADgd26zH/D8gX9tH2lOEsouoIAFCXAzJtAAwO/0shdwnYuBXcfVVudkvaJ+cVPQggR4lzgDAEUKuKqnWfh3dpTFhrhZs6leWg9YkABTgQYAkYBn7vW13lMO/h2Mc9gPZ9v+80WuAhYkwFSgAUD1wO/+fF9PMsiBC/VvaT1gxQfGqUADwMf0Syiw3YY38H0Wm6HejmAXRwF3JM9eRBkA+JBpCfGljm7gpzqHvdC9CDEC4ChgQQGaCjQA6AT8GOFn3Mb2bx7573H6r07FErAkAaYCDQCfsHkJOsRJL3XkQSz/OTXdQ0xRAlYkwFSgAeAz9ssQcNU9juvfPF5Aup4GuftuApYkwFSgAeAzvpWS33X38W96/xYlYEkCTAUaAHQCjlJjq/v4N7l/SypBH0ju/x0xBgB0Ah4F+SmnIQ38mMc+mM7bLmBJAZoKNAC0QsDVWUAD3+cRgL88w1bOpyglBWgq0ADwOd3NpRXntNOTcP59KNy/5XyIQ5MAU4EGgAVsLuDXOE8T0QycyQtIT6mzzYAC1iTAVKABoCUCrrqXofzbnGexBXpzBHysaV98J8AAgFLAkZ7yQxk4F/9ON8nxyxCwqABNBRoAFnFV0BTW/wyMf1P6t5Qe8FC0BcYEGAD4nG9lCbg6a6IIOI/yY6efWnYBBXzd6i0AABkL+M9QPyjIy0jNbhbZTz0Mp5j0Au5skwADQJ4Cfo31i0IYOBf/bvoBzyJ6wEPVJiC8AMAiesUJuNoPYOA8/Lv5WRwlZMCyuQEq0ACwOAcysFUw2dT+Bv6LvbvZahvZwjBMbJExToLGNAkeGxwYG2wYGwIeR4B1/5fQ6eSs0+mVBGx5/6reZ+UCKEmpT3tXqTyapLj5u699Hsj/UdYBXKntnJ8xvQB4Uf8CeOeFzd3zN8cG6Kvd730PdkGfar2urZlcALxMYKY5ijamwco1f5N8gHTWhAwZ4wDW+3DtnskFwMsEsuo53KCuPBO4+ZLixg8lPthKvwasd3RLknNIATi66WMAq33ZuUn+3lUp8lckeQ7k/zDbANY7PvyZuQXAK97uPtU8BhzWiV/+5qh/ZZJHYQe8aQBP9R6EJXMLAP0ADrnd0yuBH1PcdanOq8JoLQNY4Nc46UAD6EzgQ+A24rhmPgn8eJTirkt1Xg/k/zTLAFb8/Uq2YAF4XR+3QX/3QP7+yVlNAEteht+YMLMAsAjgoPtNVuSvdvCkbkErNqD5CBiAUQB/jTky+8+BS8vf3AGs2ICmAw1gE+P+vu7vG+fvcYobLln4Hcj/eWYBrNmAZgsWgE1IbIMOOrTqhPz9NX8l18YTB7BmAzrcD5QAIIB7ncDHKaqeSnRvWt6jKIe3ms8CHWgAVgG8DBs353wA/F+XooPO+2MMmgvAdKABGE14cXdhWSbwOscvMFzLbkw7CPg8bvQ3ndcUwAD8I6rXAbxXrchftfxNG8CVav4m2Q0PwF/Pv3qcmyTwssj8zboGXN3qvo0xqQDYzEWPd2H9Y1rr5++XWYpmh/i7SNI14EvexgCEcNP3KWehncDNfY78la/7DuT/Sv0Ari5rCmAAvQngr6FHqDzhtjnyd6HQd/2QMYC1HwcKYAAbx1PMiViy9NOdcg9T3GaVdc+Ma8DqDZEj5hQAGxr2v+tWnSpOuoeLFPl7rTH2hBXw4lY5f+lAA9h8apaYdWbRE1htvh0lyV+VV5AD+b9UOYAr7fylAw1gi7m5LmDWGY60NmDlyF+lgyfS7YLWP5iFAhjAFi5ilkLCCaxT+TQ5Dj26ypM2qgFc6Z6AleJ/AoBIbmKWQsLmtUr+zjLc4eFYKW2yrQFft+qOmFAA2FbACRpvCsVP6fmbbQ3Y4FQ0OtAAtiFRFjST8MNUaD++z3GD1fK3fZcqgC1OJaUABrBVgVTI3k/xrdCHkxT391gvbhR+g1EvgAfjlgIYQA8DOEMxKDwDk7+5WtAG9S/fIAHYsjJclfLqL5rACbru2vmbKoCPDfK3ZTYBsJ2LYnpvggncfMwxYtW8SdSCNsnfRyYTAPYBnKQeFEvgLPmru+6ZZxOWSf6yBQvAtkS+jlzmGKtURZgkf/9Kd+qETgDb5C8FMIBtiezCekoyWJmpOMdoh9oHH2cJYJv8pQAG4BPAaT7AkJiMHycphnraEsD/OKkpgAH0OIDbSZLRVuNS8jflwccKAWyUvxTAADpEksgXksssw52Pyd+SAtgqfymAAXQgsQ1aY0ds0ATOUekMDXInQwBb5W+aXRAA+hfAiQqA3Q4FzrEBWu0XkJMF8KlV/tKBBtCFyM/FZjoGd5/8LSSA7fKXDjQAl0kv1S6sb6rrzvPypxwDNMnf8AFc2eUvBTCAbuWSyAy0TDTizgmcY6W7umwJ4L29xaVd/lIAA+hmLDEFpdqEUnU7/uvdLEf+1gTwt/wd2eUvBTAAzwBO9luoXU6JelyQv8pND7kAXozs4pcCGEBXMkcmTVKNebF9AjfLFCMzy99GoR8gFcCVaf5SAAPoal9kErrPNeitE3idI3/nZo3XRuGvFwrg6tw0fymAAXQlc2hDtpMIFvWW+TvLMKr5bUsAV+e1Zf6m2oAIIJiVxCy0niUb9XZboZPk78owd6IG8Py8tXXEFAKgK5FdWMkWgbf8GOkhx5As81dj251EAA9XtvUvHWgAO5DZhXWfbtybfy/7kKL+rUxLv4OYAfxx3FIAA0hDZhfWc7pxb/yT9Uny96QtPoCfzqzjlwIYgH8Ap1sE/hZZt30a2b5t8HyNGMAOKIAB7FIJyiyazXo68nWOE6AHq/zBkzCAKYAB7ERm6r5POPKzmvyNswk6YwBTAAMIEMDPGYf+egLneK8wz18CmAIYgACZbdAJF4E3SOC7SUHvUN7JM6AABlAYoYxoTdcAAB7MSURBVO07KQN47+V9s+9z5O+JefJ8JYApgAGECeD7nKOfkr8EMAUwAB+VzDbo56SjPyN/g0TPgAIYQGlkVhDXWYc//cPpSdMc+esSW/0ZCQUwAE+XMvPRMuv4h79L4Kdpjj9+cOsQPTo/fjWgAAZQGqFF4Oe0F2B4lrX89clfpVs9oAAGQACX1YPe26umn3/uw9efkpS/e4ORS/bovJ0MKIABlEZoF1bSD5H+Zz5fjJrv7j9P0/zVY5/w0bnTFxTAAIojdI7DQfLLsJgvvv2b53mPqE5rl+zRWQL2epugAAbgSGgX1jNX0pZT/rYfCGAKYAAy3sjMSQ1X0tTcKXuaCQFMAQxAhtRvyc64lJb5O3IKH6UOdKoApgAGICR2axK/M629wkfrNo8pgAGUR2gXFj1oO0Ov+letA50pgCmAAUh5E3xqxi/5e9q/6i9PAN/xAAKQ8lZoYlpyKXufv3oLDWkCmAY0ADlSu7Decyl7n796bY40AXzEEwhATvjJGT9zzF/Fl6wLCmAABZIqPpZcSgNndR/Lv2pFAQygQG/Dl0f4vyvPpGpmWsMaUgADKJHUD9GsuZT9zl/FV6wBBTCAElUsAqe5Va75q3iDhxTAAIoUv0DCj/x9aPtZAGepgCmAAQgbUx/k4Ju/mh2OIQUwgCLdSE1QE66lpv22rwVwjgr4kQIYQNjZjx60av76fqqjtwU6SwVM/gIQV9GiI39fzd+p5uAyBDBPNwAFYucATriWPc1f5e7GKQUwgDKJLQI/cS21OOev8jdmFxTAAAhgJqmQbp3zd6o7vAsKYABlkluBm3AxNVTO+au+vS5+AH+a8RgC0Jjfa8oE6t+X8lc7fcIHMOesAlAitguLRWANV87pM1JvbIQPYN4sASi5pAcduD9xVTvn7+c8b4AUwACSGVAplHBzOm7A0s/f6J8BN0seQwBaRZZYjcU+aPFw8q4OvxiMMXgAk78A9Iwpgcnf3xd/d1XxAUwDGoAiuUXgZy5mr+rfO5NRUgADKJbcOiM96KCtici3M3YAP/AYAlAktwhMD1rSmXfz1eZuhg5gGtAAslRaX7mY5O+WrmlAAyCA6UFHyl/nD4DNuhk3FMAAynWdb9buvaF3/h5bjTTwQVjrTzyIAHQJnvZACSyUv3+Vkr+RA/ieBxGAsmol9+UoV7Mf+VuZjTVuAK9nPIkAtMkFMD1okfz1/gUky7XPsGvANKABGBBcBKYHLeDU+wNgw+gRbL/QgAaQz77g6YVczZ2dO2/AWn82HGxFAxpAySSrkCMu5679iJLyN2wA214FAOUSDGB60LsmUl1U6zVqANOABmBUdLWUwFHyd+ScPF9mBDANaABmBBeB2wMuZ+b8vTdOnsuY+bvgUQRghB40+etz+GLMr5BoQAPIGMAcYL9D/r4prvILGcAjHkUAZiR70JTAnfP30nkD1si+8xoxgBsa0AAMSc78R1zObvnr/QGSR/AEPImy+cCzCMAQPWh/7vnrEDwRN0F/mPEsAjAkufjIr6h2slh5569D8AQM4Ib8BWBKchGYEriLeYn5GzCAG3ZAAzAm2f7kFIMOSbTybrz6jDteA5pnEYAx0fl/wvXcNn/PnXPn0OeeDaLl7yEvjwCsvaUH7em4zPwN9xUSC8AAkpcibMMif1MGcPOFZxGAvZYSuB9vP11yxyt/ZRsvu3vPswjAwZgS2C1/x875+7EfT93O3k14GAGkr0X4liNP/rZ++RtrE7RfIwBA4TEgOpc9c0HT5O+T4+BD5e9HHkYAPuhB9+C6d/B4RACzAAzAleyG1CUXdDMn3vk7cRz8fqD8fZrwMAJwItuDpgTeMH/rguvfUJugyV8AboSP5aUEzpC/zr8dGSiApzyMAPyMKYGtDb1jx3nf0VvyFwD2xE8logR+PX9vy85f2RPIs+4EBwDp85gogV/N31Hh+RtmE/TThKcRgCvZHnTDBQ2ev4/ul4ANWADwHT1oUxfe+btwvwR1jPz9zMMIwBk9aEPVaV18/u6TvwDwIxOEI4EDoV/gnb9NgAZFjE3Q73gYAfgTPhVxPeOS/snCO38jvB29CZG/PKUAIlRlLSWwUf6OvOvfCLFzQ/0LAD8Ma0pgE3PvDdAh8jfCHqxHHkYAMYwpgS1U3vl7GOM6+Afw+oinEUAM0j1oSuDf5u+pc+w89LPh0iV/eUABBDFoKYELyN8gqeO+B2u95GkEEIV4TUIJ/Gv+nnvHTpR74h7A5C+AQE4pgbVde+dvmFviHcAPPIwAAhm0lMC6rlbkr9bbHvkLIDH5fTFLLmqk/G0+xbkWvnuw7ng1BBCLeD5wIvTPKuf8bT8Euhg1+QsA/7pkp4umk7/Zu5u2ppI0DMA2Ca4NQtYRlXVQmnVoo2tAyLoPmPP/f8LYTPflNyZQderrvq/ZzcyCst48ed+qc5L6vU/zfNZiZyp/Ab4IP4PWAn9xLX+/2JW/AF9baYGrzd8uq9hJGMDP5S+QofAzaC1wBi3fXf6+zWo5jtLl79xmBNpICS3w/1c29QWsvPL3yUr+AnxtPNUCy9+aA1j+Ark60wJXmb+3ua3ISv4CfJsUvRY4gqPU+Ztb7uxYB4BvRZhBa4GfvJC/8b/oyV+gcGda4PD5O02cv4sWJi2ePwIKF+NHahr/UaTU+dtn2PcdyV+A70VIi67pBP4r9QPArzJclJX8Bfje0wiffS3/LOFfnfz9wfB3sLo9+QvkLsrpXLst8Chx/vazZjbZ/fmrsoH8TbXAAfP3NHH/m2fwvB94GSYz/S9QgA9a4Gryt7/Mc10GvoO1nilroARRxoNttsDJ8/cm04UZNoCv5S9QhvFKCxxI6vzNtfOLs8V+mb9jRQ0UIsoMej1vbyHfJn4AeH2e6cIMegn6WkUDxYhzRbW992G9kb/pA3gtf4GCRBoQnje2jKnzN+MFH+4S9PpKPQMl+aAFfrxR6vy9zHdtBruDdSl/gbLs9lrgR+dv6l9AulzkuzZD3cHy9iugNJFm0C09jTmWv7820BFwdzhXy0BpIj0+09AQ+ixx/mb93PVomPx9qZCB8sR6Ve95Kwv4fpU4f1/lvDqDfDu5lb9AkVZa4KLz96TFAcs33sxVMVCkWB+RbTyUuZs4f3N/7Vj8AL59q4aBUiMk1rnceQurl/oBpI+LrJcn/gNaN9pfoFyxergWhtAXifP3ed75G/8O1kv5C2iBW2yBU+fvfub5++Q4cvv7TvkCJYv2qGb1CZw6f7vc8zfyEfDVieoFyhbtbYE3da/b+9T5u8x+iSIGcLdeLtQuULjdaB+Se1Xnb+ILWJP883cc8a+/WqpcoHzxHqWZyd9oCgigaHewJhPtL1CFeL9Yc1Ptx+Ru6vnzfgGL9CHS3z5Zan+BOkR8Y36tx8Cjo8T5m/sDSHfiHAFPno/VLFCLiK9zmsnfKPlbwiqN40yf5wsVC1QjYpzU+aaixPnbF5G/MQJ4fTBTrkBNYv5qa41D6DeJ8/dg3ui2up6ZPgM6us3fFih/Q+dvIV3g09Dxeyl+AS1wy8fAqfO3nxeyUGG/1l1fP1moVKA+MR9qrewYeCd1/h6WslJh41f6AnWKequoqmPgnSP5O/g3lT3xC1QralvXHVa0UPJ3U0+DbZ/DuQoFtMAP+widVZO/LxLn701zW+rwpbNfQAv88BFiLS1M8vwt6KtMmPg9VJtA7eIGx20di/TnVP4O+5VOYQL1i3u22X2Uv23lb6AjYIUJ1C/y0zXdXP629UT1U5MTgBxa4FJen3iPUer8fbkoabmC/MLH3+oSaMAHLzC+P38vEufvx6LyN8y7XQQw0ILob3h6XvTyjCeJ83dd1nrtNvXWTYBHif2KiW6/5NU5S52/y7LW6w93sACyaYH7RcH5O5W/W1m1vmMAMmqB+0mxn6fyd1tBFswlaEALHCqBl2WuTOr87c5LW7EwR8CfFCXQhlH8JCmzB16mzt+r4pYtzJH5vqIEGnEaP0v2C0zgZeIL0N2z8hYtzBHwXE0CjRjgt+a78hJ4uUqbvyX2geMwM4OFmgS0wM2+T+LJu9T5W+LYPswRcCeAgXZa4KkE/r6XS52/ByWmUJgjYHewgIYMkjZXJeXvn/I32T4SwEBDhphB9+sT+Vv3FDbQEfCVggTaMRokVdav5O+G+Vvm7ygHus03V5BAQ44GyZWbWRmrcSh/HyTMEfB6oR4BLXDwHriIBE6dv6X+gFSgCbQXUQJtOe31wLnk7968zD0UaAItgAEtcJs9sPx9qOP2bssDBHDU64GzyN+beeNbaK4YAS1wgz3w69T5W27+jKYCGOAhBkuY9aX8/bW3rX+FcwkaaM7pYBnT5ZrAO9fT1Pn7stwNFOgI2B0soDmjvvUEHl3of9N/gztXioAWuLE3TWSQvzclf4ELND2YqURACxwzgfN718Rokj5/5wVvn0ATaHewAC1w5AS+yOyD9iyD/ndh9/RrdQhogSPL6wfnz5Jfvyp8+Do2hQcoowX+nMD78vdrr4reOyPfQgBKaYH7bn+Zx9+9nKTP367s/A325U0AA20G8MD3kLpJDgk8Xqa/flV88IytA8CjEnjoTnCyXCRvf993GeTvgeGJO1hA046HDp7pVeIEXq6m8vfxPgRaiD01CDRqZ/js+XiS8g9+u+rlbwChjoDP1SDQqNHw7WB3k+79i6M3OYyfK5i7Bru+J4CBZh2nCKCX80Tt71GfRf6WnzpPQ30bmylBQAs86DugUjTBoze9/A3k1CwAoMgWOEUTnEn7W0X+Bvsx6ecKENACD+122F/CHR32mbiqYNMEu7t3rgABLfDwl7EOB2yC37zIJX8vFxXsmVDDhG6u/oCWW+BkWbQ3VBM8OpzK35BCLacjYKBtp8nSqDscYh47PnydS/z26yryN9gEulN9gBY4VSC9jp5Iu/nEb79+VcWOCXadzR0sQAuccCZ7HTl+V/nkb/e2jg0TbKD/TPEBWuCEruNF8M51RvFbTf6Gm0DPFR+gBU5pen3ZQPz2/X4l2yXYBNoRMKAFTp5NESJ45/oiq/jtn9fS7618IwEI5W368ez1RdB8Os4tfvvbWvI33C9oPVN5AKcZJNTBQbCO6OBgmln89p9qyd+AE+iFwgMYZRFS3UGIH8rdneTW/P6jmvwNN4F2BAyQSQv8j8nk/HF/yMVkmmH89ifV7JRwE2gBDJBNC3z3sTyZzBaLB/wJ4/H4aDLJMX37rp78DTeBdgcLIKsW+N8Mvl0ulluk8HixXH7+f2XZ/FbV/wacQLuDBZBZC/xfBk/2l8tNQvjz/2o5yTd8K3vj4m64ZVF0AHeO8xvcTqaTm+Wdn+bw+O6/+qvrppM+ZzXl7zjcBNoRMMC/LXDGLWS/f/Ju+cN/zvoi7NW0S8Jdwer/VnMAubbAX7+u8icdVBn5u57VtEkCTqDPlRxAAS1wserK33G4K1j9QskB/Pvheiwu5e9vvqQFXBkVB/CfnQuBGVpd+RtyAv1JwQHE6G+4c1nZDgk4gT5XbwBfnIpM+XuP9wHXZqHcALTA8nczHxwBA2iB83dT3fYIOIF2BAygBXYBekMBr2A5AgbQAsvfDYV8CNgRMMD3LfCR6Azjqr7NYTwPEDOBRWcQH+tr8UJOoG9VGsD3DKHl78+FnEDPFBrA93akp/yN3QD3c4UGoAWOcAGrwvwN2gA7Agb4iZEEfqRuWeO+CLlCjoABfsYQWv7+KOgEeqbKAH7Go0jy9wchJ9COgAG0wOHtV7knQv4OgyNggF95IUYf3P/uLzTAjoABHsoQWv5+Yzx1BAwwBENo8+dvBJ1Ad3MVBqAFDmpSZ/8b9ncYHAED3NcCr6Tp9g5qbe2CNsD9c/UFcE8Ci1Oj1TgNcDdTXgD3MITeOlg+1roXgr6Eo18rLgAtsPzdhAk0wJBey9StvKx2J4SdQPfnagvgfobQXi4RoQH2EBLA7xhCb/NozUwD7AgYIJBDuSp/QzfAjoABNmAILX9DN8D9M3UF8FuG0BuqOH9DN8COgAE2aX4MoTdyWPMemJpAAyT49DWEbvoBpM/OAi/WM1UFsIl3Evj3B8BV74APgSfQC0UFsJFdAfu7/J1XvQECT6A7JQWwIS3wb/L3pOp//j8CL9e+igLY0HIlZO97rcSy7n/+wA2wI2CAzRlCt/oAUoQG2BEwwBbei9lfuqo8UEI3wJ+UE8AWDKF/5bzy/A3dAJtAA2xlIYHbzN/QL+Ho+4VqAtiGY+CfOqj93z30Szg8hASwrQtp22D+hm+APYQEsC1D6PbyN3wDbAINsLXdqcRtbZoavgE2gQZ4QAKL3G+z5FwD7CEkgCHaoWuh+3X+Xv2PvXvZahtLwwCawmYeJ8FjEInHBhPG5pYxkBLjmAS9/yO03VS6OimgAPtcdM7eq0ZZxUXWEZ+/X7KkAL/iqnHHEYAEXvMGHOXv8M0X4Lu5wwjgNQnsQqz/aed2twk0QCyHLsT6y7sKqtyFsQFANk5E733+Ts07TKABYv5R3hO+qwuwKsjfEAX4uyMIQAKvk7/7NezpsQk0QOl/l/uWv7Ma9nOAS95NoAHWMas+gWvI380/htAEGmBdB5Xnbx0xEuJtlgk0wFoGx3Xn71QBNoEGkMDytzcF+NahA7BuAlccwHXkb4gC7D7QAOs7qzZ/j+rYwUEutNt14ABIYPkbvQDfOWwAJPArfaxk745NoAGyVeOFWO8q2bcjBRggYwfyt1BhnrjhGmiATdmTv2UKc6uzS0cMgASWv0+46EygATI3qSh/qwmQsxuvH0Dutm7qCeBFJZ9AGgbap7sOFwAJ7E7Gj7sI9P7FwQKwUdsVJXAVz/IJVYBdAw0ggVXg+AXYBBpAAqvATzgNtTcdKAAbV8954Lvy70QZal+aQAP0qTUZQkcfZ3Qm0AASOEOXhhkKMEBGLqqpwGUncLA3Ut8cIwBBDPdr6cBF388p2ADaBBogmNnYELr3+RvsXZQJNEA4Z2ND6J4LN8X45vgAkMCG0I8V4M4EGkACG0JHz99wBdgEGiBwAtcRwIsyEzjgZXRTxwZAWOfHhtC9LcCdAAbor+GxIXRP8zfg+YPvDgwACWwI/bCQn+PedVwAxEjgGi7FKu6e0JOAe80lWABxEnirhgTeKWunnYZ8rd47KADiqCKBi3ow4VbQl2rqkACI9fd8VEEC7xa0wyYhXyiXYAFEtFd+AN+WU+wOg16wtutwAIiorSCB5a9LsAAyTOCb4hN4v4w9FfYEsEuwAGLbLr8E75awnwaTsC/S1KEAENmw+AQu4jTwRAEGKC+BSx9DF3B+M+wJ4G6hAAOkcFp6Ajd930OBTwCX+/BkgNz71Z4Ezjp/Aw+gfQgYIJVBU/Ztsfr9KdfQF2C5BAsgZQmeFJ3At31O4ODzCQUYIGkJLvuxDP0teZ9DTydcggWgBGt58fO3W1j7AIlL8GHBAbz42tOdMvbeBKB8s4kEzix/r8K/MlMLHyC5s4JLcB9PdQ4jPDJSAQbI4i/+Ubl35Rj1LoFj5K8CDJCJ84tyE3jes31x4uo0gJpK8PmJBM4jf2PcHuWbFQ+QUQSPJXAl+dvNrXeAjJyfLCRwFfn7w2IHyKsEzw9GEjjlDohzHmChAANkp9AI/tCLyImUv9176xwgwxB4szeSwGle+kiXorsNNECurgqM4K/ZJ/Dwc6cAA9SuHUngUvPXTTgA8o7gq+IS+CjrFzxa/ppAA2TeyNo2zgeDo5Xt25yTJ979uE2gAbL3uQ1/j+i2PYp2A5Db3Wxf6qZTgAH421bbhgyDu/Z6+UMOuuoTOF7+KsAAfdFch6rB15/u83AwrjyBtyLmrwIM0KMa3DSbz+B3TTP/+QPiVeAsE3hr0inAADxg+Oa0aTZZU2+bZjr8+/tHrMDLH111/irAAL1z2DSbSYpmmb6/fe+IFXj58zPL35tOAQbgSYNldq551dUyxh/6xuOYJfA6p9f0c9TPWyvAAL21v/S6zraY7e9/fOS7jqOmUJtPDH2OuuUKMEC/zZaOX/SHf3/1JU98x5OoMdTtZJLAgzZu/nZvLV6Afpu/Gawidfav909cnM3us3f+5PcbRr4t5c6HHF7FYfQ7bs8tXYAyDGc/Hf5yf42zn//83Psvf4mcRIsMEviP6Lfb/mHFApQXxUf/5/zlXx47ixaj1K/YaNwpwACk9iV6Go3eps3f+M+DUoABSF+BlyU4YQJvp3jgsgIMQA4VuFvspNrYq3GnAANQawXuuvFlglY43F6k2FYFGIAHnSRJpdvz2Nt5Phkn2dIPlhgADxbDNLnUfYzaDIenabayWyjAAORUgVclOF42nR8n2kgFGIDcKnDXfY80hz47S7WFCjAA+VXgpdk0whuMWbrtU4ABeNxgnC6g3s8CV8Th7CBh/irAAORZgUNH8FnK+PUcQgCyrcBLXw9DRfDp7Cbpli2mFhcAT0hbE7vuugmxVVv7N4m3SwEGIOcK3C26ZuMR3DSTxPGrAAOQewVeaprdjcZv+i1SgAHIvQLf35mj2VBjHGQRvwowAL2owKsI/vRpvvamXHzay2JjFGAAelKBV9r2cp3t2G6vc9mS9wowAH2pwCt3r87grba9ySV+DaABeJZhNsl1n8Ht7gsr/PJLbjLahO6HNQXAc3zp8rLTtlfzZ/7uq/83s1+/m1tSADyrAnf52Vl5+te+WsnwV1eAAXim8y5PVzuj1X+/PVdo9Nc/jzP9rRVgAJ7rS5ezxegXXd4UYACebdihAAOgAveXAgyACqwAA5C5E9G5kdPVHywlAF4imxtSGkADoALjJpQAhDUcyc/1n8JgHQHwUobQCjAAKRxIUAUYABW4d3YUYABUYANoAFRgA2gAeNShBFaAAUjgWI4qwADEN5Cjr6YAA6ACxzezeABQgaP7bu0AsI6ZLDWABiABQ2gFGIAEDKFfk78KMAAqsAE0AD00lMAG0AAkYAitAAOQggr8MkeWDAAqsAE0ABLYQxgA4PkMoZ0ABkAFztmt1QLA5hxI1ucZ7VosAGzQRLY+i/wFYKO2ZKsBNAAJfJKu/+5OAQZg0wyhDaABSGDrRsAaQAOQIIElrAE0AAk0MtYAGoAEnAZ+SmOBABCGIbQTwACkYAhtAA1ACobQj9m3OAAIZyCBDaABSOBU1j6Yv1NLA4CgVGAngAFI4FwC/9OfcwsDgMAMof95CyyrAoDghhcS97f81X8BiMFTGX51aUkAIIHlLwCl2h6LXSeAAZDA8heAShJY8t5bXFoMAEQ0kr3/zd+3lgIAURlCr8hfACJzGnhpxzoAIHoCy18XYAEQ37Ct/gTwn1YBABI4ev+VvwCkSeC674j1wQoAII3Dmi/Eeje3AABI5LTeBH43tfsBSOak2guw5C8ACQ0OKs3fmX0PQNIEPq4ygOUvAKkTWP4CQAKz+vL3u70OgASOn79TOx2ADJzJXwCQwIHzd26HAyCB5S8AErh8t/IXgJxU8nHgW3sagLzsVXEDrF07GgAJLH8BoPwElr8ASOAE+XtpFwOQpbbk/L2Tv/9p7w6W0oaiAAwDxr3RwppG6RoJdZ2RuBfayx4d3/8VKtNOFx2cwggh9+b7to4uzln8cwYTAFBg/QWADhRYfwFQYP0FgC4UOOgvAC2XTdLr76qyVwBaX+Birb8A0LzHtAp8rb8AxGE20l8AaF6ZToFvptYJgAI3baa/AERV4DS+ILi0SQDicvGgvwCgwId71V8AIpQtIu9vZYcARCnqAr/oLwCx3sD1t2j7e6e/AEQs1gKPrQ6AqI/gQZTfPpjZHACRu4zvnRxDWwMggQLnceU3f7YzAJKwjOkIzu0LgFT0ozmCN/oLQEqGcRzBwyurAiApTxEUeBMqiwIgtQIvW3/+/rAlANJzEUbtPn+ndgRAkr6vW/zujZX9AJDsEbxqa38nY9sBIGFFK18O/VLYDABpG7QwwYXzF4AOJHjSrvyunL8AdMNti/4Z621WWQgAHbEo25Lgm7ltANAd2eK+Ffktnb8AdCzB5cO58/sqvwBIcOPKqR0A0M0Ez8+X4LkPfwHocILr8zwVfFebPQAS3PCTR7X8AkBdNfpM0ltWmTkAbK/gXr+p/F5lmXkDwF/9zebk3/i7+WLOAPCv+/yU9c3zqREDwC5f83x0kvzm+dh0AeBjl3l+/PoOzRUA/me5XB7tDt68/zETBYD9PIWwPMITRyH8NEsA2F/WG4QQ1p+KbxhnvcooAeBQ2wiHw+M7fP+tZ9MDgM/cwtsIh9H+d28Izl4AOI5i9dsHIb7+8+OxSQHACTwWO01NBgBOKKt3MhgAAAAAAAAAAAAAAAAAAAAAAAAAAAAAAAAAAAAAAAAAAAAAAAAAAAAAAAAAAAAAAAAAAAAAAAAAAAAAAAAAAAAAAAAAAAAAAAAAAAAAAAAAAAAAAAAAAAAAAAAAAAAAAAAAAAAAAAAAAAAAAAAAAAAAAAAAAAAAAAAAAAAAAAAAAAAAAAAAAAAAAAAAAAAAAAAAAAAAAAAAAAAAAAAAAAAAAAAAAAAAAAAAAAAAAAAAAAAAAAAAAAAAAAAAAAAAuugXjODdK98fPBwAAAAASUVORK5CYII=;" parent="1" vertex="1">
          <mxGeometry x="690" y="500" width="74.93" height="42.15" as="geometry" />
        </mxCell>
      </root>
    </mxGraphModel>
  </diagram>
</mxfile>
